<svg xmlns="http://www.w3.org/2000/svg" viewBox="-1041 -563 1008 922">
<title>Lion Mix — Villano (Notebook 9, estudio A)</title>
<g transform="rotate(90)" fill="#3A3A3E" fill-rule="evenodd" opacity="0.92">
<g id="estudio-a-risa">
<path d="M96 896 L96 895 L97 895 L97 895.5 L96.5 896 L96 896 "></path>
<path d="M35 890 L35 887 L35.5 887 L36 887.5 L36 890 L35 890 "></path>
<path d="M28.5 945 L24 945 L24.5 944 L29 944 L28.5 945 "></path>
<path d="M-140 931 L-141 931 L-141 930 L-140 930 L-140 931 "></path>
<path d="M-139 929 L-140 929 L-140 928 L-139 928 L-139 929 "></path>
<path d="M-138 927 L-139 926 L-139 925 L-138 925.5 L-138 927 "></path>
<path d="M-137 924 L-138 924 L-138 923 L-137 923 L-137 924 "></path>
<path d="M-136 921 L-137 921 L-137 920 L-136 920 L-136 921 "></path>
<path d="M-135 919 L-136 918.5 L-136 916 L-135 916.5 L-135 919 "></path>
<path d="M-134 914 L-135 913.5 L-135 911 L-134 911.5 L-134 914 "></path>
<path d="M-444 943 L-445 943 L-445 942 L-444 942 L-444 943 "></path>
<path d="M-445 942 L-446 942 L-446 941 L-445 941 L-445 942 "></path>
<path d="M-447 939 L-448 939 L-448 938 L-447 938 L-447 939 "></path>
<path d="M-448 937 L-449 937 L-449 936 L-448 936 L-448 937 "></path>
<path d="M-449 935 L-450 935 L-450 934 L-449 934 L-449 935 "></path>
<path d="M-450 934 L-451 934 L-451 933 L-450 933 L-450 934 "></path>
<path d="M-454 928 L-455 928 L-455 927 L-454 927 L-454 928 "></path>
<path d="M-455 926 L-456 926 L-456 925 L-455 925 L-455 926 "></path>
<path d="M-460 915 L-459.5 915 L-459 915.5 L-459 918 L-459.5 918 L-460 917.5 L-460 915 "></path>
<path d="M-461 912 L-460.5 912 L-460 912.5 L-460 915 L-460.5 915 L-461 914.5 L-461 912 "></path>
<path d="M-462 909 L-461.5 909 L-461 909.5 L-461 912 L-461.5 912 L-462 911.5 L-462 909 "></path>
<path d="M-463 907 L-462.5 907 L-462 907.5 L-462 909 L-462.5 909 L-463 908.5 L-463 907 "></path>
<path d="M105 863 L104 863 L104 862 L105 862 L105 863 "></path>
<path d="M107 862 L106 862 L106 861 L107 861 L107 862 "></path>
<path d="M108 861 L107 861 L107 860 L108 860 L108 861 "></path>
<path d="M110 860 L109.5 860 L109 859.5 L110 859 L110 860 "></path>
<path d="M110 859 L110 858.5 L110.5 858 L111 858 L111 859 L110 859 "></path>
<path d="M111 858 L111 857.5 L111.5 857 L112 857 L112 858 L111 858 "></path>
<path d="M112 857 L112 856.5 L112.5 856 L113 856 L113 857 L112 857 "></path>
<path d="M113 856 L113 855.5 L113.5 855 L114 855 L114 855.5 L113.5 856 L113 856 "></path>
<path d="M114 855 L114 854.5 L114.5 854 L115 854 L115 854.5 L114.5 855 L114 855 "></path>
<path d="M115 854 L115 853.5 L115.5 853 L116 853 L116 853.5 L115.5 854 L115 854 "></path>
<path d="M116 853 L116 852.5 L116.5 852 L117 852 L117 852.5 L116.5 853 L116 853 "></path>
<path d="M117 852 L117 851.5 L117.5 851 L118 851 L118 851.5 L117.5 852 L117 852 "></path>
<path d="M118 851 L118 850.5 L118.5 850 L119 850 L119 851 L118 851 "></path>
<path d="M119 850 L119 849.5 L119.5 849 L120 849 L120 850 L119 850 "></path>
<path d="M120 849 L120 848.5 L120.5 848 L121 848 L121 849 L120 849 "></path>
<path d="M121 848 L121 847.5 L121.5 847 L122 847 L122 848 L121 848 "></path>
<path d="M122 847 L122 845.5 L123.5 844 L124 844 L124 846 L123.5 846 L123 846.5 L123 847 L122 847 "></path>
<path d="M124 844 L124 843.5 L124.5 843 L125 843 L125 844 L124 844 "></path>
<path d="M125 843 L125 842.5 L125.5 842 L126 842 L126 843 L125 843 "></path>
<path d="M125 844 L125.5 844 L126 843.5 L126 843 L126.5 843 L127 842.5 L127 842 L127.5 842 L128 841.5 L128 841 L129 841 L129 842.5 L125.5 846 L125 846 L125 844 "></path>
<path d="M134 840 L133 840 L133 839 L134 839 L134 840 "></path>
<path d="M126 842 L126 840.5 L127.5 839 L128 839 L128 841 L127.5 841 L127 841.5 L127 842 L126 842 "></path>
<path d="M100.5 841 L99.5 841 L99 840.5 L100.5 839 L101.5 839 L102 839.5 L100.5 841 "></path>
<path d="M128 839 L128 838.5 L128.5 838 L129 838 L129 839 L128 839 "></path>
<path d="M103.5 839 L102.5 839 L102 838.5 L103.5 837 L104.5 837 L105 837.5 L103.5 839 "></path>
<path d="M136 837 L135 837 L135 836 L136 836 L136 837 "></path>
<path d="M129 838 L129 836.5 L129.5 836 L130 836 L130 838 L129 838 "></path>
<path d="M106 837 L105 837 L105 836 L106 836 L106 837 "></path>
<path d="M137 836 L136 836 L136 835 L137 835 L137 836 "></path>
<path d="M130 836 L130 835.5 L130.5 835 L131 835 L131 836 L130 836 "></path>
<path d="M107 836 L106 836 L106 835 L107 835 L107 836 "></path>
<path d="M138 835 L137 835 L137 834 L138 834 L138 835 "></path>
<path d="M108.5 835 L107.5 835 L107 834.5 L108.5 833 L109.5 833 L110 833.5 L108.5 835 "></path>
<path d="M139 833 L138 833 L138 832 L139 832 L139 833 "></path>
<path d="M111 833 L110 833 L110 832 L111 832 L111 833 "></path>
<path d="M140 832 L139 832 L139 831 L140 831 L140 832 "></path>
<path d="M112 832 L111 832 L111 831 L112 831 L112 832 "></path>
<path d="M113 831 L112 831 L112 830 L113 830 L113 831 "></path>
<path d="M141 830 L140 830 L140 829 L141 829 L141 830 "></path>
<path d="M114 830 L113 830 L113 829 L114 829 L114 830 "></path>
<path d="M142 829 L141 829 L141 828 L142 828 L142 829 "></path>
<path d="M115 829 L114 829 L114 828 L115 828 L115 829 "></path>
<path d="M116 828 L115 828 L115 827 L116 827 L116 828 "></path>
<path d="M143 827 L142 827 L142 826 L143 826 L143 827 "></path>
<path d="M117 827 L116 827 L116 826 L117 826 L117 827 "></path>
<path d="M118 826 L117 826 L117 825 L118 825 L118 826 "></path>
<path d="M119 825 L118 825 L118 824 L119 824 L119 825 "></path>
<path d="M120 824 L119 824 L119 823 L120 823 L120 824 "></path>
<path d="M121 823 L120 823 L120 822 L121 822 L121 823 "></path>
<path d="M34 887 L34 884 L34.5 884 L35 884.5 L35 887 L34 887 "></path>
<path d="M99 841.5 L95.5 844.5 L93 845.5 L86 848.625 L84 849.25 L77 850.625 L73.25 850.75 L73.25 849.125 L85 847.25 L92 844.5 L98.5 841 L99 841.5 "></path>
<path d="M33 884 L33 882 L33.5 882 L34 882.5 L34 884 L33 884 "></path>
<path d="M32 882 L32 880.5 L32.5 880 L33 880 L33 882 L32 882 "></path>
<path d="M28 876 L27.5 876 L26 874.5 L25 871 L26 871 L26 871.5 L26.5 872 L27 872 L27 873.5 L28 874.5 L28 876 "></path>
<path d="M-35 825 L-35.5 825 L-36 824.5 L-35 824 L-35 825 "></path>
<path d="M-127 867 L-127.5 867 L-128 866.5 L-128 866 L-127 866 L-127 867 "></path>
<path d="M-128 866 L-128.5 866 L-129 865.5 L-129 865 L-128 865 L-128 866 "></path>
<path d="M-129 865 L-129.5 865 L-130 864.5 L-130 864 L-129 864 L-129 865 "></path>
<path d="M-130 864 L-130.5 864 L-131 863.5 L-131 863 L-130 863 L-130 864 "></path>
<path d="M-131 863 L-131.5 863 L-132 862.5 L-132 862 L-131 862 L-131 863 "></path>
<path d="M-206 883 L-207 883 L-207 882 L-206 882 L-206 883 "></path>
<path d="M-214 882 L-215 882 L-215 881 L-214 881 L-214 882 "></path>
<path d="M-217 881 L-218 881 L-218 880 L-217 880 L-217 881 "></path>
<path d="M-218 878 L-214.5 878 L-214 878.5 L-214 879 L-217.5 879 L-218 878.5 L-218 878 "></path>
<path d="M-222.5 880 L-224 880 L-223.5 879 L-222 879 L-222.5 880 "></path>
<path d="M-227 879 L-228 879 L-228 878 L-227 878 L-227 879 "></path>
<path d="M331 795 L329.625 793.5 L329 790.5 L329 790 L330 790.5 L331 794.5 L331 795 "></path>
<path d="M329 790 L327.625 788.5 L327 785.5 L327 785 L328 785.5 L329 789.5 L329 790 "></path>
<path d="M327 785 L325.625 783.5 L325 780.5 L325 780 L326 780.5 L327 784.5 L327 785 "></path>
<path d="M325 780 L324 779 L324 778 L325 778.5 L325 780 "></path>
<path d="M324 778 L323 777 L323 776 L324 776.5 L324 778 "></path>
<path d="M323 776 L322 775 L322 774 L323 774.5 L323 776 "></path>
<path d="M322 774 L321 774 L321 773 L322 773 L322 774 "></path>
<path d="M321 773 L320 772 L320 771 L321 771.5 L321 773 "></path>
<path d="M320 771 L319 770 L319 769 L320 769.5 L320 771 "></path>
<path d="M319 769 L318 769 L318 768 L319 768 L319 769 "></path>
<path d="M318 768 L317 767 L317 766 L318 766.5 L318 768 "></path>
<path d="M317 766 L316 765 L316 764 L317 764.5 L317 766 "></path>
<path d="M316 764 L315 764 L315 763 L316 763 L316 764 "></path>
<path d="M315 762 L314 762 L314 761 L315 761 L315 762 "></path>
<path d="M314 761 L313 760 L313 759 L314 759.5 L314 761 "></path>
<path d="M313 759 L312 759 L312 758 L313 758 L313 759 "></path>
<path d="M172 775 L171 775 L171 774 L172 774 L172 775 "></path>
<path d="M166 759 L165 759 L165 758 L166 758 L166 759 "></path>
<path d="M122 822 L121 822 L121 821 L122 821 L122 822 "></path>
<path d="M123 821 L122 821 L122 820 L123 820 L123 821 "></path>
<path d="M124 820 L123 820 L123 819 L124 819 L124 820 "></path>
<path d="M125 819 L124 819 L124 818 L125 818 L125 819 "></path>
<path d="M126.75 817.75 L125.5 818 L125 817.5 L126.5 816 L127 816.5 L126.75 817.75 "></path>
<path d="M128 816 L127 816 L127 815 L128 815 L128 816 "></path>
<path d="M148 815 L148 814.5 L148.5 814 L149 814 L149 814.5 L148.5 815 L148 815 "></path>
<path d="M129 815 L128 815 L128 814 L129 814 L129 815 "></path>
<path d="M130 814 L129 814 L129 813 L130 813 L130 814 "></path>
<path d="M149 814 L149 812.5 L149.5 812 L150 812 L150 814 L149 814 "></path>
<path d="M131 813 L130 813 L130 812 L131 812 L131 813 "></path>
<path d="M150 812 L150 811.5 L150.5 811 L151 811 L151 812 L150 812 "></path>
<path d="M151 811 L151 809 L152 809 L152 811 L151 811 "></path>
<path d="M131.5 812 L131 811 L133.5 808 L134 808.5 L134 809.5 L131.5 812 "></path>
<path d="M131 809 L130 809 L130 808 L131 808 L131 809 "></path>
<path d="M135 808 L134 808 L134 807 L135 807 L135 808 "></path>
<path d="M132 808 L131 808 L131 807 L132 807 L132 808 "></path>
<path d="M136 807 L135 807 L135 806 L136 806 L136 807 "></path>
<path d="M133 807 L132 807 L132 806 L133 806 L133 807 "></path>
<path d="M136.5 806 L136 805 L137.5 803 L138 803.5 L138 804.5 L136.5 806 "></path>
<path d="M139 803 L138 803 L138 802 L139 802 L139 803 "></path>
<path d="M136 803 L135 803 L135 802 L136 802 L136 803 "></path>
<path d="M137 802 L136 802 L136 801 L137 801 L137 802 "></path>
<path d="M138 801 L137 801 L137 800 L138 800 L138 801 "></path>
<path d="M139.5 802 L139 801 L140.5 799 L141 799.5 L141 800.5 L139.5 802 "></path>
<path d="M142 799 L141 799 L141 798 L142 798 L142 799 "></path>
<path d="M139 799 L138 799 L138 798 L139 798 L139 799 "></path>
<path d="M140 798 L139 798 L139 797 L140 797 L140 798 "></path>
<path d="M141 797 L140 797 L140 796 L141 796 L141 797 "></path>
<path d="M142.5 798 L142 797 L143.5 795 L144 795.5 L144 796.5 L142.5 798 "></path>
<path d="M145 795 L144 795 L144 794 L145 794 L145 795 "></path>
<path d="M142 795 L141 795 L141 794 L142 794 L142 795 "></path>
<path d="M143 794 L142 794 L142 793 L143 793 L143 794 "></path>
<path d="M144 793 L143 793 L143 792 L144 792 L144 793 "></path>
<path d="M145 792 L145.5 792 L146.5 791 L147 791 L147 792.5 L145.5 794 L145 793.5 L145 792 "></path>
<path d="M145 792 L144.25 791.75 L145 790 L145 792 "></path>
<path d="M145 790 L145 789.5 L145.5 789 L146 789 L146 789.5 L145.5 790 L145 790 "></path>
<path d="M147 789 L147.5 789 L148 788.5 L148 788 L149 788 L149 789.5 L147.5 791 L147 791 L147 789 "></path>
<path d="M146 789 L146 787.5 L147.5 786 L148 786 L148 788 L147.5 788 L147 788.5 L147 789 L146 789 "></path>
<path d="M149 786 L149.5 786 L150 785.5 L150 785 L151 785 L151 786.5 L149.5 788 L149 788 L149 786 "></path>
<path d="M151 785 L151 783 L152 783 L152 784.5 L151.5 785 L151 785 "></path>
<path d="M148 786 L148 784.5 L149.5 783 L150 783 L150 785 L149.5 785 L149 785.5 L149 786 L148 786 "></path>
<path d="M152 783 L152 782 L153 782 L153 782.5 L152.5 783 L152 783 "></path>
<path d="M153 782 L153 780 L154 780 L154 782 L153 782 "></path>
<path d="M-6 793 L-6.5 793 L-7 792.5 L-6 792 L-6 793 "></path>
<path d="M-6 792 L-6 791.5 L-5.5 791 L-5 791 L-5 792 L-6 792 "></path>
<path d="M-5 791 L-5 790.5 L-4.5 790 L-4 790 L-4 791 L-5 791 "></path>
<path d="M-4 790 L-4 789.5 L-3.5 789 L-3 789 L-3 790 L-4 790 "></path>
<path d="M-3 789 L-3 788.5 L-2.5 788 L-2 788 L-2 788.5 L-2.5 789 L-3 789 "></path>
<path d="M-2 788 L-2 787.5 L-1.5 787 L-1 788 L-2 788 "></path>
<path d="M2 784 L1 784 L1 783 L2 783 L2 784 "></path>
<path d="M4 782 L3 782 L3 781 L4 781 L4 782 "></path>
<path d="M5 780 L4 780 L4 779 L5 779 L5 780 "></path>
<path d="M10 776 L11.5 775 L12 775.5 L11.75 776.75 L10 777 L10 776 "></path>
<path d="M-31 820 L-32 820 L-32 819 L-31 819 L-31 820 "></path>
<path d="M-41 780 L-41 779 L-42 779 L-42 780 L-41 780 M-38 785 L-38 783.5 L-39 783 L-39 784 L-38 785 M-37 787 L-37 786 L-38 786 L-38 787 L-37 787 M-36 789 L-36 788 L-37 788 L-37 789 L-36 789 M-35 791 L-35 790 L-36 790 L-36 791 L-35 791 M-34 793 L-34 792 L-35 792 L-35 793 L-34 793 M-32 811 L-32 810 L-33 810 L-33 811 L-32 811 M6 784 L6 783 L5 783 L5 784 L6 784 M-9 786 L-9 785 L-10 785 L-10 786 L-9 786 M-19.5 799 L-6 785.5 L-6.5 785 L-7.5 785 L-20 798 L-19.5 799 M5 786 L5 785 L4 785 L4 786 L5 786 M4 787 L4 786 L3 786 L3 787 L4 787 M3 788 L3 787 L2 787 L2 788 L3 788 M2 790 L2 789 L1 789 L1 790 L2 790 M1 791 L1 790 L0 790 L0 791 L1 791 M0 792 L0 791 L-1 791 L-1 792 L0 792 M-5 792 L-4.5 792 L-4 791.5 L-4 791 L-3.5 791 L-3 790.5 L-3 790 L-1.5 790 L-1 789.5 L-1 788 L3 784.5 L3 783.5 L6 780.5 L5.75 777.25 L2 777.625 L0.5 778 L-6 784.5 L-5.5 785 L-4.5 785 L-3 786.5 L-5.5 789 L-6.5 789 L-23 805.5 L-21.5 807 L-9.5 797 L-6 793 L-5.5 793 L-5 792.5 L-5 792 M-1 793 L-1 792 L-2 792 L-2 793 L-1 793 M-2 794 L-2 793 L-3 793 L-3 794 L-2 794 M-3 795 L-3 794 L-4 794 L-4 795 L-3 795 M-20 797 L-20 796 L-21 796 L-21 797 L-20 797 M-21 798 L-21 797 L-22 797 L-22 798 L-21 798 M-20 800 L-20 799 L-21 799 L-21 800 L-20 800 M-21 801 L-21 800 L-22 800 L-22 801 L-21 801 M-22 802 L-22 801 L-23 801 L-23 802 L-22 802 M-23 803 L-23 802 L-24 802 L-24 803 L-23 803 M-12 803 L-12 802 L-13 802 L-13 803 L-12 803 M-13 804 L-13 803 L-14 803 L-14 804 L-13 804 M-14 805 L-14 804 L-15 804 L-15 805 L-14 805 M-15 806 L-15 805 L-16 805 L-16 806 L-15 806 M-16 807 L-16 806 L-17 806 L-17 807 L-16 807 M-17 808 L-17 807 L-18 807 L-18 808 L-17 808 M-18.25 809.75 L-18 808.5 L-18.5 808 L-20 809.5 L-19.5 810 L-18.25 809.75 M-27 811 L-27 810 L-28 810 L-28 811 L-27 811 M-26 813 L-26 812 L-27 812 L-27 813 L-26 813 M-24 817 L-24 815.5 L-25 815 L-25 816 L-24 817 M-19 817 L-19 816 L-20 816 L-20 817 L-19 817 M-28 824.5 L-29 823.5 L-27.5 822 L-26.5 822 L-25 820.5 L-26 819.5 L-26 818.5 L-26.5 818 L-29 820.5 L-30.5 823 L-38.5 833 L-40 835.5 L-39.5 836 L-28 824.5 M-18 819 L-18 818 L-19 818 L-19 819 L-18 819 M-21 822 L-21 819.5 L-22 819 L-22 821.5 L-21 822 M-19 822 L-19 821 L-20 821 L-20 822 L-19 822 M-35 824 L-34.75 823.25 L-33.5 823 L-30 819.5 L-30 818.5 L-27 815.5 L-28 814.5 L-28.25 813.25 L-29.5 813 L-33 816.5 L-34.5 819 L-49 835.5 L-53 840.5 L-60.5 848 L-61.75 847.75 L-62 844.5 L-59.5 842 L-58.25 841.75 L-44 823.5 L-42.5 821 L-36 812.5 L-34 809.5 L-32 807.5 L-32.5 805 L-33.5 802 L-34 799.5 L-36 797.5 L-36.5 796 L-41.625 785 L-42 783.5 L-46 779.5 L-44.5 778 L-43.25 777.75 L-43.75 773.25 L-41.5 773 L-39 775.5 L-38 778.5 L-36.5 780 L-35.5 780 L-35 780.5 L-36 781.5 L-35.5 783 L-26.75 799.75 L-25.5 800 L-24 798.5 L-24 797.5 L-7.5 781 L1 774.75 L7 774.625 L10 776 L9 776.5 L9.5 777 L10 777 L9 778.5 L8.375 782 L7 784.5 L-15 810.5 L-18 813.5 L-16 815.5 L-15.5 817 L-9.5 828 L-7 831.5 L2.5 843 L3 844.5 L1.5 846 L-2 842.5 L-2 841.5 L-4.5 839 L-5.5 839 L-8 836.5 L-9 834.5 L-11 831.5 L-12 829.5 L-14.5 827 L-15 827.5 L-14.5 829 L-8.625 843 L-8 845.5 L-6.5 847 L-5.5 847 L-5 847.5 L-6 848.5 L-5.5 849 L-4.25 849.25 L-3 851.5 L-2.25 853.75 L-3.5 854 L-4.5 855 L-6 853.5 L-6.25 851.25 L-7.5 851 L-9 849.5 L-8 848.5 L-8.5 848 L-9.5 848 L-10 847.5 L-9 846.5 L-9.5 846 L-10.5 846 L-11 845.5 L-10 844.5 L-10.5 844 L-11.75 843.75 L-14.5 837 L-16.5 833 L-22 824.5 L-23 822.5 L-23.5 822 L-25 823.5 L-25 824.5 L-39.5 839 L-53.5 850 L-56.5 852 L-58.5 853 L-62 856.5 L-62 857.5 L-62.5 858 L-63.5 857 L-66.5 856 L-67 855.5 L-65.5 854 L-62.5 854 L-60.5 852 L-59.5 852 L-57 849.5 L-57 848.5 L-56.5 848 L-55.5 849 L-54 847.5 L-54 845.5 L-53.5 845 L-52.5 846 L-52 845.5 L-52 844.5 L-42 834.5 L-43 833.5 L-42.5 833 L-41.5 833 L-39 830.5 L-39 829.5 L-35 825 L-34 824.5 L-35 824 M-40 837 L-40 836 L-41 836 L-41 837 L-40 837 M-20 823 L-20 822 L-21 822 L-21 823 L-20 823 M-18 824 L-18 822.5 L-19 822 L-19 823 L-18 824 M-19 825 L-19 824 L-20 824 L-20 825 L-19 825 M-17 827 L-17 824.5 L-18 824 L-18 826.5 L-17 827 M-16 829 L-16 827.5 L-17 827 L-17 828 L-16 829 M-15 831 L-15 830 L-16 830 L-16 831 L-15 831 M-14 833 L-14 832 L-15 832 L-15 833 L-14 833 "></path>
<path d="M-124 805 L-125 804.5 L-125 802 L-124 802.5 L-124 805 "></path>
<path d="M-123 797 L-124 796 L-124 795 L-123 795.5 L-123 797 "></path>
<path d="M-122 792 L-123 792 L-123 791 L-122 791 L-122 792 "></path>
<path d="M-132 861 L-132 860 L-133 860 L-133 861 L-132 861 M-127 866 L-127 865.5 L-127.5 865 L-128 865 L-128 864.5 L-128.5 864 L-129 864 L-129 863.5 L-129.5 863 L-130 863 L-130 862.5 L-130.5 862 L-131 862 L-131.5 861 L-132 861.5 L-132 862 L-133.5 862 L-135 860.5 L-135 859.5 L-139.5 855 L-142.75 853.75 L-143 852.5 L-141.5 851 L-140.5 852 L-138 852.625 L-134.5 855 L-129 859.5 L-125.5 862 L-116 871.5 L-116 873 L-115 872.5 L-115 869.5 L-117 867.5 L-116 866.5 L-116 863.5 L-118 861.5 L-117 860.5 L-117 857.5 L-119 855.5 L-118 854.5 L-118 851.5 L-120 849.5 L-119 848.5 L-119 845.5 L-121 843.5 L-120 842.5 L-120.25 839.25 L-121.5 839 L-122 838.5 L-121 837.5 L-121 835.5 L-123 833.5 L-122 832.5 L-122.125 827.25 L-123.5 827 L-124 826.5 L-123 825.5 L-123 819.5 L-123.5 819 L-124.5 820 L-125 819.5 L-121.5 795 L-120 788.5 L-120 788 L-119 788.5 L-119.5 792 L-120.5 796 L-121.25 802 L-120.5 827 L-113.5 868 L-111.5 875 L-110.375 878 L-110 879.5 L-107.5 882 L-104.5 882 L-103 883.5 L-103 884.5 L-103.5 885 L-104.5 884 L-106.5 884 L-108 885.5 L-107.5 887 L-105.625 891 L-99.75 908.75 L-97.5 909 L-96 910.5 L-96.25 911.75 L-97.75 912.25 L-98.25 913.75 L-99.5 914 L-102 911.5 L-102 910.5 L-103 909.5 L-102 908.5 L-104 906.5 L-104 905.5 L-104.5 905 L-105.5 906 L-113 911.5 L-115 911.5 L-116.75 910.75 L-117 909.5 L-115.5 908 L-112.5 908 L-107 902.5 L-107.625 896 L-108.5 893 L-110.5 888 L-113.5 883 L-118 876.5 L-127 867 L-125.5 867 L-125 866.5 L-125.5 866 L-127 866 M-124 868 L-124 867 L-125 867 L-125 868 L-124 868 M-123 869 L-123 868 L-124 868 L-124 869 L-123 869 M-122 870 L-122 869 L-123 869 L-123 870 L-122 870 M-121 871 L-121 870 L-122 870 L-122 871 L-121 871 M-114 874 L-114 873 L-115 873 L-115 874 L-114 874 M-116 877 L-116 876 L-117 876 L-117 877 L-116 877 M-108 885 L-108 884 L-109 884 L-109 885 L-108 885 "></path>
<path d="M-121 789 L-122 789 L-122 788 L-121 788 L-121 789 "></path>
<path d="M-120 786 L-121 785 L-121 784 L-120 784.5 L-120 786 "></path>
<path d="M-119 781 L-120 780 L-120 779 L-119 779.5 L-119 781 "></path>
<path d="M-118 777 L-119 776.5 L-119 774 L-118 774.5 L-118 777 "></path>
<path d="M-117 772 L-118 771 L-118 770 L-117 770.5 L-117 772 "></path>
<path d="M-129 767 L-130 767 L-130 766 L-129 766 L-129 767 "></path>
<path d="M-116 768 L-117 767.5 L-117 765 L-116 765.5 L-116 768 "></path>
<path d="M-146 763 L-146.5 764 L-147 763 L-146 763 "></path>
<path d="M-115 764 L-116 763 L-116 762 L-115 762.5 L-115 764 "></path>
<path d="M-114 761 L-115 760.5 L-115 758 L-114 758.5 L-114 761 "></path>
<path d="M312 757 L311 757 L311 756 L312 756 L312 757 "></path>
<path d="M311 756 L310 756 L310 755 L311 755 L311 756 "></path>
<path d="M310 755 L309 754 L309 753 L310 753.5 L310 755 "></path>
<path d="M309 753 L308 752 L308 751 L309 751.5 L309 753 "></path>
<path d="M308 751 L307 750 L307 749 L308 749.5 L308 751 "></path>
<path d="M307 749 L306 749 L306 748 L307 748 L307 749 "></path>
<path d="M306 748 L305 748 L305 747 L306 747 L306 748 "></path>
<path d="M305 746 L304 746 L304 745 L305 745 L305 746 "></path>
<path d="M304 745 L303 744 L303 743 L304 743.5 L304 745 "></path>
<path d="M303 743 L302 743 L302 742 L303 742 L303 743 "></path>
<path d="M302 741 L301 741 L301 740 L302 740 L302 741 "></path>
<path d="M301 740 L300 740 L300 739 L301 739 L301 740 "></path>
<path d="M300 738 L299 738 L299 737 L300 737 L300 738 "></path>
<path d="M299 737 L298 736 L298 735 L299 735.5 L299 737 "></path>
<path d="M298 735 L297 735 L297 734 L298 734 L298 735 "></path>
<path d="M297 733 L296 733 L296 732 L297 732 L297 733 "></path>
<path d="M296 731 L295 731 L295 730 L296 730 L296 731 "></path>
<path d="M293 731 L292 731 L292 730 L293 730 L293 731 "></path>
<path d="M295 730 L294 729 L294 728 L295 728.5 L295 730 "></path>
<path d="M292 729 L291 729 L291 728 L292 728 L292 729 "></path>
<path d="M294 728 L293 728 L293 727 L294 727 L294 728 "></path>
<path d="M293 726 L292 726 L292 725 L293 725 L293 726 "></path>
<path d="M292 724 L291 724 L291 723 L292 723 L292 724 "></path>
<path d="M291 723 L290 723 L290 722 L291 722 L291 723 "></path>
<path d="M290 726 L289 726 L289 725 L290 725 L290 726 "></path>
<path d="M289 724 L288 724 L288 723 L289 723 L289 724 "></path>
<path d="M288 723 L287 723 L287 722 L288 722 L288 723 "></path>
<path d="M290 721 L289 721 L289 720 L290 720 L290 721 "></path>
<path d="M287 721 L286 721 L286 720 L287 720 L287 721 "></path>
<path d="M289 720 L288 720 L288 719 L289 719 L289 720 "></path>
<path d="M286 720 L285 720 L285 719 L286 719 L286 720 "></path>
<path d="M288 719 L287 719 L287 718 L288 718 L288 719 "></path>
<path d="M285 719 L284 719 L284 718 L285 718 L285 719 "></path>
<path d="M284 718 L283 718 L283 717 L284 717 L284 718 "></path>
<path d="M283 717 L282 717 L282 716 L283 716 L283 717 "></path>
<path d="M282 716 L281 716 L281 715 L282 715 L282 716 "></path>
<path d="M281 715 L280 715 L280 714 L281 714 L281 715 "></path>
<path d="M279.5 714 L277 711 L277.5 710 L280 712.5 L280 713.5 L279.5 714 "></path>
<path d="M280 710 L279 710 L279 709 L280 709 L280 710 "></path>
<path d="M277 710 L276 710 L276 709 L277 709 L277 710 "></path>
<path d="M279 709 L278 709 L278 708 L279 708 L279 709 "></path>
<path d="M275.5 709 L274 707.5 L274.5 707 L275.75 707.25 L276 708.5 L275.5 709 "></path>
<path d="M276 706 L275 706 L275 705 L276 705 L276 706 "></path>
<path d="M274 703 L273 703 L273 702 L274 702 L274 703 "></path>
<path d="M273 702 L272 702 L272 701 L273 701 L273 702 "></path>
<path d="M272 701 L271 701 L271 700 L272 700 L272 701 "></path>
<path d="M271 700 L270 700 L270 699 L271 699 L271 700 "></path>
<path d="M270 699 L269 699 L269 698 L270 698 L270 699 "></path>
<path d="M269 698 L268 698 L268 697 L269 697 L269 698 "></path>
<path d="M268 697 L267 697 L267 696 L268 696 L268 697 "></path>
<path d="M266 695 L267 695.5 L266 696 L266 695 "></path>
<path d="M265 695 L265 694.5 L265.5 694 L266 695 L265 695 "></path>
<path d="M167 756 L166 756 L166 755 L167 755 L167 756 "></path>
<path d="M168 753 L167 753 L167 752 L168 752 L168 753 "></path>
<path d="M169 749 L168 749 L168 748 L169 748 L169 749 "></path>
<path d="M34 735 L34 734 L39 734 L39 735 L34 735 "></path>
<path d="M63 718 L62 718 L62 717 L63 717 L63 718 "></path>
<path d="M67 717 L66 717 L66 716 L67 716 L67 717 "></path>
<path d="M33 736 L33 735 L34 735 L34 735.5 L33.5 736 L33 736 "></path>
<path d="M-113 756 L-114 755.5 L-114 753 L-113 753.5 L-113 756 "></path>
<path d="M-136 753 L-137 753 L-137 752 L-136 752 L-136 753 "></path>
<path d="M-112 751 L-113 750.5 L-113 748 L-112 748.5 L-112 751 "></path>
<path d="M-110 744 L-110.75 743.75 L-110 741 L-110 744 "></path>
<path d="M259 689 L260 689.5 L259 690 L259 689 "></path>
<path d="M258 689 L258 688.5 L258.5 688 L259 689 L258 689 "></path>
<path d="M111 660 L111 659 L112.5 659 L113 659.5 L113 660 L111 660 "></path>
<path d="M110 659 L110 658 L110.5 658 L111 658.5 L111 659 L110 659 "></path>
<path d="M100 653 L100 652 L101.5 652 L102 652.5 L102 653 L100 653 "></path>
<path d="M-26 646 L-27 646 L-27 645 L-26 645 L-26 646 "></path>
<path d="M-27 643 L-28 643 L-28 642 L-27 642 L-27 643 "></path>
<path d="M-29 638 L-30 638 L-30 637 L-29 637 L-29 638 "></path>
<path d="M-23 639 L-23.5 639 L-24 638.5 L-24 630 L-23 630 L-23 639 "></path>
<path d="M-206 654 L-207 654 L-207 653 L-206 653 L-206 654 "></path>
<path d="M-264 682 L-264.5 683 L-265 682 L-264 682 "></path>
<path d="M-264 682 L-264 681 L-263 681 L-263 681.5 L-263.5 682 L-264 682 "></path>
<path d="M-263 680 L-262 680.5 L-263 681 L-263 680 "></path>
<path d="M-342 683 L-342 682 L-341 682 L-341 682.5 L-341.5 683 L-342 683 "></path>
<path d="M-341 682 L-341 681 L-340 681 L-340 681.5 L-340.5 682 L-341 682 "></path>
<path d="M-337 677 L-337 676 L-336 676 L-336 676.5 L-336.5 677 L-337 677 "></path>
<path d="M-336 676 L-336 675 L-335 675 L-335 675.5 L-335.5 676 L-336 676 "></path>
<path d="M-335 675 L-335 674 L-334 674 L-334 674.5 L-334.5 675 L-335 675 "></path>
<path d="M-340 678 L-340 676.5 L-335.5 672 L-335 672 L-335 674 L-335.5 674 L-336 674.5 L-336 675 L-336.5 675 L-337 675.5 L-337 676 L-337.5 676 L-338 676.5 L-338 677 L-338.5 677 L-339 677.5 L-339 678 L-340 678 "></path>
<path d="M-334 672 L-333.5 672 L-333 671.5 L-333 671 L-332 671 L-332 672.5 L-333.5 674 L-334 674 L-334 672 "></path>
<path d="M-332 671 L-332 670 L-331 670 L-331 670.5 L-331.5 671 L-332 671 "></path>
<path d="M-331 670 L-331 669 L-330 669 L-330 669.5 L-330.5 670 L-331 670 "></path>
<path d="M-330 669 L-330 668 L-329 668 L-329 668.5 L-329.5 669 L-330 669 "></path>
<path d="M-329 668 L-329 667 L-328 667 L-328 667.5 L-328.5 668 L-329 668 "></path>
<path d="M-328 667 L-328 666 L-327 666 L-327 666.5 L-327.5 667 L-328 667 "></path>
<path d="M-327 666 L-327 665 L-326 665 L-326 665.5 L-326.5 666 L-327 666 "></path>
<path d="M-326 665 L-326 664 L-325 664 L-325 664.5 L-325.5 665 L-326 665 "></path>
<path d="M-325 664 L-325 663.5 L-324.5 663 L-324 663 L-324 663.5 L-324.5 664 L-325 664 "></path>
<path d="M-324 663 L-324 662.5 L-323.5 662 L-323 662 L-323 662.5 L-323.5 663 L-324 663 "></path>
<path d="M-335 672 L-335 670.5 L-326.5 662 L-326 662 L-326 664 L-326.5 664 L-327 664.5 L-327 665 L-327.5 665 L-328 665.5 L-328 666 L-328.5 666 L-329 666.5 L-329 667 L-329.5 667 L-330 667.5 L-330 668 L-330.5 668 L-331 668.5 L-331 669 L-331.5 669 L-332 669.5 L-332 670 L-332.5 670 L-333 670.5 L-333 671 L-333.5 671 L-334 671.5 L-334 672 L-335 672 "></path>
<path d="M-323 662 L-323 661.5 L-322.5 661 L-322 661 L-322 661.5 L-322.5 662 L-323 662 "></path>
<path d="M-326 662 L-326 661.5 L-325.5 661 L-325 661 L-325 661.5 L-325.5 662 L-326 662 "></path>
<path d="M-322 661 L-322 659 L-321 659 L-321 660.5 L-321.5 661 L-322 661 "></path>
<path d="M-321 658 L-320 658.5 L-321 659 L-321 658 "></path>
<path d="M-319 658 L-320 658 L-320 657 L-319 657 L-319 658 "></path>
<path d="M-318 656 L-319 656 L-319 655 L-318 655 L-318 656 "></path>
<path d="M-317 654 L-318 653 L-318 652 L-317 652.5 L-317 654 "></path>
<path d="M-316 651 L-317 651 L-317 650 L-316 650 L-316 651 "></path>
<path d="M-315 649 L-316 648 L-316 647 L-315 647.5 L-315 649 "></path>
<path d="M-314 646 L-315 646 L-315 645 L-314 645 L-314 646 "></path>
<path d="M-313 644 L-314 644 L-314 643 L-313 643 L-313 644 "></path>
<path d="M-312 642 L-313 642 L-313 641 L-312 641 L-312 642 "></path>
<path d="M161 609 L161 607.5 L160 607 L160 608 L161 609 M161 625 L161 624 L160 624 L160 625 L161 625 M162.5 632 L164.25 626 L164.125 614 L163 610.5 L162 610 L161.25 628 L160.375 633 L159.5 636 L157.5 641 L154 646.5 L151 650.5 L149 653.5 L147.5 655 L145.5 656 L142.5 658 L140.5 659 L138 661.5 L138.5 662 L139.5 662 L141.5 660 L142.5 661 L144.5 659 L146.5 659 L148 657.5 L148.25 656.25 L151.5 655 L153 653.5 L153 651.5 L154.5 650 L155.5 650 L156 649.5 L155 648.5 L155.5 648 L156.5 648 L157 647.5 L156 646.5 L157 645.5 L157.5 644 L162.5 632 M74 649 L74 648 L73 648 L73 649 L74 649 M86.5 649 L87 648 L84.5 648 L84 649 L86.5 649 M90.5 650 L91 649 L88.5 649 L88 650 L90.5 650 M112 666 L112 663.5 L107.5 659 L103 656.5 L97 653.625 L91 651.5 L87 650.75 L72 650.75 L69 651.625 L65 653.5 L63.5 654 L62 655.5 L62.5 656 L92 655.75 L98 656.75 L103 658.625 L109.5 663 L111 665 L112 666 M93.5 651 L94 650 L92.5 650 L92 651 L93.5 651 M96.5 652 L97 651 L95.5 651 L95 652 L96.5 652 M61.5 657 L62 656 L60.5 656 L60 657 L61.5 657 M59 658 L59 657 L58 657 L58 658 L59 658 M67.5 659 L68 658 L65.5 658 L65 659 L67.5 659 M85 659.5 L87.5 659 L88 658 L78.5 658 L78 659 L78.5 659 L85 659.5 M91.5 659 L92 658 L89.5 658 L89 659 L91.5 659 M43.5 667 L47.5 663 L48.5 663 L51 660.5 L50.5 660 L47.5 659 L45 661.5 L43.5 665.5 L43.5 667 M77.5 662 L78 661 L73.5 661 L73 662 L77.5 662 M49.5 690 L51 688.5 L52.25 685.25 L53.75 684.75 L58 678.5 L59 676.5 L66.5 669 L72 665.5 L73.5 665 L74 664 L73.5 664 L72 663.75 L67 662.5 L60 662.625 L56 663.625 L52 665.5 L50.25 666.25 L49 669.5 L47 671.5 L46 677.5 L47 678.5 L46 679.5 L47 686.5 L49 689 L49.5 690 M114.5 695 L115 694.5 L114.375 686 L113.375 681 L112.375 678 L111 675.5 L108.5 672 L107 669.5 L102.5 665 L101 664.5 L99 663.5 L97 662.75 L89.5 662 L89 662.5 L90.5 664 L91.75 664.25 L92.25 665.75 L94.5 666 L99 670.5 L99 672.5 L101.5 675 L102.75 675.25 L104 677.5 L109 684.5 L110.5 687 L112.375 691 L113 693.5 L114.5 695 M84 664 L84 663 L83 663 L83 664 L84 664 M86 665 L86 664 L85 664 L85 665 L86 665 M44 673 L44 671.5 L43 671 L43 672 L44 673 M43 675 L43 673.5 L42 673 L42 674 L43 675 M38.5 708 L40 706.5 L40.25 705 L40.5 695 L41.5 688 L41 676.5 L40.5 676 L39 677.5 L36.5 692 L36.5 697 L38 707.5 L38.5 708 M48 717.875 L47.25 693 L46.375 690 L45.5 688 L45 686.5 L44 686 L41.125 717.875 L48 717.875 M119.5 669 L121.5 667 L123 666.5 L128 663.5 L129.75 662.75 L129.375 660 L129 658.5 L130.5 657 L134.5 657 L135 657.5 L133 659.5 L133.5 660 L135.5 659 L141.5 655 L143.5 654 L150 647.5 L151 645.5 L153 642.5 L155.5 638 L157.5 633 L158 630.5 L157.5 630 L156 631.5 L156 632.5 L153.5 635 L135.5 649 L117.5 660 L115 662.5 L116 663.5 L115 664.5 L116 665.5 L116 667.5 L117.5 669 L119.5 669 M103 655 L103 654 L102 654 L102 655 L103 655 M105 656 L105 655 L104 655 L104 656 L105 656 M107 657 L107 656 L106 656 L106 657 L107 657 M108 658 L108 657 L107 657 L107 658 L108 658 M162 761 L162 760.5 L165.5 748 L167.375 737 L166 682.5 L165 681.5 L166 680.5 L165 679.5 L165 678.5 L164 677.5 L165 676.5 L163 674.5 L164 673.5 L163 672.5 L163 671.5 L162 670.5 L163 669.5 L161 667.5 L162 666.5 L160 664.5 L161 663.5 L160.5 663 L159.5 663 L159 662.5 L160 661.5 L159.5 661 L158.5 661 L158 660.5 L159 659.5 L156.5 657 L155 658.5 L156 659.5 L157 666.5 L156 667.5 L157 668.5 L162.5 691 L164.75 711 L161 760.5 L162 761 M133 661 L133 660 L132 660 L132 661 L133 661 M113 667 L113 666 L112 666 L112 667 L113 667 M114 669 L114 668 L113 668 L113 669 L114 669 M112 706 L111 692.5 L110 692 L111 705.5 L112 706 M190.5 655 L191 654 L190.5 654 L185 650.5 L181 648.5 L179.25 647.75 L178.75 646.25 L176.5 646 L174.5 644 L173.5 645 L173 644.5 L172.75 643.25 L169.5 642 L169 642.5 L170 643.5 L169 644.5 L169.5 646 L170.375 648 L171 650.5 L172.5 652 L184 654.5 L190.5 655 M192.5 656 L193 655 L191.5 655 L191 656 L192.5 656 M186.5 659 L187 658 L185.5 658 L185 659 L186.5 659 M247.5 692 L248 691.5 L242 685.5 L242 684.5 L237.5 680 L236 679.5 L221.5 672 L212 667.5 L210.5 667 L208.5 665 L206 664.375 L199 661.5 L192 659.5 L187.5 659 L187 660 L187.5 660 L190 660.625 L196 663.5 L201 665.625 L211 671.5 L213 672.375 L215.5 673 L217.5 675 L218.5 675 L220.5 677 L223 677.625 L227 679.375 L229.5 680 L231.5 682 L238.5 686 L245.5 691 L247.5 692 M228 672 L228 671 L227 671 L227 672 L228 672 M230 673 L230 672 L229 672 L229 673 L230 673 M245 683 L245 682 L244 682 L244 683 L245 683 M246 684 L246 683 L245 683 L245 684 L246 684 M249 693 L249 692 L248 692 L248 693 L249 693 M34 725.625 L38.75 724.875 L39 721.5 L37.5 720 L36.5 720 L34.5 722 L33.5 721 L32.5 722 L31.5 722 L30.5 723 L29.5 722 L28.5 723 L24.5 724 L24 725 L24.5 725 L28 725.625 L29.5 726 L30.5 725 L31.5 726 L34 725.625 M33 733 L33 732 L32 732 L32 733 L33 733 M29.5 734 L30 733 L28.5 733 L28 734 L29.5 734 M26.5 735 L27 734 L25.5 734 L25 735 L26.5 735 M13 738 L13 737 L12 737 L12 738 L13 738 M62 714.625 L67.75 712.75 L68 710.5 L66 708.5 L65 705.5 L57.5 698 L56.5 698 L53.5 695 L51.5 695 L51 695.5 L54 698.5 L57.5 704 L58.375 706 L59.375 709 L60.125 714.75 L62 714.625 M53 716.625 L56.5 716 L59 713.5 L58.5 710 L56.5 705 L52 698.5 L51 698 L51 698.5 L50.625 701 L51 716.75 L53 716.625 M40 711 L40 708.5 L39 708 L39 710.5 L40 711 M55 719 L55 718 L54 718 L54 719 L55 719 M52.5 721 L54 719.5 L53.5 719 L52.25 719.75 L52.5 721 M43.5 726 L44.5 725 L47.5 724 L49 722.5 L49 720.5 L48.5 720 L47.5 721 L41.5 720 L41 720.5 L42 721.5 L42 724.5 L43.5 726 M56 721 L56 720 L55 720 L55 721 L56 721 M55 722 L55 721 L54 721 L54 722 L55 722 M54 723 L54 722 L53 722 L53 723 L54 723 M47.5 734 L49.5 732 L52.5 733 L53 732.5 L52 731.5 L51 727.5 L49.5 726 L48.5 727 L45.5 728 L43 730.5 L43.25 732.75 L47.5 734 M40 730 L40 729 L39 729 L39 730 L40 730 M38 731 L38 730 L37 730 L37 731 L38 731 M36 732 L36 731 L35 731 L35 732 L36 732 M42 735 L42 734 L41 734 L41 735 L42 735 M106.5 724 L107.5 723 L108.5 723 L111 720.5 L114.5 715 L116.5 710 L117.25 706 L118 695.5 L117 695 L117 697.5 L116 698.5 L117 699.5 L116 703.5 L114 705.5 L115 706.5 L114 707.5 L113.375 710 L111 714.5 L108 717.5 L106.5 722.5 L106.5 724 M111 709 L111 706.5 L110 706 L110 708.5 L111 709 M104 721 L104 720 L103 720 L103 721 L104 721 M307.75 763.75 L307.625 762 L307 759.5 L305.5 758 L304.5 758 L304 757.5 L305 756.5 L303.5 755 L302.5 755 L302 754.5 L303 753.5 L302.5 753 L301.25 752.75 L300.75 750.25 L299.25 749.75 L287 729.5 L277.5 720 L277 720.5 L289 735.5 L296.5 749 L305 761.5 L306.25 763.75 L307.75 763.75 M156 777 L156 775.5 L155 775 L155 776 L156 777 M155 779 L155 777.5 L154 777 L154 778 L155 779 M155.5 798 L157 796.5 L158.25 791 L159 777.5 L158 777 L157.5 782 L154.375 794 L154.5 796.5 L155.5 798 M193.5 814 L195 812.5 L195.5 811 L196.5 809 L200.375 803 L205.375 789 L205.25 784 L205 782.5 L200.5 778 L196 775.5 L189 772.75 L180 770.625 L173.5 770 L172 771.5 L172 772.5 L170.5 774 L169.5 773 L168 774.5 L167.5 777 L159.5 798 L159 799.5 L159.5 800 L160.5 799 L161 799.5 L161 800.5 L161.5 801 L162.5 800 L163.5 801 L165 801.375 L168 802.5 L170.5 803 L172.5 805 L174 805.5 L181 809.5 L191 813.5 L193.5 814 M152 804 L152 803 L151 803 L151 804 L152 804 M160.5 804 L161 803 L159.5 803 L159 804 L160.5 804 M163.5 805 L164 804 L161.5 804 L161 805 L163.5 805 M155 807 L155 805.5 L154 805 L154 806 L155 807 M178.75 842.75 L179.25 841.25 L180.75 840.75 L181.5 839 L191.5 822 L192.375 820 L192.75 817.25 L189 816.375 L179 812.625 L166 809.5 L159 806.5 L157.5 806 L156.5 805 L156 805.5 L155.375 808 L152 814.5 L150 816.5 L149.375 819 L146.5 825 L146.25 826.75 L150.75 828.25 L151 829.5 L152 830.5 L151 831.5 L151.5 832 L152.5 832 L153.5 833 L154.5 832 L155 832.5 L155 833.5 L155.5 834 L156.5 833 L158.5 835 L159.5 834 L160 834.5 L160.25 835.75 L161.5 836 L162.5 837 L163.5 836 L164 836.5 L164 837.5 L164.5 838 L165.5 837 L166 837.5 L166 838.5 L166.5 839 L167.5 838 L170.5 841 L171.5 840 L172 840.5 L172 841.5 L172.5 842 L173.5 841 L174 841.5 L174 842.5 L174.5 843 L175.5 842 L176.5 843 L178.75 842.75 M154 809 L154 808 L153 808 L153 809 L154 809 M150 814 L150.5 814 L151 813.5 L151 812 L151.5 812 L152 811.5 L152 811 L153 809.5 L152 809 L151.5 808 L151 808.5 L151 809 L147 812.5 L147.25 814.75 L148 815 L148 817.5 L148.5 818 L149 817.5 L150 814 M143 818 L143 817 L142 817 L142 818 L143 818 M145 818 L145 817 L144 817 L144 818 L145 818 M148 820 L148 818.5 L147 818 L147 819 L148 820 M164 762 L164 761 L163 761 L163 762 L164 762 M163 782 L163 781.5 L168.625 765 L168.75 763.25 L166.5 763 L164 765.5 L162.875 769 L162 781.5 L163 782 M177.5 767 L178 766 L177.5 766 L173 765.25 L171.25 765.25 L171.25 766.875 L177.5 767 M180 767 L180 766 L179 766 L179 767 L180 767 M183.5 768 L184 767 L182.5 767 L182 768 L183.5 768 M188.5 769 L189 768 L186.5 768 L186 769 L188.5 769 M191.5 770 L192 769 L190.5 769 L190 770 L191.5 770 M194.5 771 L195 770 L192.5 770 L192 771 L194.5 771 M205.5 779 L206 778.5 L206 777.5 L201.5 773 L200 772.5 L198 771.625 L195.5 771 L195 772 L195.5 772 L197 772.5 L200 774 L205.5 779 M208 796 L208 795 L207 795 L207 796 L208 796 M230.5 799 L231.5 799 L234 796.5 L234 795.5 L235.5 794 L240 791.625 L243 790.625 L249 789.375 L261 785.375 L262.5 785 L263 784 L256.5 784 L255.5 785 L254.5 784 L253.5 785 L249 785.5 L241 787.5 L238 788.625 L216.5 800 L215 801.5 L214.75 802.75 L213.5 803 L212 804.5 L211 806.5 L207.5 812 L207 813.5 L208.5 815 L210 815.5 L212 815.75 L218.5 815 L220 813.5 L220.5 812 L224 806 L230.5 799 M207 798 L207 797 L206 797 L206 798 L207 798 M204 799 L204 798 L203 798 L203 799 L204 799 M165.5 806 L166 805 L164.5 805 L164 806 L165.5 806 M168 807 L168 806 L167 806 L167 807 L168 807 M225 821.625 L229.5 821 L230 820.5 L228.5 819 L222.25 819.125 L222.25 821.75 L225 821.625 M310 769 L310 768.5 L309 764.5 L308 764 L308 764.5 L308.625 767.5 L310 769 M311 770 L311 769 L310 769 L310 770 L311 770 M99 871.5 L99 870.5 L98.5 870 L95 873.5 L96 874 L99 871.5 M95 875 L95 874 L94 874 L94 875 L95 875 M94 876 L94 875 L93 875 L93 876 L94 876 M140 823 L140 822 L139 822 L139 823 L140 823 M139 825 L139 824 L138 824 L138 825 L139 825 M137 828 L137 827 L136 827 L136 828 L137 828 M169.5 844 L170 843.5 L168.5 842 L167 841.5 L159 837.5 L150.25 833.75 L149.75 832.25 L148.5 832 L147 830.5 L147 828.5 L146.5 828 L145 829.5 L145 831.5 L152.5 839 L155.5 840 L156.5 841 L157.5 840 L158 840.5 L158.25 841.75 L159.5 842 L160.5 841 L162.5 843 L163.5 842 L165.5 844 L169.5 844 M136 830 L136 829 L135 829 L135 830 L136 830 M150 830 L150 829 L149 829 L149 830 L150 830 M135 831 L135 830 L134 830 L134 831 L135 831 M134 833 L134 832 L133 832 L133 833 L134 833 M133 834 L133 833 L132 833 L132 834 L133 834 M147 835 L147 834 L146 834 L146 835 L147 835 M120.5 854 L123 851.5 L123 850.5 L122.5 850 L120 853 L120.5 854 M120 855 L120 854 L119 854 L119 855 L120 855 M119 856 L119 855 L118 855 L118 856 L119 856 M118 857 L118 856 L117 856 L117 857 L118 857 M117 858 L117 857 L116 857 L116 858 L117 858 M116 859 L116 858 L115 858 L115 859 L116 859 M115 860 L115 859 L114 859 L114 860 L115 860 M114 861 L114 860 L113 860 L113 861 L114 861 M113 862 L113 861 L112 861 L112 862 L113 862 M112 863 L112 862 L111 862 L111 863 L112 863 M104.5 868 L106.5 866 L109.5 865 L110 864.5 L108.5 863 L106.5 865 L105.5 865 L104 867 L104.5 868 M111 864 L111 863 L110 863 L110 864 L111 864 M100.5 871 L103 868.5 L103 867.5 L102.5 867 L100 870 L100.5 871 M193 824 L193 823 L192 823 L192 824 L193 824 M191 827 L191 826 L190 826 L190 827 L191 827 M187 843.25 L188.75 842.75 L191.5 832 L192 828.5 L191.5 828 L190 829.5 L184.5 840 L184 841.5 L182 843.5 L182.5 844 L187 843.25 M181 845 L181 844 L180 844 L180 845 L181 845 M226 868.5 L238 866.5 L241 865.375 L242.5 865 L249 858.5 L249.5 857 L252 852.5 L251.5 852 L250.5 853 L246 855.5 L244.5 856 L242.5 858 L240 858.625 L236 860.25 L224 863.5 L211 866.5 L204.5 867 L204 868 L213 868.375 L215 868.125 L226 868.5 M213 877 L213 876 L212 876 L212 877 L213 877 M239 889.75 L250.5 888 L251 887 L250.5 887 L229 883.5 L219 879.625 L216.5 879 L214.5 877 L213.5 877 L213 877.5 L219.5 884 L221 884.5 L227 887.375 L230 888.375 L239 889.75 M248.5 823 L249 822 L247.5 822 L247 823 L248.5 823 M250.5 824 L251 823 L249.5 823 L249 824 L250.5 824 M253 825 L253 824 L252 824 L252 825 L253 825 M260 842 L260 836.5 L259 836 L259 841.5 L260 842 M253 852 L253 851 L252 851 L252 852 L253 852 M321 842 L321 839.5 L320 839 L320 841.5 L321 842 M320 846 L320 843.5 L319 843 L319 845.5 L320 846 M319 849 L319 848 L318 848 L318 849 L319 849 M318 852 L318 850.5 L317 850 L317 851 L318 852 M317 854 L317 853 L316 853 L316 854 L317 854 M316 856 L316 855 L315 855 L315 856 L316 856 M315 859 L315 857.5 L314 857 L314 858 L315 859 M294.5 893 L298 889.5 L304 881.5 L305 879.5 L307 877.5 L307.625 875 L309.375 871 L310 868.5 L312 866.5 L312.375 865 L313.5 862 L314 859.5 L313 859 L313 859.5 L312 861.5 L294 885.5 L293 887.5 L287.5 893 L285 894.5 L277.5 900 L267 906.5 L263 908.375 L231 919.25 L194 923.875 L127.5 918 L127 919 L127.5 919 L179 931.5 L184.5 932 L185.5 933 L186.5 932 L201.5 933 L202.5 934 L203.5 933 L212 932.375 L253 922.5 L255.5 922 L257.5 920 L259 919.5 L261 918.5 L271 910.5 L277.5 906 L283 903 L294.5 893 M67.5 891 L69 889.5 L68.5 889 L67.5 889 L66 890.5 L66.5 891 L67.5 891 M66 892 L66 891 L65 891 L65 892 L66 892 M96 896 L94 898.5 L94 899.5 L96.5 902 L99 902.625 L104 905.5 L111 908.5 L115 910.375 L131 914.5 L194.5 920 L195.5 921 L196.5 920 L230 916.25 L260 906.375 L268 902.5 L276.5 897 L284.5 891 L286.75 889.75 L293 881.5 L295 878.5 L296 876.5 L297 875.5 L296.5 875 L295.5 875 L294 876.5 L293.75 877.75 L291.25 878.25 L290.75 879.75 L288.5 880 L286.5 882 L266 885.625 L263 886.5 L255 889.5 L239 892.75 L237 892.75 L226 890.375 L220 887.5 L215.5 885 L213 882.5 L209 876.5 L197.5 865 L196.5 865 L194.5 863 L192.5 863 L191 861.5 L192 860.5 L192.25 859.25 L194 859.375 L204 863.25 L209 863.5 L215 862.5 L238 856.375 L244 853.5 L249.5 850 L251.5 848 L253.5 848 L255 846.5 L255.25 833 L254.75 830.25 L249 826.625 L239 822.75 L234.5 822 L232.5 824 L221 826.5 L218 826.75 L218 818.25 L216.5 818 L215.5 819 L214.5 818 L212 818.5 L209 818.375 L207 817.5 L205.5 817 L204 815.5 L204.75 811 L205.5 809 L209 802.5 L214.5 797 L215.5 797 L218.5 794 L220.5 794 L222.5 792 L224 791.5 L235 785.625 L245 782.5 L257 780.625 L277 780.5 L287 782.625 L291.5 784 L294 786.5 L294 787.5 L292.5 789 L287 787.375 L285 787.25 L265 787.75 L259 789.5 L252 792.25 L244 793.75 L242 794.5 L237.25 797.25 L237 798.5 L234.5 801 L233.5 801 L228 806.5 L227 808.5 L223.5 814 L223.25 815.875 L248 818.75 L252.5 820 L256 823.5 L256.5 825 L257.375 827 L258.25 829.75 L259.5 830 L261 831.5 L262.25 835 L262.25 843 L262 844.5 L257 849.5 L257 851.5 L255 853.5 L254.5 855 L253.5 857 L249.75 862.75 L248.5 863 L243.5 868 L241 868.5 L238 869.5 L227 871.375 L214.5 872 L214 872.5 L215.5 874 L217 874.5 L232 880.5 L235 881.375 L249 883.5 L260 883.125 L265.5 880 L270 875.5 L271 873.5 L277 865.5 L279 862.5 L280.25 860.25 L281.5 860 L282.5 859 L284 860.5 L283 861.5 L282 863.5 L280 866.5 L274 874.5 L273 876.5 L268 881.5 L268.5 882 L286.5 879 L288.5 877 L290 876.5 L296.5 872 L297.5 871 L298 871.5 L298 873.5 L298.5 874 L301 871.5 L303 868.5 L309 860.5 L311 857.5 L312.375 855 L313.625 852 L314 850.5 L316 848.5 L315 847.5 L315.5 847 L316.75 846.75 L317 844.5 L316 843.5 L316.5 843 L317.75 842.75 L320.5 825 L319.375 803 L318.5 797 L317.5 793 L311.375 777 L310 774.5 L305.5 768 L304.5 766 L299 757.5 L293.5 750 L286 736.5 L283 732.5 L259 705.5 L257 702.5 L254.5 700 L252.5 699 L229.5 684 L227 682.625 L222 680.5 L218 678.5 L216.5 678 L214.5 676 L212 675.375 L200 668.5 L193 665.5 L184 661.5 L181.5 661 L179.5 659 L178 658.5 L174 656.5 L172.25 656.25 L172.5 658 L173 659.5 L172 660.5 L173 661.5 L177.25 695 L176.5 741 L173 761.5 L174.5 763 L180 763.5 L193 766.5 L199 768.625 L201 769.5 L205.5 772 L207 773.5 L207.5 775 L208.375 777 L209.5 781 L210 785.5 L209 786.5 L210 787.5 L209.25 795 L208.5 797 L206 801.5 L202.5 807 L198.5 814 L197.625 816 L196.625 819 L193.5 837 L192.5 840 L192 842.5 L189.5 845 L185 846.375 L164 845.25 L157 843.375 L153 841.5 L147.5 838 L145.5 837 L144 835.5 L143 832.5 L142.5 832 L141 833.5 L140 835.5 L122 855.5 L111.5 866 L109.5 867 L86 883.5 L79.5 887 L71.5 892 L69.5 893 L67.5 895 L66.5 894 L62.25 895.25 L61.75 896.75 L59.25 896.75 L59 893.5 L61.5 891 L62.5 892 L63 891.5 L65 888.5 L71.5 880 L73 877.5 L76.5 874 L77.5 874 L78 874.5 L76 876.5 L76 877.5 L74 879.5 L75 880.5 L74.5 881 L73.5 881 L71 883.5 L72 884.5 L71.5 885 L70.5 885 L68 887.5 L70.5 890 L71 889.5 L71 888.5 L71.5 888 L72.5 889 L74.5 887 L75.75 886.75 L76 885.5 L77.5 884 L78.5 885 L80 883.5 L80 882.5 L81.5 881 L82.5 882 L84 880.5 L84 879.5 L91.5 872 L92.5 873 L95 870.5 L95 869.5 L97.5 867 L99.75 866.75 L100 865.5 L101.5 864 L102.5 865 L107 862.5 L108.5 862 L110 860 L110.5 860 L111 859.5 L111 859 L111.5 859 L112 858.5 L112 858 L112.5 858 L113 857.5 L113 857 L114.5 857 L119 852.5 L119 851 L119.5 851 L120 850.5 L120 850 L120.5 850 L121 849.5 L121 849 L121.5 849 L122 848.5 L122 848 L122.5 848 L123 847.5 L123 847 L123.5 847 L124 846.5 L124 846 L125 846 L125 847.5 L123 849.5 L123.5 850 L124.5 850 L138 836.5 L139 834.5 L143 828.5 L143.5 826 L143.25 824 L144 819.5 L143 819 L143 819.5 L132.5 837 L132 838.5 L129 841 L129 839 L129.5 839 L130 838.5 L130 838 L130.5 838 L131 837.5 L131 836 L132 835.5 L131 835 L131.5 833 L136.5 825 L141.5 816 L142 814.5 L144 812.5 L143.25 808 L141 803.5 L142.5 802 L145 804.5 L144 805.5 L145.5 807 L146.75 806.75 L149.375 800 L149.75 796.25 L148.5 796 L147 794.5 L148 793.5 L148.25 792.25 L150.75 792.25 L151 793.5 L151 794 L152 793.5 L152.5 790 L153.5 786 L154 782 L155 780.5 L154 780 L153.5 779 L153 779.5 L153 780 L152.5 780 L152 780.5 L152 782 L151.5 782 L151 782.5 L151 783 L150 783 L150.5 781 L156.25 771 L157.375 765 L161.75 711 L159.5 691 L154.5 671 L153 657.5 L152.5 657 L150.5 659 L145 662.375 L142 663.25 L132 664.75 L129.5 666 L124 669.5 L120 671.375 L116.5 672 L114.5 670 L114 670.5 L119.375 688 L120.5 695 L120.25 706 L118.375 714 L117.5 716 L114 721.5 L110.5 725 L109 725.5 L103.5 729 L96 734.5 L91.5 737 L90 735.5 L90 734.5 L91.5 733 L93.5 733 L95.5 731 L96.5 731 L100 727.5 L102.5 723 L102.75 721.25 L101.5 721 L99.5 723 L95.5 724 L94 722.5 L96.5 720 L98 719.5 L100 718.5 L105.5 715 L107 713.5 L107.125 691 L106.375 688 L105.5 686 L100 676.5 L96.5 673 L91 669.5 L82 665.625 L78 665.625 L76 666.5 L73.5 668 L65.5 674 L62 677.5 L61 679.5 L53.5 690 L53 691.5 L52 692.5 L52.5 693 L58.5 697 L66 704.5 L69.375 711 L70 713.5 L71 714.5 L69.5 716 L68 715.5 L66 715.375 L59.5 717 L58 718.5 L56 722.5 L54.5 724 L53.25 724.25 L53.625 727 L54.5 729 L57 733.5 L55.5 735 L50 735.5 L32 739.5 L26 741.375 L19.5 742 L18 740.5 L18.25 739.25 L21 739.625 L22.5 740 L23.5 739 L24.5 740 L25 739.5 L25 738.5 L25.5 738 L26.5 739 L27.5 739 L29.5 737 L30.5 738 L33 736 L36 736.5 L38.5 736 L39 735 L40 734.5 L39 734 L40.75 732.75 L40.75 731.25 L39 731.5 L37 732.375 L34.25 733.25 L34 734 L33.5 734 L33 734.5 L33 735 L30 735.5 L14 738.75 L11.5 739 L10.5 740 L9 738.5 L9.25 736.25 L22 734.25 L31 731.5 L37.5 729 L38 729 L37.5 728 L25 727.25 L22 726.375 L18.25 724.75 L18.25 722.25 L37.75 717.75 L37.75 716.25 L36.25 715.75 L36.625 712 L34.625 704 L33.5 697 L33.5 691 L35.625 680 L36.625 677 L37.5 675 L38 673.5 L40 671.5 L40.625 667 L41.625 664 L42.5 662 L43 660.5 L46.5 657 L53.5 658 L56.5 655 L58.75 654.75 L59.25 653.25 L64 650.625 L69 648.625 L72 647.75 L87 647.75 L91 648.5 L97 650.5 L100 652 L98.5 652 L98 652.5 L98.5 653 L100 653 L101.5 654 L102 653 L103.5 653 L105.5 655 L108.5 656 L110 658 L109 658.5 L109.5 659 L110 659 L110 659.5 L110.5 660 L111 660 L112.5 661 L113 660 L116.5 657 L125.5 652 L134 646.5 L143.5 639 L146.5 637 L155 628.5 L156.25 625 L156.375 618 L155.375 615 L153.5 611 L153 609.5 L146.5 603 L145 602.5 L141 600.625 L137.25 599.75 L137.25 598.125 L142 598.75 L145.5 600 L146.5 601 L147.5 600 L152.5 605 L153.75 605.25 L154.5 607 L157.5 612 L158 613.5 L158 614 L159 613.5 L158 601.5 L156 599.5 L156.25 598.25 L158.5 598 L161 600.5 L161.5 602 L166.5 612 L167.125 614 L167.25 627 L165.5 633 L160.5 645 L157 651.5 L158.5 656 L161.5 660 L163.375 664 L169.5 687 L171.25 725 L170 735.5 L171 736.5 L170.5 737 L169.125 737.25 L168.5 743 L166.5 752 L164.375 758 L164.25 759.875 L169.75 759.875 L171.5 753 L174.25 733 L173.375 683 L170.5 663 L168.5 655 L166.375 643 L165 638.5 L166.5 637 L167.5 638 L169.5 638 L172.5 641 L174 641.5 L176 642.375 L178.5 643 L180.5 645 L182 645.5 L186.5 648 L204 658.5 L226 667.5 L228.5 668 L230.5 670 L233.5 672 L238 675.5 L241 677.375 L243.5 678 L245.5 680 L248.5 681 L250 682.5 L250.25 683.75 L252.5 684 L254 685.5 L254 686.5 L254.5 687 L255.5 686 L256 686.5 L256 687.5 L258 689 L258 689.5 L258.5 690 L259 690 L259.5 691 L260.5 691 L265 695 L265 695.5 L265.5 696 L266 696 L266 697.5 L274 705.5 L274 706.5 L273.5 707 L258.5 692 L256 690.5 L249 685.5 L246.5 684 L246 684.5 L250 688.5 L256 696.5 L265.5 706 L280 718.5 L282.75 720.25 L290 729.5 L292.5 732 L293.5 732 L294 732.5 L293 733.5 L294 734.5 L308.5 759 L322.5 799 L324.875 829 L324.5 833 L323.5 837 L323.625 840 L323 842.5 L322 844.5 L323 845.5 L321 847.5 L322 848.5 L320 850.5 L321 851.5 L319 853.5 L320 854.5 L319.5 855 L318.5 855 L318 855.5 L319 856.5 L318.5 857 L317.25 857.25 L317 859.5 L316 860.5 L317 861.5 L315 863.5 L316 864.5 L314 866.5 L313 870.5 L311 872.5 L312 873.5 L311.5 874 L310.5 874 L310 874.5 L311 875.5 L310 876.5 L309.5 878 L307.5 882 L307 883.5 L303.5 887 L302.25 887.25 L301 890.5 L292.5 899 L283.5 906 L269.5 915 L263.5 921 L261.5 921 L259.5 923 L258.5 923 L256.5 925 L254 925.5 L212 935.375 L203.5 936 L202.5 937 L201.5 936 L186.5 935 L185.5 936 L184.5 935 L179 934.5 L162 930.5 L156 928.625 L129 922.25 L105 916.5 L96 913.375 L92 911.625 L89.5 911 L89 911 L89.5 912 L91 912.5 L110 921.5 L119 924.375 L128 926.5 L134 928.375 L140 929.625 L154 934.375 L188 939.25 L238.5 938 L240.5 936 L244 935.5 L253 932.375 L257 930.5 L281 916.5 L282.5 916 L292 906.5 L293.5 904 L311.5 884 L318.5 869 L321.5 864 L327.5 848 L333.625 814 L333.625 810 L331 795.5 L331 795 L332 795.5 L334.25 805 L333.5 829 L330.5 846 L329.375 850 L323.5 865 L317.625 876 L315.625 881 L315 883.5 L313 885.5 L312 887.5 L289 914.5 L286.5 917 L280 920.5 L274 924.5 L256 934.375 L239 940.25 L224 942.25 L176 941.375 L152 937.375 L145 935.375 L141 933.75 L131 931.5 L110 925.5 L105 923.5 L68.25 905.75 L68.25 902.25 L70 902.375 L93 908.625 L106 913.5 L114 915.5 L119 916 L118.5 915 L115 914.5 L110 912.5 L104 909.625 L101.5 909 L99.5 907 L98 906.625 L95 905.375 L93.5 905 L90 901.5 L90 898.5 L95.5 893 L97.75 893.25 L97 895 L96.5 894 L96 894.5 L96 895 L95 895.5 L95.5 896 L96 896 M88.5 911 L89 910 L87.5 910 L87 911 L88.5 911 M122.5 917 L123 916 L119.5 916 L119 917 L122.5 917 M126.5 918 L127 917 L124.5 917 L124 918 L126.5 918 "></path>
<path d="M-33 627 L-34 627 L-34 626 L-33 626 L-33 627 "></path>
<path d="M-34 624 L-35 624 L-35 623 L-34 623 L-34 624 "></path>
<path d="M-273 592 L-273.5 593 L-274 592 L-273 592 "></path>
<path d="M-297 606 L-297 605 L-296 605 L-296 605.5 L-296.5 606 L-297 606 "></path>
<path d="M-296 605 L-296 604 L-295 604 L-295 604.5 L-295.5 605 L-296 605 "></path>
<path d="M-295 604 L-295 603 L-294 603 L-294 603.5 L-294.5 604 L-295 604 "></path>
<path d="M-325 661 L-325 659.5 L-322 656.5 L-321.5 655 L-316.5 643 L-312.625 634 L-309.375 623 L-305.5 614 L-303 609.5 L-301 606.5 L-300 604.5 L-295.5 600 L-294 599.5 L-281 592.625 L-276 590.5 L-272 588.5 L-270 587.75 L-265.5 587 L-264.5 586 L-263 587.5 L-263.5 588 L-267 588.625 L-271.75 590.25 L-273 592 L-273.5 591 L-274 591.5 L-274 592 L-274.75 592.25 L-275 593.5 L-275.5 594 L-276.5 593 L-277.75 593.25 L-278 594.5 L-278.5 595 L-279.5 594 L-280 594.5 L-280 595.5 L-280.5 596 L-281.5 595 L-283 596.5 L-283 597.5 L-283.5 598 L-284.5 597 L-285 597.5 L-285 598.5 L-285.5 599 L-286.5 598 L-287 598.5 L-287 599.5 L-287.5 600 L-288.5 599 L-289 599.5 L-289 600.5 L-289.5 601 L-290.5 600 L-291.5 601 L-292.75 601.25 L-294 603 L-294.5 602 L-295 602.5 L-295 603 L-295.5 603 L-296 603.5 L-296 604 L-296.5 604 L-297 604.5 L-297 605 L-298 605.5 L-297.5 606 L-297 606 L-297.5 607 L-298.5 607 L-300 608.5 L-299 609.5 L-299.5 610 L-300.5 610 L-302 611.5 L-301 612.5 L-301.5 613 L-302.5 613 L-303 613.5 L-302 614.5 L-302.5 615 L-303.5 615 L-304 615.5 L-303 616.5 L-303.5 617 L-304.5 617 L-305 617.5 L-304 618.5 L-304.5 619 L-305.75 619.25 L-306 621.5 L-307 622.5 L-306 623.5 L-306.5 624 L-307.75 624.25 L-308 625.5 L-307 626.5 L-309 628.5 L-309 629.5 L-308 630.5 L-308.5 631 L-309.75 631.25 L-310 632.5 L-309 633.5 L-309.5 634 L-310.75 634.25 L-311 635.5 L-310 636.5 L-310.5 637 L-311.5 637 L-312 637.5 L-311 638.5 L-311.5 639 L-312.75 639.25 L-314 642.5 L-316 644.5 L-316.625 647 L-319.5 654 L-320.5 656 L-321 658 L-321.5 658 L-322 658.5 L-322 659 L-322.5 659 L-324.5 661 L-325 661 "></path>
<path d="M-38 624 L-38 622.5 L-39 622 L-39 623 L-38 624 M-37 626 L-37 624.5 L-38 624 L-38 625 L-37 626 M-36 628 L-36 627 L-37 627 L-37 628 L-36 628 M-24 589 L-24 586.5 L-25 586 L-25 588.5 L-24 589 M-22 604 L-23 592.5 L-24 592 L-23.25 602.5 L-22 604 M34 599 L34 598 L33 598 L33 599 L34 599 M32 602 L32 601 L31 601 L31 602 L32 602 M31 603 L31 602 L30 602 L30 603 L31 603 M-6.5 675 L-4 672.5 L7.5 639 L19.5 619 L29 605.5 L30 603.5 L29.5 603 L25 607.5 L18.5 616 L12 625.5 L6.5 636 L0.75 650.75 L-0.75 651.25 L-1.5 654 L-4.5 662 L-6.5 669 L-7 674.5 L-6.5 675 M3 664 L3 663.5 L4 661.5 L12.5 648 L17.375 637 L18.25 634.25 L19.5 634 L20.5 633 L21 633.5 L21 636.5 L22 637 L22 636.5 L22.5 635 L36.5 607 L40.5 597 L41 594.5 L40.5 594 L39 595.5 L38 597.5 L24.5 617 L11.5 638 L11 639.5 L9 641.5 L8.5 644 L2.5 661 L2 663.5 L3 664 M18 614 L18 613 L17 613 L17 614 L18 614 M17 615 L17 614 L16 614 L16 615 L17 615 M-21 618 L-21 615.5 L-22 615 L-22 617.5 L-21 618 M16 616 L16 615 L15 615 L15 616 L16 616 M15 618 L15 617 L14 617 L14 618 L15 618 M14 619 L14 618 L13 618 L13 619 L14 619 M13 620 L13 619 L12 619 L12 620 L13 620 M10.5 623 L12 621.5 L12 620.5 L11.5 620 L10 622 L10.5 623 M9.75 624.75 L10 623.5 L9.5 623 L8 624.5 L8.5 625 L9.75 624.75 M8.5 627 L9 626 L7.5 626 L7 627 L8.5 627 M7.5 629 L8 628.5 L6.5 627 L6 627.5 L6.25 628.75 L7.5 629 M6.5 631 L7 630.5 L5.5 629 L5 629.5 L5.25 630.75 L6.5 631 M42 594 L42 592.5 L41 592 L41 593 L42 594 M-23 630 L-23 624.5 L-23.5 624 L-24 624.5 L-24 630 L-25 629.75 L-25.375 599 L-26.5 592 L-27 581.25 L-25.5 581 L-23 583.5 L-16 640.5 L-15.5 641 L-14.5 640 L-13.25 640.25 L-9 656.5 L-9 657 L-8 656.5 L-7.5 654 L-3 642.5 L-4 641.5 L-3.5 641 L-2.5 641 L-2 640.5 L-3 639.5 L-2.5 639 L-1.5 639 L-1 638.5 L-2 637.5 L0 635.5 L0 634.5 L1 633.5 L0 632.5 L0.5 632 L1.5 632 L2 631.5 L1 630.5 L1.5 630 L2.5 630 L3 629.5 L2 628.5 L4 626.5 L4.5 625 L6 622.5 L9 618.5 L11 615.5 L28.5 598 L35.75 592.75 L36 591.5 L43 584.5 L43 582.5 L45.5 580 L46.75 580.25 L46.375 584 L46 585.5 L44 587.5 L46 589.5 L45 590.5 L44.375 595 L40.5 605 L25.5 636 L16 651.5 L3.5 668 L2 670.5 L0 672.5 L-0.125 707.75 L-2.5 708 L-4 706.5 L-9 699.5 L-9 699 L-10 699.5 L-9.5 702 L-9.25 704.75 L-11.75 704.75 L-12.5 701 L-15.375 692 L-16 686.5 L-18 684.5 L-18.375 683 L-21.5 675 L-25.375 668 L-27.5 663 L-38.5 637 L-47.5 616 L-51.375 609 L-54.625 600 L-61.5 588 L-64.5 581 L-72.5 563 L-72.75 559.25 L-70.25 559.25 L-66.625 565 L-64.5 570 L-53.375 596 L-40.5 620 L-40 621.5 L-40 622 L-39 621.5 L-39.625 619 L-50.5 591 L-51.5 587 L-53.5 582 L-57 575.5 L-57.75 573.25 L-55.5 573 L-54 574.5 L-55 575.5 L-54 576.5 L-53.5 578 L-49.5 587 L-48.75 590.75 L-47.5 591 L-47 591.5 L-48 592.5 L-47.625 594 L-45.75 598.75 L-44.5 599 L-44 599.5 L-45 600.5 L-44.5 602 L-38.75 615.75 L-37.5 616 L-37 616.5 L-38 617.5 L-37.5 619 L-24.75 654.75 L-23.5 655 L-23 655.5 L-24 656.5 L-22 658.5 L-21.375 661 L-20.5 663 L-20 664.5 L-20 665 L-19 664.5 L-18 660.5 L-18 660 L-19 660.5 L-19 662 L-20 661.5 L-20 656.5 L-19 655.5 L-19.5 655 L-20.875 654.75 L-23 639 L-22 630.5 L-23 630 M5.5 633 L6 632.5 L4.5 631 L4 631.5 L4.25 632.75 L5.5 633 M2 640 L2 639.5 L3 636.5 L5 634.5 L3.5 633 L3 633.5 L2.5 635 L1.625 637 L1 639.5 L2 640 M21 639 L21 637.5 L20 637 L20 638 L21 639 M-7 665 L-7 664.5 L-6.375 661 L-0.375 645 L0 643.5 L2 641.5 L0.5 640 L0 640.5 L-7.25 659 L-8 664.5 L-7 665 M20 641 L20 640 L19 640 L19 641 L20 641 M-11 665 L-11 664.5 L-10.375 662 L-10.25 660 L-13.5 645 L-14 641.5 L-15 641 L-14.375 652 L-12.25 663.5 L-11 665 M-21 644 L-21 643 L-22 643 L-22 644 L-21 644 M-10 670 L-10 668.5 L-11 668 L-11 669 L-10 670 M-13 671 L-13 670 L-14 670 L-14 671 L-13 671 M-9 674 L-9 670.5 L-10 670 L-10 673.5 L-9 674 M-16 673 L-16 671.5 L-17 671 L-17 672 L-16 673 M-15 676 L-15 675 L-16 675 L-16 676 L-15 676 M-13 682 L-13 681 L-14 681 L-14 682 L-13 682 M-7 682 L-7 681 L-8 681 L-8 682 L-7 682 M-12 683 L-12 682 L-13 682 L-13 683 L-12 683 M-4 686 L-4 684.5 L-5 684 L-5 685 L-4 686 M-9 688 L-9 686.5 L-10 686 L-10 687 L-9 688 M-12 690 L-12 689 L-13 689 L-13 690 L-12 690 M-10.5 695 L-9 693.5 L-9.5 693 L-10.5 693 L-11.5 692 L-12 693 L-10.5 695 M-9 697 L-9 695.5 L-10 695 L-10 696 L-9 697 M-8 698 L-8 697 L-9 697 L-9 698 L-8 698 M-4 699 L-4 697.5 L-5 697 L-5 698 L-4 699 M-10 699 L-10 698 L-11 698 L-11 699 L-10 699 M-6.5 701 L-6 700.5 L-6 699.5 L-7.5 698 L-8 699 L-6.5 701 M-2 701 L-2 700 L-3 700 L-3 701 L-2 701 M-4 703 L-4 702 L-5 702 L-5 703 L-4 703 M-3 704 L-3 703 L-4 703 L-4 704 L-3 704 "></path>
<path d="M-221 525 L-221 524.5 L-220.5 524 L-220 524 L-220 525 L-221 525 "></path>
<path d="M-247 562 L-248 562 L-248 561 L-247 561 L-247 562 "></path>
<path d="M-246 560 L-247 560 L-247 559 L-246 559 L-246 560 "></path>
<path d="M-245 558 L-246 558 L-246 557 L-245 557 L-245 558 "></path>
<path d="M-244 555 L-245 555 L-245 554 L-244 554 L-244 555 "></path>
<path d="M-243 553 L-244 553 L-244 552 L-243 552 L-243 553 "></path>
<path d="M-242 551 L-243 551 L-243 550 L-242 550 L-242 551 "></path>
<path d="M-241 550 L-242 550 L-242 549 L-241 549 L-241 550 "></path>
<path d="M-240 548 L-241 548 L-241 547 L-240 547 L-240 548 "></path>
<path d="M-238 545 L-239 545 L-239 544 L-238 544 L-238 545 "></path>
<path d="M-237 544 L-238 544 L-238 543 L-237 543 L-237 544 "></path>
<path d="M-235.5 545 L-236 544 L-233.5 541 L-233 541.5 L-233 542.5 L-235.5 545 "></path>
<path d="M-235 541 L-236 541 L-236 540 L-235 540 L-235 541 "></path>
<path d="M-234 540 L-235 540 L-235 539 L-234 539 L-234 540 "></path>
<path d="M-232.5 541 L-233 540 L-230.5 537 L-230 537.5 L-230 538.5 L-232.5 541 "></path>
<path d="M-229 537 L-230 537 L-230 536 L-229 536 L-229 537 "></path>
<path d="M-232 537 L-233 537 L-233 536 L-232 536 L-232 537 "></path>
<path d="M-231 536 L-232 536 L-232 535 L-231 535 L-231 536 "></path>
<path d="M-230 535 L-231 535 L-231 534 L-230 534 L-230 535 "></path>
<path d="M-229 534 L-229.5 534 L-230 533.5 L-229 533 L-229 534 "></path>
<path d="M-229 533 L-229 532.5 L-228.5 532 L-228 532 L-228 533 L-229 533 "></path>
<path d="M-228 533 L-227.5 533 L-227 532.5 L-227 532 L-226.5 532 L-226 531.5 L-226 531 L-225.5 531 L-225 530.5 L-225 530 L-224.5 530 L-224 529.5 L-224 529 L-223 529 L-223 530.5 L-228.5 536 L-229 535.5 L-229 534 L-228.5 534 L-228 533.5 L-228 533 "></path>
<path d="M-222 527 L-222.5 527 L-223 527.5 L-223 528 L-223.5 528 L-224 528.5 L-224 529 L-224.5 529 L-225 529.5 L-225 530 L-225.5 530 L-226 530.5 L-226 531 L-226.5 531 L-227 531.5 L-227 532 L-228 532 L-228 530.5 L-222.5 525 L-221 525 L-221 526 L-221.5 526 L-222 526.5 L-222 527 "></path>
<path d="M2.875 514.75 L1.5 515 L-1 512.5 L-2 510.5 L-11 499.5 L-23.5 487 L-24.5 487 L-34 477.5 L-34 476.5 L-35.5 475 L-36.5 475 L-48 463.5 L-50 460.5 L-63 444.5 L-71.5 436 L-72.5 436 L-76 432.5 L-76 431.5 L-74.5 430 L-72.25 430.25 L-71.75 431.75 L-69.5 433 L-66.5 435 L-35.5 459 L-33 460.5 L-31 461.375 L-28.5 462 L-26 464.5 L-26.25 466.75 L-28.5 466 L-31 464.625 L-34 463.375 L-36.5 462 L-52.5 450 L-55.5 448 L-56 448.5 L-52 452.5 L-50.5 455 L-47 459.5 L-45 462.5 L-37.5 470 L-36.5 470 L-28 478.5 L-27.75 479.75 L-26.5 480 L-8 498.5 L-8 499.5 L-2.5 505 L-2 504.5 L-3.5 498 L-8.625 483 L-16.5 462 L-25.5 431 L-29.5 421 L-36.5 408 L-37 406.5 L-39 404.5 L-39 402.5 L-37.5 401 L-36.25 401.25 L-32.5 407 L-17.625 440 L-12 457.5 L-10 459.5 L-8 463.5 L-2 469.5 L-2.125 473.75 L-4 473.5 L-5.5 473 L-7 471.5 L-7 470.5 L-9 468.5 L-9 466.5 L-11 464.5 L-11 463.5 L-12.5 462 L-13 462.5 L-12.625 464 L-6.5 480 L-2.5 490 L2.5 509 L2.875 514.75 M-57 447 L-57 446 L-58 446 L-58 447 L-57 447 M-56 448 L-56 447 L-57 447 L-57 448 L-56 448 M-13 461 L-13 460 L-14 460 L-14 461 L-13 461 M-1 506 L-1 505 L-2 505 L-2 506 L-1 506 "></path>
<path d="M-157 396 L-158 396 L-158 395 L-157 395 L-157 396 "></path>
<path d="M-156 393 L-157 392 L-157 391 L-156 391.5 L-156 393 "></path>
<path d="M-167.5 400 L-169 400 L-168.5 399 L-167 399 L-167.5 400 "></path>
<path d="M-162.5 399 L-164 399 L-163.5 398 L-162 398 L-162.5 399 "></path>
<path d="M-172.5 399 L-174 399 L-173.5 398 L-172 398 L-172.5 399 "></path>
<path d="M-159 398 L-160 398 L-160 397 L-159 397 L-159 398 "></path>
<path d="M-175 397 L-175.5 398 L-178 397 L-175 397 "></path>
<path d="M-158 397 L-159 397 L-159 396 L-158 396 L-158 397 "></path>
<path d="M-178 397 L-180.5 397 L-181 396.5 L-181 396 L-178 396 L-178 397 "></path>
<path d="M-181 396 L-181.5 396 L-182 395.5 L-182 395 L-181 395 L-181 396 "></path>
<path d="M-184 394 L-185.5 394 L-186 393.5 L-186 393 L-184 393 L-184 394 "></path>
<path d="M-186 393 L-186.5 393 L-187 392.5 L-187 392 L-186 392 L-186 393 "></path>
<path d="M-155.5 354 L-158 354 L-157.5 353 L-155 353 L-155.5 354 "></path>
<path d="M-144 353 L-145 353 L-145 352 L-144 352 L-144 353 "></path>
<path d="M-124.5 373 L-124 372 L-152.5 371 L-153 371.5 L-151.5 373 L-124.5 373 M-157.5 385 L-156.5 380 L-156.25 376 L-200.5 375 L-201 375.5 L-187.5 389 L-185.5 390 L-182.5 392 L-180 393.375 L-177 394.5 L-169 396.75 L-167 396.75 L-160.25 394.75 L-157.5 385 M-190 389 L-190 388 L-191 388 L-191 389 L-190 389 M-187 391 L-187 390 L-188 390 L-188 391 L-187 391 M-178 396 L-178 395.5 L-178.5 395 L-181 395 L-181.5 394 L-182 394.5 L-182 395 L-183.5 395 L-184 394.5 L-184 394 L-183 393.5 L-184 393 L-184 392.5 L-184.5 392 L-186 392 L-186.5 391 L-187 391.5 L-187 392 L-188.5 392 L-198.5 382 L-199.5 382 L-202 379.5 L-202 378.5 L-205 375.5 L-205 373.5 L-203.5 372 L-202.5 373 L-201.5 372 L-156.25 373 L-156.25 371 L-171.5 371 L-172.5 370 L-173.5 371 L-185.5 370 L-187 368.5 L-186.75 366.25 L-185.25 366.25 L-184.75 368 L-123 369.75 L-118 370.75 L-114.25 372.25 L-114.25 373.75 L-121 375.25 L-147 375.5 L-152 376.125 L-152 410.5 L-150.5 412 L-147.25 412.25 L-147.25 414.75 L-150.875 415.25 L-150.875 421.875 L-145 422.5 L-131 426.5 L-124 429.375 L-121.5 430 L-119.5 432 L-117.25 432.25 L-117 433.5 L-118.5 435 L-190 436.25 L-196.5 435 L-198.5 433 L-199.75 432.75 L-200 431.5 L-198.5 430 L-192.25 430.125 L-192 431.5 L-193 432.5 L-191.5 434 L-190.5 434 L-189.5 433 L-188.5 434 L-168 433.5 L-164 432.5 L-156 432.5 L-152.5 432 L-151 430.5 L-151.5 430 L-152.75 429.75 L-152.5 428 L-152 426.5 L-154.5 424 L-168 422.375 L-172 421.375 L-174 420.5 L-175.5 420 L-178 417.5 L-177.75 415 L-163 414.375 L-154.5 413 L-154 412.5 L-155 411.5 L-154.5 408 L-154.5 405 L-155.375 401 L-155.75 389 L-156 387.5 L-156 387 L-157 387.5 L-159.25 395.75 L-165 397.5 L-171 397.5 L-175 397 L-175 396.5 L-175.5 396 L-178 396 M-153.125 420.875 L-153.125 416.25 L-170.5 418 L-171 419 L-153.125 420.875 M-148.5 414 L-148 413 L-150.5 413 L-151 414 L-148.5 414 M-154.5 415 L-154 414 L-156.5 414 L-157 415 L-154.5 415 M-129 432.375 L-127.5 432 L-127 431 L-127.5 431 L-129 430.625 L-132 429.5 L-145 425.5 L-149.75 425.125 L-149.75 428.875 L-145 429.75 L-143.25 430.25 L-142.75 431.875 L-138 432.75 L-133 432.5 L-129 432.375 "></path>
<path d="M-160 353 L-161 353 L-161 352 L-160 352 L-160 353 "></path>
<path d="M-140.5 365 L-143 362.5 L-142.25 351.125 L-163 351 L-162.5 350 L-155 350.875 L-142.25 350 L-142 348.5 L-141 347.5 L-141.5 347 L-170 342.5 L-185 342 L-184.5 343 L-182 343.5 L-173 346.5 L-169.25 347.25 L-169 349.5 L-169.5 350 L-170.5 349 L-186 344.375 L-188 343.5 L-189.5 343 L-190.5 344 L-191 343.5 L-191 342.5 L-191.5 342 L-192.5 343 L-193.5 342 L-197.75 339.75 L-198 338.5 L-199.5 337 L-200.75 336.75 L-201 335.5 L-199.5 334 L-196 333.5 L-182 329.5 L-158 319.5 L-131.5 305 L-128 301.5 L-129.5 300 L-190 298.25 L-191.75 297.75 L-192 295.5 L-193.5 294 L-197.5 293 L-199 291.5 L-198.75 290.25 L-196 290.5 L-193.25 291.25 L-192.75 292.75 L-190.5 293 L-189.5 292 L-187.5 294 L-186.5 294 L-185.5 293 L-183.5 295 L-181.5 295 L-180.5 294 L-179.5 295 L-168.5 295 L-168 294.5 L-169 293.5 L-168.375 288 L-167.5 285 L-165.5 280 L-164.5 278 L-163.75 276.25 L-160.5 275 L-158 272.5 L-158 271.5 L-158.5 271 L-159.5 272 L-202 275 L-201.5 276 L-198.5 277 L-197 278.5 L-197 279.5 L-197.5 280 L-198.5 279 L-200 278.5 L-204 276.5 L-205.5 276 L-206.5 275 L-207.5 276 L-209 274.5 L-208.75 272.25 L-199 272.375 L-195 271.5 L-185 271.25 L-183 270.75 L-170 270.25 L-168 269.625 L-164.5 269 L-163.5 270 L-162.5 269 L-158.25 267.75 L-157.625 265 L-157 258.5 L-155.5 257 L-153.5 257 L-151.5 259 L-150.5 259 L-149 260.5 L-149 262.5 L-148 263.5 L-149.5 265 L-150.5 265 L-152 263.5 L-152.25 261.25 L-153.75 261.25 L-154.5 265 L-154.75 267.875 L-147.5 268 L-146.5 267 L-145.5 268 L-132 268.5 L-119.25 270.25 L-119 271.5 L-120.5 273 L-140 272.625 L-154.5 275 L-156 276.5 L-157.5 283 L-160.625 292 L-160.75 294 L-125 294.5 L-118 295.625 L-114 296.625 L-110 298.5 L-108.5 299 L-107 300.5 L-107.25 301.875 L-113 302.625 L-116 302.625 L-123 301.25 L-124.75 301.25 L-125.625 304 L-131.5 319 L-136.625 341 L-136.75 343.75 L-120 349.625 L-114 352.5 L-112.5 353 L-111 354.5 L-111.25 356.75 L-113.5 357 L-115.5 355 L-136 354 L-135.5 353 L-123 353 L-123.5 352 L-138.75 352 L-139.375 355 L-139.5 360 L-139 363.5 L-140.5 365 M-159 278 L-159 277 L-160 277 L-160 278 L-159 278 M-164.25 293.75 L-162.5 289 L-160.5 282 L-160 278.5 L-160.5 278 L-162 279.5 L-162 280.5 L-164 282.5 L-165.375 288 L-165.875 293.75 L-164.25 293.75 M-165 284 L-165 283 L-166 283 L-166 284 L-165 284 M-166 287 L-166 286 L-167 286 L-167 287 L-166 287 M-152.5 272 L-152 271 L-154.5 271 L-155 272 L-152.5 272 M-132.5 298 L-132 297 L-133.5 297 L-134 298 L-132.5 298 M-116.5 301 L-116 300 L-117.5 300 L-118 301 L-116.5 301 M-113.5 301 L-113 300 L-114.5 300 L-115 301 L-113.5 301 M-141.25 343.75 L-135.5 320 L-131.5 310 L-131 308.5 L-131.5 308 L-132.5 309 L-134.5 310 L-137.5 312 L-157 322.375 L-184 333.5 L-191 335.5 L-194.75 336.25 L-194.75 337.75 L-190 339.25 L-170 339.5 L-167 340.5 L-160 340.625 L-158 341.5 L-154 341.5 L-152.5 342 L-151.5 343 L-150.5 342 L-147.5 343 L-146.5 344 L-145.5 343 L-141.25 343.75 M-126.5 351 L-126 350 L-126.5 350 L-129 349.5 L-135 347.5 L-137.75 347.25 L-137.75 349.75 L-136 350.25 L-126.5 351 "></path>
<path d="M-113.25 263.75 L-116.5 264 L-118.5 262 L-120 261.5 L-158 241.625 L-183 233.375 L-185 232.5 L-186.5 232 L-190 228.5 L-189.75 226.25 L-186.5 226 L-185 224.5 L-185 223.5 L-183.5 222 L-182.25 222.25 L-181.75 223.875 L-177 223.5 L-144.5 217 L-142.5 215 L-141 215.375 L-138 215.375 L-116 207.625 L-111.5 207 L-110.5 206 L-109.5 207 L-108.5 207 L-108 207.5 L-110.5 210 L-113 210.625 L-115.5 212 L-130.5 223 L-132 224.5 L-134 227.5 L-137 231.5 L-138 233.5 L-140 235.5 L-140 241.5 L-141.5 243 L-142.5 243 L-144 241.5 L-144 220.25 L-147 220.375 L-172 225.5 L-177 226 L-176.5 227 L-174.5 228 L-171.5 230 L-169.25 231.25 L-168.75 232.75 L-166.25 233.25 L-166 234.5 L-165.5 235 L-164.5 234 L-164 234.5 L-163.75 235.75 L-161 236.625 L-145 243.5 L-130 250.5 L-118.5 257 L-113 262.5 L-113.25 263.75 M-175.5 232 L-175 231.5 L-176.5 230 L-179.75 228.75 L-180.25 227.25 L-182 227.375 L-184.5 228 L-185 229 L-184.5 229 L-183 229.5 L-179 231.375 L-175.5 232 M-173.5 233 L-173 232 L-174.5 232 L-175 233 L-173.5 233 M-123 214 L-123 213 L-124 213 L-124 214 L-123 214 M-140.5 231 L-139 229.5 L-135 223.5 L-130.5 219 L-124.5 215 L-124 214 L-124.5 214 L-127 214.5 L-135 217.5 L-141 219.25 L-141 230.5 L-140.5 231 M-141 233 L-141 231.5 L-142 231 L-142 232 L-141 233 "></path>
<path d="M-105.25 204 L-151 200.625 L-154.5 201 L-156.5 199 L-178.5 198 L-181 195.5 L-180 194.5 L-181.5 193 L-186 190.5 L-187.5 190 L-196 181.5 L-195.75 179.25 L-193 179.5 L-190 180.625 L-188.5 181 L-187 182.5 L-187 183.5 L-187.5 184 L-188.5 183 L-190.5 183 L-191 183.5 L-186.5 188 L-185.5 187 L-185 187.5 L-185 188.5 L-184.5 189 L-183.5 188 L-183 188.5 L-182.75 189.75 L-178.5 192 L-177.5 191 L-177 191.5 L-176.75 192.75 L-175.5 193 L-174.5 192 L-172.5 194 L-171.5 194 L-170.5 193 L-169.5 194 L-159.5 194 L-159 193.5 L-160 192.5 L-159.5 184 L-158.5 178 L-156.375 170 L-155.5 168 L-155 166.5 L-150.5 162 L-149 161.5 L-147 160.625 L-144.25 159.75 L-143.375 157 L-143.25 155.125 L-158 153.5 L-164 152.25 L-166 151.625 L-169.5 151 L-171.5 149 L-172.5 149 L-175 146.5 L-173.5 145 L-172 145.5 L-170 146.5 L-168.25 147.25 L-168 148.5 L-167.5 149 L-166.5 148 L-166 148.5 L-165.75 149.75 L-163 150.5 L-159.5 151 L-158.5 150 L-157.5 151 L-156 151.375 L-150 151.375 L-147 152.5 L-144.5 153 L-143 151.5 L-142 145.5 L-140.5 144 L-138.25 144.25 L-138.625 147 L-139.25 149 L-139.875 153.75 L-137 153.375 L-135 153.5 L-133 154.5 L-128 154.625 L-126.5 155 L-125.5 156 L-124.5 155 L-122.5 156 L-120 156.5 L-118.5 156 L-116.5 158 L-115.5 157 L-108.5 158 L-106 160.5 L-106.25 161.875 L-138 161.875 L-140.75 162.25 L-146.5 190 L-147.625 193 L-147.75 194.875 L-125 195.125 L-123.25 194.75 L-123 193.5 L-130 186.5 L-129.75 184.25 L-128.5 184 L-120 192.5 L-120 193.5 L-119 194.5 L-120 195.5 L-120.25 196.75 L-121.5 197 L-122 197 L-121.5 198 L-116 198.5 L-111 199.625 L-106.5 201 L-105 202.5 L-105.25 204 M-139 158.75 L-129.5 158 L-129 157 L-139.5 156 L-141 157.5 L-140.75 158.75 L-139 158.75 M-151.5 195 L-151 194.5 L-150.625 193 L-149.5 190 L-144.25 165 L-144.25 163.25 L-146 163.5 L-148 164.5 L-149.5 165 L-153 168.5 L-155.5 179 L-157 192.5 L-155.5 194 L-151.5 195 M-191 183 L-191 182 L-192 182 L-192 183 L-191 183 M-119 202 L-119 201 L-120 201 L-120 202 L-119 202 "></path>
<path d="M-161 132 L-162 132 L-162 131 L-161 131 L-161 132 "></path>
<path d="M-101.25 144.75 L-103 144.5 L-110 141.5 L-124 135.625 L-127.5 135 L-128.5 134 L-129 134.5 L-129 140.5 L-130.5 142 L-132 140.5 L-133 133.5 L-133 133 L-134 133.5 L-134 141.5 L-133 142.5 L-133.5 143 L-135 142.75 L-135 133.25 L-158 127.375 L-160.5 127 L-161 127.5 L-160 128.5 L-159 131.5 L-159.5 132 L-164 127.5 L-164 126.5 L-164.5 126 L-165.5 127 L-166 126.5 L-166.25 125.25 L-169 124.375 L-175 121.5 L-176.5 121 L-180 117.5 L-180 116.5 L-178.5 115 L-175 114.5 L-139 102.375 L-137 101.5 L-135.5 101 L-133 98.5 L-133 90.25 L-131.5 90 L-130 91.5 L-130 97.5 L-129.5 98 L-128.5 97 L-122 92.75 L-117.25 92.125 L-118 94.5 L-123.5 103 L-126.5 110 L-128.375 118 L-129 130.75 L-115 134.5 L-110 136.5 L-106 138.5 L-104.5 139 L-101 142.5 L-101.25 144.75 M-137.5 128 L-136 126.5 L-134.25 104.25 L-136 104.375 L-166 114.5 L-168.5 115 L-170 116.5 L-168.5 118 L-164.5 120 L-163.5 119 L-161.5 121 L-155.5 122 L-154.5 121 L-154 121.5 L-153.75 122.75 L-152.5 123 L-151.5 122 L-149.5 124 L-148.5 124 L-147.5 123 L-147 123.5 L-146.75 124.75 L-145.5 125 L-144.5 124 L-144 124.5 L-143.75 125.75 L-141.5 126 L-140.5 127 L-139.5 126 L-137.5 128 M-171.5 120 L-171 119.5 L-173.5 117 L-174 117.5 L-174 118.5 L-172.5 120 L-171.5 120 M-124 99 L-124 98 L-125 98 L-125 99 L-124 99 M-125 100 L-125 99 L-126 99 L-126 100 L-125 100 M-128 106 L-128 105.5 L-127.5 104 L-126.5 102 L-126.25 100.25 L-127.5 100 L-129 101.5 L-129 105.5 L-128 106 M-168 122 L-168 121 L-169 121 L-169 122 L-168 122 M-163.5 123 L-163 122 L-164.5 122 L-165 123 L-163.5 123 M-158.5 124 L-158 123 L-161.5 123 L-162 124 L-158.5 124 M-133 129 L-132 119.5 L-133 119 L-134 128.5 L-133 129 M-155.5 125 L-155 124 L-156.5 124 L-157 125 L-155.5 125 M-151 126 L-151 125 L-152 125 L-152 126 L-151 126 "></path>
<path d="M-145 502 L-145 501 L-146 501 L-146 502 L-145 502 M-161 511 L-161 510 L-162 510 L-162 511 L-161 511 M-186 515.375 L-173.5 514 L-173 513 L-190 513.75 L-199.5 515 L-200 516 L-186 515.375 M-208 518 L-208 517 L-209 517 L-209 518 L-208 518 M-210 519 L-210 518 L-211 518 L-211 519 L-210 519 M-212 520 L-212 519 L-213 519 L-213 520 L-212 520 M-214 521 L-214 520 L-215 520 L-215 521 L-214 521 M-215 522 L-215 521 L-216 521 L-216 522 L-215 522 M-216 523 L-216 522 L-217 522 L-217 523 L-216 523 M-149 505 L-149 504 L-150 504 L-150 505 L-149 505 M-150 506 L-150 505 L-151 505 L-151 506 L-150 506 M-152 507 L-152 506 L-153 506 L-153 507 L-152 507 M-154 508 L-154 507 L-155 507 L-155 508 L-154 508 M-103 720 L-103 719 L-104 719 L-104 720 L-103 720 M-104 725 L-104 724 L-105 724 L-105 725 L-104 725 M-105 729 L-105 727.5 L-106 727 L-106 728 L-105 729 M-106 733 L-106 731.5 L-107 731 L-107 732 L-106 733 M-107 736 L-107 734.5 L-108 734 L-108 735 L-107 736 M-110 741 L-110 738 L-109 738.5 L-109 740 L-108 739.5 L-108.5 737 L-108.5 734 L-93.625 659 L-93.5 588 L-95.5 574 L-96.5 570 L-101.5 558 L-108 546.5 L-116 536.5 L-120.5 532 L-123.5 530 L-127.5 527 L-134 523.625 L-149 517.5 L-162 514.5 L-167 514.625 L-185 518.375 L-207 518.75 L-209 519.5 L-211 520.5 L-216.5 524 L-221.5 529 L-223 529 L-223 528 L-222.5 528 L-222 527.5 L-222 527 L-221.5 527 L-221 526.5 L-221 526 L-220.5 526 L-220 525.5 L-220 525 L-219 524.5 L-220 524 L-220 523.5 L-216.5 520 L-212 517.5 L-210.5 517 L-210 516.5 L-211.5 515 L-214 514.5 L-219 512.5 L-239.5 502 L-242.5 500 L-250.5 494 L-257 487.5 L-266 476.5 L-277 460.5 L-285.375 444 L-295.5 419 L-304.5 396 L-311.25 346 L-309.375 260 L-302.5 215 L-297.5 194 L-293.5 181 L-291.5 176 L-267 129.5 L-261.5 121 L-254 111.5 L-244.5 102 L-212.5 78 L-187 64.625 L-184 63.5 L-144 56.75 L-116 56.75 L-111 57.5 L-104 59.5 L-99 61.5 L-72 73.5 L-55 79.625 L-50 82.5 L-43.5 87 L-40 90.5 L-28 105.5 L-16.5 125 L-6.5 157 L4.375 228 L1.5 299 L-1.5 317 L-4.5 330 L-15.625 361 L-17.25 364.75 L-18.75 364.75 L-19 362.5 L-18 361.5 L-19 360.5 L-18.5 360 L-17.5 360 L-17 359.5 L-18 358.5 L-17 357.5 L-16.375 355 L-6.5 326 L0.375 281 L-0.5 207 L-4.5 180 L-12.5 146 L-14.5 139 L-19.5 126 L-27 112.5 L-31 106.5 L-34 102.5 L-36 99.5 L-49.5 86 L-51 85.5 L-58 81.5 L-78 74.375 L-107 61.5 L-111 60.5 L-116 59.75 L-144 59.75 L-180 65.625 L-183 66.5 L-188 68.5 L-211.5 81 L-235 98.5 L-237.5 100 L-256 118.5 L-257.5 121 L-262 127.5 L-289.375 179 L-299.5 217 L-307.5 276 L-305.5 372 L-302.5 389 L-300.5 397 L-280.5 447 L-273 460.5 L-266 470.5 L-262.5 476 L-249.75 490.75 L-238 499.5 L-233 502.375 L-228 504.5 L-211 512.375 L-208 513.375 L-203 513.25 L-196 511.5 L-190 510.75 L-165 510.375 L-156 506.5 L-151 503.5 L-123.5 483 L-121.5 482 L-112 472.5 L-110.5 470 L-107.5 466 L-102.5 458 L-95.625 443 L-94.625 440 L-94 435.5 L-96 433.5 L-95.75 431.25 L-94.5 431 L-92 433.5 L-92 439.5 L-91 440.5 L-91.5 441 L-92.75 441.25 L-93 443.5 L-94 444.5 L-93 445.5 L-93.5 446 L-94.75 446.25 L-95.625 449 L-96.5 451 L-97 452.5 L-98 453.5 L-97 454.5 L-97.5 455 L-98.5 455 L-99 455.5 L-98 456.5 L-98.5 457 L-99.5 457 L-100 457.5 L-99 458.5 L-99.5 459 L-100.5 459 L-101 459.5 L-100 460.5 L-100.5 461 L-101.5 461 L-103 462.5 L-102 463.5 L-102.5 464 L-103.5 464 L-104 464.5 L-103 465.5 L-103.5 466 L-104.5 466 L-106 467.5 L-106.25 469.75 L-107.5 470 L-110 472.5 L-109 473.5 L-114.5 479 L-115.5 479 L-119 482.5 L-119 483.5 L-120.5 485 L-121.5 484 L-122 484.5 L-122 485.5 L-123.5 487 L-125.75 487.25 L-126 488.5 L-127.5 490 L-128.5 489 L-129 489.5 L-129 490.5 L-132.5 494 L-134.5 495 L-150 506.5 L-158 510.5 L-159.5 511 L-160 511 L-159.5 512 L-156 512.5 L-146 515.5 L-136 519.5 L-132 521.375 L-129.5 522 L-127.5 524 L-126 524.5 L-119.5 529 L-110 538.5 L-105.5 545 L-100.5 554 L-100 555.5 L-98 557.5 L-99 558.5 L-98 559.5 L-96 563.5 L-95 564.5 L-96 565.5 L-95 566.5 L-90.5 596 L-90.625 659 L-102.5 723 L-118 787.5 L-118 788 L-119 787.5 L-118.5 783 L-111.5 752 L-111.5 748 L-112 745.5 L-112 745 L-111 745.5 L-111 746.5 L-110.5 747 L-110 746.5 L-110 744 L-109 741.5 L-110 741 "></path>
<path d="M-196 963 L-197 963 L-197 962 L-196 962 L-196 963 "></path>
<path d="M-387.5 963 L-400 963 L-399.5 962 L-387 962 L-387.5 963 "></path>
<path d="M-404 963 L-405 963 L-405 962 L-404 962 L-404 963 "></path>
<path d="M-383.5 962 L-386 962 L-385.5 961 L-383 961 L-383.5 962 "></path>
<path d="M-407.5 962 L-412 962 L-411.5 961 L-407 961 L-407.5 962 "></path>
<path d="M-376.5 961 L-383 961 L-382.5 960 L-376 960 L-376.5 961 "></path>
<path d="M-268 975.25 L-297 974.375 L-318 971.5 L-322 970.5 L-327 968.625 L-329.5 968 L-331.5 966 L-350 961.25 L-351.5 961 L-352.5 962 L-353.5 961 L-376 960 L-375.5 959 L-345 960.75 L-334 963.5 L-329 965.5 L-327 966.5 L-325 967.25 L-317 969.25 L-312.5 970 L-311.5 971 L-310.5 970 L-273 973.5 L-261 971.375 L-258 970.5 L-253 968.5 L-249 966.625 L-246.5 966 L-244.5 964 L-242.5 963 L-239.5 961 L-232 955.5 L-230.5 955 L-228 952.5 L-227.75 951.25 L-223.5 950 L-223 950.5 L-224 951.5 L-224 952.5 L-225.5 954 L-241.5 966 L-252 971.375 L-263 974.5 L-268 975.25 "></path>
<path d="M-414.5 961 L-416 961 L-415.5 960 L-414 960 L-414.5 961 "></path>
<path d="M-417.5 960 L-419 960 L-418.5 959 L-417 959 L-417.5 960 "></path>
<path d="M-420 959 L-421 959 L-421 958 L-420 958 L-420 959 "></path>
<path d="M-421.5 958 L-423 958 L-422.5 957 L-421 957 L-421.5 958 "></path>
<path d="M-423 957 L-424 957 L-424 956 L-423 956 L-423 957 "></path>
<path d="M-425 956 L-426 956 L-426 955 L-425 955 L-425 956 "></path>
<path d="M-427 955 L-428 955 L-428 954 L-427 954 L-427 955 "></path>
<path d="M-429 954 L-430 954 L-430 953 L-429 953 L-429 954 "></path>
<path d="M-430 953 L-431 953 L-431 952 L-430 952 L-430 953 "></path>
<path d="M-431 952 L-432 952 L-432 951 L-431 951 L-431 952 "></path>
<path d="M27 872 L27 871.5 L26.5 871 L26 871 L25.5 870 L25 870.5 L25 871 L24.5 871 L22 868.5 L21.75 867.25 L19.5 867 L15 862.5 L15.25 860.25 L17.5 860 L20 862.5 L20 863.5 L20.5 864 L21.5 863 L34.5 876 L35 875.5 L35 872.5 L33 870.5 L33.25 868.25 L35.5 868 L39 871.5 L43.375 880 L45.375 885 L47.5 894 L48 898.5 L49 899.5 L48 900.5 L48.25 901.75 L49.5 902 L50 902.5 L49 903.5 L51 905.5 L50 906.5 L50 908.5 L52 910.5 L51 911.5 L51 918.5 L52 919.5 L51.5 920 L50.25 920.25 L50 921.5 L51 922.5 L50.5 923 L49.5 923 L49 923.5 L50 924.5 L49.5 925 L48.5 925 L47 926.5 L48 927.5 L46.5 929 L45.25 929.25 L44.375 932 L41.625 938 L41 940.5 L39 942.5 L36 947.5 L34.5 949 L29 952.5 L27 953.25 L22 953.25 L20 952.5 L17.5 951 L14.5 951 L11 953.5 L8 955.25 L3.5 956 L2 954.5 L2 952.5 L3.5 951 L5.5 953 L7 952.5 L12.5 949 L15 946.5 L14.625 945 L14.375 942 L16.625 934 L19.5 927 L28.5 911 L29 909.5 L30.5 908 L32.5 908 L33 908.5 L31 910.5 L20.625 930 L18.625 935 L17.5 939 L17 944.5 L17.5 945 L21 941.5 L21 940.5 L21.5 940 L22.5 941 L23 940.5 L25 937.5 L28 933.5 L29.5 931 L30.25 929.25 L31.75 928.75 L32 926.5 L34 924.5 L35.5 919 L36.375 914 L36.375 903 L35.375 897 L29.375 880 L28.5 878 L28 876 L29.5 876 L30 875.5 L29 874.5 L29 873.5 L27 872 M31 879 L31 878 L30 878 L30 879 L31 879 M36 877 L36 876 L35 876 L35 877 L36 877 M40 880 L40 879 L39 879 L39 880 L40 880 M41 882 L41 881 L40 881 L40 882 L41 882 M41.5 885 L42 884.5 L41.75 883.25 L40.5 883 L40 883.5 L41.5 885 M42 929.5 L43 922.5 L42.5 922 L41 923.5 L39 926.5 L28 939.5 L26 941.5 L26.5 942 L28 941.5 L31 940 L42 929.5 M26 950.375 L28 949.5 L29.5 949 L36 942.5 L38.5 938 L39 936.5 L38.5 936 L34 940.5 L34 941.5 L33.5 942 L32.5 941 L32 941.5 L32 942.5 L31.5 943 L30.5 942 L24.5 943 L20.5 947 L19.5 947 L19 947.5 L21.5 950 L26 950.375 M43 887 L43 886 L42 886 L42 887 L43 887 M36 890 L37 892.5 L38 893 L38 891.5 L39 890.5 L37 888.5 L38 887.5 L37 883.5 L35 881.5 L34.75 880.25 L33 880 L31.25 879.25 L31.25 881.75 L32 882 L32 883.5 L32.5 884 L33 884 L33 886.5 L33.5 887 L34 887 L34 889.5 L34.5 890 L35 890 L35 891.5 L35.5 892 L36 891.5 L36 890 M43 894 L43 892.5 L42 892 L42 893 L43 894 M37 896 L37 893.5 L36 893 L36 895.5 L37 896 M39.5 898 L40 897.5 L40 894.5 L38.5 893 L38 893.5 L38 896.5 L39.5 898 M45 907 L44 894.5 L43 894 L44 906.5 L45 907 M38 900 L38 897.5 L37 897 L37 899.5 L38 900 M41 905 L41 900.5 L39.5 899 L39 899.5 L39.625 903.5 L41 905 M39 912 L39 904.5 L38 904 L38 911.5 L39 912 M47 908 L47 905.5 L46 905 L46 907.5 L47 908 M40.5 917 L41 916.5 L40 915.5 L40.5 915 L41.5 915 L42 914.5 L41 913.5 L42 912.5 L42 910.5 L41 909.5 L42 908.5 L41 907.5 L41 906.5 L40 906 L39.25 916.75 L40.5 917 M46 912 L46 910.5 L45 910 L45 911 L46 912 M47 924 L47 923.5 L48.25 919 L49 910.25 L47.25 910.25 L46 923.5 L47 924 M38 918 L38 917 L37 917 L37 918 L38 918 M40 919 L40 918 L39 918 L39 919 L40 919 M43 919 L43 918 L42 918 L42 919 L43 919 M39 920 L39 919 L38 919 L38 920 L39 920 M42 921 L42 920 L41 920 L41 921 L42 921 M41 922 L41 921 L40 921 L40 922 L41 922 M40 924 L40 922.5 L39 922 L39 923 L40 924 M39 925 L39 924 L38 924 L38 925 L39 925 M46 925 L46 924 L45 924 L45 925 L46 925 M38 926 L38 925 L37 925 L37 926 L38 926 M37 928 L37 926.5 L36 926 L36 927 L37 928 M36 929 L36 928 L35 928 L35 929 L36 929 M40 936 L40 935 L39 935 L39 936 L40 936 "></path>
<path d="M-350 690 L-350 689 L-351 689 L-351 690 L-350 690 M-353 692 L-353 691 L-354 691 L-354 692 L-353 692 M-355 693 L-355 692 L-356 692 L-356 693 L-355 693 M-343 684 L-343 683 L-344 683 L-344 684 L-343 684 M-345 687 L-345 686 L-346 686 L-346 687 L-345 687 M-347 688 L-347 687 L-348 687 L-348 688 L-347 688 M-197 664.25 L-184 660.5 L-181.5 660 L-181 659 L-186 658.5 L-198 655.5 L-206 652.5 L-207.5 652 L-208.5 651 L-209.5 652 L-210 651.5 L-210 650.5 L-210.5 650 L-211.5 651 L-212 650.5 L-212 649.5 L-212.5 649 L-213.5 650 L-214 649.5 L-214 648.5 L-214.5 648 L-215.5 649 L-216 648.5 L-216 647.5 L-216.5 647 L-217.5 648 L-218 647.5 L-218.25 646.25 L-220.5 646 L-221.5 645 L-222.5 646 L-224.5 644 L-225.5 645 L-233.75 644.125 L-233.5 647 L-230.75 655.75 L-226 658.5 L-217 662.375 L-210 664.25 L-197 664.25 M-235.5 652 L-235 651.5 L-235.625 648 L-236 646.5 L-237 646 L-237 650.5 L-235.5 652 M-234 653 L-234 652 L-235 652 L-235 653 L-234 653 M-158 712.5 L-155.5 712 L-152.5 709 L-139 698.5 L-137 697.625 L-134.5 697 L-133 695.5 L-130.5 691 L-127.625 685 L-125.5 677 L-124.625 671 L-124.75 655 L-125.5 650 L-128 641.5 L-129.5 640 L-130.75 640.25 L-134 645.5 L-140.5 652 L-143 653.5 L-146.5 656 L-149 657.5 L-155 660.375 L-159 661.5 L-163.5 662 L-164.5 661 L-165.5 662 L-167 661.625 L-178 661.625 L-183 663.5 L-193 666.5 L-197 667.25 L-210 667.25 L-214 666.5 L-217 665.5 L-226 661.5 L-227.5 661 L-228.5 660 L-229 660.5 L-228.5 664 L-225.5 675 L-224.625 681 L-223 713.875 L-207 713.5 L-199 714.75 L-197 715.375 L-174.5 715 L-173.5 716 L-172.5 715 L-158 712.5 M-156 657.375 L-147.5 653 L-144 650.5 L-141.5 649 L-137 644.5 L-134 639.5 L-134.5 639 L-135.5 640 L-137 640.5 L-168 657.5 L-169.5 658 L-170 659 L-156 657.375 M-414 739 L-414 738 L-415 738 L-415 739 L-414 739 M-418.5 743 L-415 739.5 L-415.5 739 L-416.5 739 L-420 742.5 L-419.5 743 L-418.5 743 M-420 744 L-420 743 L-421 743 L-421 744 L-420 744 M-421 745 L-421 744 L-422 744 L-422 745 L-421 745 M-465 886 L-465 885.5 L-463.75 882 L-463.5 860 L-452.5 796 L-446.5 780 L-436 761.5 L-430 753.5 L-422 745.5 L-422.5 745 L-433.5 754 L-436.5 756 L-444 763.5 L-446 766.5 L-452.5 775 L-454.375 779 L-460.5 796 L-462.5 803 L-464.5 814 L-466 885.5 L-465 886 M-358 695 L-358 694 L-359 694 L-359 695 L-358 695 M-409.5 736 L-408 734.5 L-408.5 734 L-409.5 734 L-411 735.5 L-410.5 736 L-409.5 736 M-411 737 L-411 736 L-412 736 L-412 737 L-411 737 M-412.5 738 L-412 737 L-413.5 737 L-414 738 L-412.5 738 M-205 732.375 L-190 728.375 L-167 718.5 L-165.5 718 L-165 717 L-181 718.625 L-222.5 717 L-225 719.5 L-224 720.5 L-225 724.5 L-226 725.5 L-222.5 729 L-218 731.375 L-215 732.25 L-205 732.375 M-228.5 723 L-227 721.5 L-227.25 719.25 L-230.5 719 L-231 719.5 L-230 721 L-228.5 723 M-283 907.5 L-251 897.5 L-242 893.5 L-240.25 892.75 L-240.375 891 L-242.75 881 L-244 877.5 L-243 876.5 L-244 875.5 L-248.75 837 L-249.625 834 L-254.5 827 L-255.5 825 L-256 823.5 L-254.5 822 L-251 821.375 L-249 820.75 L-248.5 808 L-243 773.5 L-242 772.5 L-243 771.5 L-243.5 770 L-246.375 764 L-247.375 761 L-247.875 756.25 L-243 756.75 L-236.25 755.875 L-235.375 753 L-232.625 746 L-229.5 734 L-229 728.5 L-228 727.5 L-233 722.5 L-233.25 721.25 L-234.875 721.25 L-238 736.5 L-237 737.5 L-237.5 738 L-238.5 738 L-239 738.5 L-238 739.5 L-238.5 740 L-239.5 740 L-240 740.5 L-239 741.5 L-239.5 742 L-240.5 742 L-241 742.5 L-240 743.5 L-240.5 744 L-241.5 744 L-247 749.5 L-247 750.5 L-247.5 751 L-248.5 750 L-250 751.5 L-250.25 752.75 L-252.75 753.25 L-253 754.5 L-253.5 755 L-254.5 754 L-256 755.5 L-256 756.5 L-256.5 757 L-257.5 756 L-258 756.5 L-258.25 757.75 L-265 760.25 L-271 761.625 L-326 759.625 L-376 766.5 L-380 767.5 L-383 768.625 L-389.5 772 L-393 774.5 L-395.5 776 L-402 782.5 L-413 796.5 L-415 799.5 L-417.5 804 L-421.375 813 L-433.5 849 L-434 851.5 L-433.5 852 L-432.5 851 L-410 842.5 L-399 839.5 L-383 836.625 L-338.5 835 L-337.5 834 L-336.5 835 L-295 834.125 L-292 833.5 L-289 832.375 L-284.5 830 L-282.5 828 L-280.5 828 L-278.5 826 L-277.5 826 L-273 821.5 L-272.625 820 L-269.625 812 L-265.625 797 L-264.5 790 L-265 779.5 L-263.5 778 L-262.5 778 L-260 780.5 L-260.5 781 L-261.75 781.25 L-261.75 790 L-262.375 792 L-262.375 795 L-263 797.5 L-264 799.5 L-263 800.5 L-265 802.5 L-264 803.5 L-264 804.5 L-266 806.5 L-265 807.5 L-267 809.5 L-267 810.5 L-266 811.5 L-268 813.5 L-267 814.5 L-269 816.5 L-268 817.5 L-268.5 818 L-269.5 818 L-270 818.5 L-269 819.5 L-271 821.5 L-270 822.5 L-270.5 823 L-271.75 823.25 L-272 825.5 L-274.5 828 L-276 828.5 L-284.5 833 L-286.5 835 L-289 835.625 L-291 836.375 L-295 837.125 L-336.5 838 L-337.5 837 L-338.5 838 L-383 839.625 L-399 842.625 L-414 847.375 L-418 848.5 L-426 851.625 L-434.5 856 L-436 857.5 L-451.5 907 L-453 913.5 L-452.5 914 L-446.5 908 L-444 906.5 L-440 903.5 L-437 901.5 L-433 899.5 L-424 895.625 L-418 893.5 L-389 887.5 L-368 886.75 L-340 893.5 L-326 896.5 L-304 898.5 L-289 896.375 L-265 888.5 L-258 884.5 L-256.5 884 L-252 879.5 L-252.75 870 L-256.25 855 L-257.875 835.125 L-253.5 835 L-252 836.5 L-252.25 838.75 L-255.75 838.25 L-255.625 840 L-254.5 843 L-255 852.5 L-253 854.5 L-254 857.5 L-252 859.5 L-253 860.5 L-253 861.5 L-251 863.5 L-252 864.5 L-250 866.5 L-251 867.5 L-251 868.5 L-249 870.5 L-250 871.5 L-249 877.5 L-250 878.5 L-249 879.5 L-250 880.5 L-250.25 881.75 L-251.75 882.25 L-252.25 884.75 L-254 885.5 L-267 892.5 L-272 894.5 L-288 899.25 L-304 901.5 L-310 901.625 L-327 899.5 L-347 894.5 L-369 889.75 L-381 889.625 L-400 892.5 L-423 898.5 L-436 904.5 L-439 906.5 L-443 909.5 L-445.5 911 L-457 922.5 L-456 923.5 L-456 924.5 L-456.5 925 L-457.5 924 L-458 924.5 L-458.25 926.75 L-460.5 927 L-462 928.5 L-466.5 935 L-467 936.5 L-466.5 937 L-464.5 935 L-460 932.5 L-458.5 932 L-456.5 930 L-454.25 929.75 L-454 928.5 L-453.5 928 L-452.5 929 L-451.5 928 L-434 923.5 L-417 920.5 L-321 915.375 L-287 908.5 L-283 907.5 M-156 765.375 L-152 763.5 L-146.5 760 L-141 754.5 L-140.5 753 L-136 746.5 L-134.5 744 L-132.5 739 L-131.625 736 L-130.625 729 L-132.125 700.25 L-133.75 700.25 L-134 701.5 L-140.5 708 L-142.5 709 L-145.5 711 L-148 712.375 L-156 715.5 L-164 720.5 L-181 728.375 L-200 734.5 L-205 735.375 L-215 735.375 L-219 734.375 L-221.5 733 L-224.5 731 L-226.75 730.25 L-227 732.5 L-226 733.5 L-227 734.5 L-228 737.5 L-227 738.5 L-229 740.5 L-228 741.5 L-229 742.5 L-229 743.5 L-230 744.5 L-229 745.5 L-231 747.5 L-230 748.5 L-230.5 749 L-231.75 749.25 L-232 751.5 L-233 752.5 L-232 753.5 L-234 755.5 L-233.5 756 L-227 756.625 L-193 766.375 L-180 768.375 L-167 768.25 L-156 765.375 M-141 705 L-141 704 L-142 704 L-142 705 L-141 705 M-183 831.25 L-179 830.375 L-177 829.625 L-174.5 829 L-172.5 827 L-171.5 827 L-163 818.5 L-160 813.5 L-155.5 809 L-154 810.5 L-153.5 816 L-152.75 819.75 L-151.5 820 L-142 810.5 L-134.5 798 L-130.625 788 L-129.5 784 L-128.625 779 L-129.125 760.25 L-130.5 760 L-131 759.5 L-130 758.5 L-130.25 755.25 L-131.75 755.25 L-132.25 756.75 L-152.5 775 L-169.5 787 L-178 791.5 L-183 793.5 L-186 794.125 L-209 794.25 L-217 792.5 L-222 790.625 L-224.5 790 L-226.5 788 L-230.5 786 L-236 780.5 L-236 779.5 L-240.5 775 L-241 775.5 L-243 786.5 L-242 787.5 L-244 789.5 L-247 821.75 L-244.5 822 L-243.5 821 L-242.5 822 L-236.5 823 L-235.5 822 L-233.5 824 L-229 824.5 L-206 830.5 L-200 831.25 L-183 831.25 M-240.25 766.75 L-239.5 764 L-238.375 761 L-238.25 759.25 L-242 759.625 L-243.75 760.25 L-243.375 763 L-241.75 766.75 L-240.25 766.75 M-157.5 824 L-155.25 822.75 L-155.25 821 L-156.125 816.25 L-157.5 816 L-160 818.5 L-166 826.5 L-167.5 828 L-168.5 828 L-169 829 L-168.5 829 L-166 828.375 L-160 825.5 L-157.5 824 M-147 763 L-147.5 763 L-149 764.5 L-149 765.5 L-149.5 766 L-150.5 765 L-151.5 766 L-152.75 766.25 L-153 767.5 L-153.5 768 L-154.5 767 L-156.5 769 L-157.5 768 L-159.5 770 L-160.5 769 L-162.5 771 L-163.5 770 L-165 770.5 L-167 771.5 L-180 771.5 L-183.5 771 L-184.5 770 L-185.5 771 L-189.5 770 L-190.5 769 L-191.5 770 L-193 769.625 L-196 768.5 L-228 759.625 L-234.5 759 L-236 760.5 L-236.375 762 L-238.5 768 L-238.375 772 L-232 780.5 L-230.5 782 L-228 783.5 L-224.5 786 L-222 787.5 L-217 789.5 L-209 791.25 L-186 791.125 L-183 790.375 L-173 785.5 L-157.5 775 L-149.5 769 L-132.5 752 L-129.25 752.25 L-126.5 767 L-126.5 776 L-129.5 790 L-133.5 800 L-138 807.5 L-140.5 811 L-142 813.5 L-150.5 822 L-151.75 822.25 L-151 831.5 L-150 832.5 L-151 833.5 L-151.75 845 L-152.625 848 L-154.5 852 L-158 857.5 L-159 859.5 L-164 864.5 L-163.5 865 L-161.5 864 L-151.5 857 L-149.5 856 L-147.5 854 L-145.5 854 L-144 855.5 L-145 875.5 L-147 877.5 L-146 878.5 L-148 880.5 L-147 881.5 L-149 883.5 L-148 884.5 L-148.5 885 L-149.5 885 L-150 885.5 L-149 886.5 L-149.5 887 L-150.5 887 L-151 887.5 L-150 888.5 L-152 890.5 L-154.5 895 L-155 896.5 L-157 898.5 L-156 899.5 L-156.5 900 L-157.5 900 L-160 902.5 L-160 903.5 L-171.5 915 L-173.5 916 L-180 920.5 L-187 924.5 L-188.5 925 L-191.5 928 L-192.5 927 L-194.5 929 L-207.5 931 L-208 931 L-207.5 932 L-200 933.25 L-181 933.25 L-176 932.5 L-172 931.375 L-163 927.625 L-160.5 927 L-158.5 925 L-157 924.5 L-152 921.5 L-150.5 921 L-147 917.5 L-147 916.5 L-145 914.5 L-141.25 893 L-141.75 889.25 L-138.5 889 L-135 892.5 L-134.5 894 L-132.5 899 L-131.625 903 L-131.625 911 L-132.5 916 L-135.5 926 L-137.5 931 L-141 937.5 L-147.5 944 L-148.5 944 L-151.5 947 L-154 947.625 L-166 952.5 L-185 956.5 L-190 956.5 L-194 955.5 L-197 954.375 L-199.5 953 L-202.5 951 L-204.75 949.75 L-204.75 947.25 L-203 946.625 L-200.25 946.25 L-200.25 947.75 L-201.5 948 L-202 948.5 L-200.5 950 L-196.5 952 L-195.5 953 L-194.5 952 L-192.5 954 L-191.5 954 L-190.5 953 L-189.5 954 L-185.5 954 L-184.5 953 L-183.5 954 L-180.5 954 L-178.5 952 L-177 952.375 L-174 952.5 L-171.5 952 L-169.5 950 L-168.5 951 L-167.25 950.75 L-167 949.5 L-166.5 949 L-165.5 950 L-164.5 950 L-162.5 948 L-161.5 949 L-161 948.5 L-161 947.5 L-160.5 947 L-159.5 948 L-158.5 947 L-157 946.5 L-155 945.625 L-152.5 945 L-151 943.5 L-151 942.5 L-149.5 941 L-148.5 942 L-143 936.5 L-144 935.5 L-142.5 934 L-141.5 934 L-140 932.5 L-139.5 931 L-135.5 922 L-134.5 919 L-133.625 915 L-133.5 904 L-133 900.5 L-133 900 L-134 900.5 L-134 903 L-135 902.5 L-135.625 899 L-137.25 894.25 L-138.875 894.25 L-140.75 910 L-141.625 913 L-143.5 917 L-144 918.5 L-149.5 924 L-151 924.5 L-162 930.375 L-172 934.5 L-175 935.375 L-180 936.25 L-200 936.25 L-213 933.25 L-223.5 930 L-225 928.5 L-223.5 927 L-203 927.25 L-198 926.5 L-194 925.375 L-190 923.5 L-172.5 913 L-164 904.5 L-158 896.5 L-150.625 882 L-149.5 879 L-148.5 875 L-147.625 870 L-147 858.5 L-147.5 858 L-148.5 859 L-150.5 860 L-157.5 865 L-186 880.375 L-191 882.5 L-201 887.375 L-212 890.375 L-220 890.375 L-224 889.5 L-230.5 887 L-231.5 886 L-233 887.5 L-233 889.5 L-236 892.5 L-236 893.5 L-236.5 894 L-237.5 893 L-238 893.5 L-236.5 900 L-228.375 924 L-222.5 936 L-221 938.5 L-218.5 942 L-217 944.5 L-206.5 955 L-195 964.5 L-190.5 967 L-189.5 968 L-188.5 967 L-188 967.5 L-188 968.5 L-187.5 969 L-186.5 968 L-184.5 970 L-183.5 969 L-181.5 971 L-180.5 970 L-179.5 971 L-178.5 971 L-177.5 972 L-176.5 971 L-174.5 973 L-173.5 972 L-172.5 973 L-150 973.25 L-146 972.5 L-141 970.5 L-117.5 958 L-107 947.5 L-106 945.5 L-101 938.5 L-90.5 920 L-90 918.5 L-89 917.5 L-90 916.5 L-89.5 916 L-88.5 916 L-88 915.5 L-89 914.5 L-88.5 914 L-87.5 914 L-86.5 913 L-85 914.5 L-86 915.5 L-86.5 917 L-90.375 924 L-92.5 929 L-98.5 940 L-103 946.5 L-104 948.5 L-116.5 961 L-132 969.375 L-134.5 970 L-136.5 972 L-138 972.5 L-142 974.375 L-150 976.25 L-168 976.25 L-173 975.375 L-184 972.375 L-189 970.5 L-191.5 970 L-194.5 967 L-196.5 966 L-212.5 952 L-217 947.5 L-218 945.5 L-222.5 939 L-228.375 928 L-232.5 917 L-233.5 913 L-238.5 899 L-239.25 895.25 L-240.75 895.25 L-241 896.5 L-241.5 897 L-242.5 896 L-243 896.5 L-243 897.5 L-243.5 898 L-244.5 897 L-245 897.5 L-245.25 898.75 L-308 916.5 L-424 924.5 L-449 930.625 L-456 933.5 L-461.5 937 L-463.5 938 L-468 942.5 L-467.5 944 L-464.5 951 L-463.625 954 L-462.75 959 L-462.875 973 L-464.5 979 L-470.5 994 L-473.375 999 L-475.25 1003.75 L-476.5 1004 L-478 1002.5 L-477.75 1001.25 L-476.25 1000.75 L-475 997.5 L-474 996.5 L-475 995.5 L-474.5 995 L-473.5 995 L-472 993.5 L-470 985.5 L-469 984.5 L-470 983.5 L-469.5 983 L-468.25 982.75 L-467 979.5 L-468 978.5 L-467.5 978 L-466.25 977.75 L-466 974.5 L-465 973.5 L-466 972.5 L-464 970.5 L-464 967.5 L-465 966.5 L-464 965.5 L-464.125 960.25 L-465.5 960 L-466 959.5 L-465 958.5 L-465.25 955.25 L-466.5 955 L-467 954.5 L-466 953.5 L-466.25 952.25 L-467.5 952 L-468 951.5 L-467 950.5 L-467.25 949.25 L-468.5 949 L-469 948.5 L-468 947.5 L-468 946.5 L-469.5 945 L-470.75 945.25 L-473.375 950 L-474 952.5 L-475.5 954 L-476.5 954 L-477 953.5 L-476 952.5 L-475.5 949 L-473.625 944 L-473 941.5 L-472 940.5 L-472.5 940 L-473.5 940 L-474 939.5 L-473 938.5 L-474.5 937 L-475.75 937.25 L-476 939.5 L-477.5 941 L-478 940.5 L-478.5 937 L-480 931.5 L-483.5 928 L-490 924.625 L-496 922.5 L-500 921.75 L-513 921.75 L-516 922.625 L-524.5 926 L-528 929.5 L-531.5 935 L-535.5 945 L-536.25 949 L-536.25 970 L-535.5 975 L-532.5 987 L-530.5 992 L-527.5 998 L-527 999.5 L-520.5 1006 L-515 1009.5 L-511 1011.38 L-508 1012.25 L-497 1013.75 L-494 1013.5 L-490 1012.38 L-483 1009.5 L-476.5 1006 L-472.5 1003 L-469.5 1001 L-465.5 997 L-463.5 997 L-463 997.5 L-468.5 1003 L-476 1008.5 L-480 1010.5 L-481.5 1011 L-483.5 1013 L-488.5 1014 L-490.5 1016 L-497 1016.75 L-512 1014.38 L-516 1012.5 L-521.5 1009 L-530 1000.5 L-530.5 999 L-534.5 990 L-536.375 984 L-539.25 970 L-539.125 948 L-537.375 941 L-535.375 936 L-534 933.5 L-532 930.5 L-531 928.5 L-526.5 924 L-525 923.5 L-517 919.625 L-513 918.75 L-499 918.75 L-492 920.625 L-487 922.625 L-482.5 925 L-480.5 927 L-480 926.5 L-479 917.5 L-480 916.5 L-478 914.5 L-479 913.5 L-479 912.5 L-477 910.5 L-478 909.5 L-477 908.5 L-476.625 907 L-473.5 899 L-467.625 888 L-467.375 885 L-469.5 837 L-468.75 834 L-465.5 807 L-463.5 798 L-456.375 778 L-454.5 774 L-452.5 771 L-442 757.5 L-437.5 753 L-434.5 751 L-394.5 718 L-388 713.5 L-384 711.5 L-357.5 692 L-349.5 687 L-347.5 686 L-345 683.5 L-345 682.5 L-340 678 L-339.5 679 L-339 678 L-338.5 678 L-338 677.5 L-338 677 L-337 677 L-337 678.5 L-339.5 681 L-340 681 L-340.5 680 L-341 680.5 L-341 681 L-341.5 681 L-342 681.5 L-342 682 L-343 682.5 L-342.5 683 L-342 683 L-342 684.5 L-346.5 689 L-348 689.5 L-360 697.5 L-376.5 710 L-385 715.5 L-387 716.5 L-390 718.5 L-405.5 731 L-408 733.5 L-407.5 734 L-405.5 733 L-391 723.5 L-389 722.5 L-375 713.5 L-361.5 702 L-355 698.625 L-343 695.5 L-320 691.625 L-306 691.625 L-298 692.625 L-294 692.625 L-287 691.25 L-280 688.5 L-277.5 688 L-275.5 686 L-274 685.5 L-269.5 683 L-262 675.5 L-259.625 671 L-249.625 640 L-249 635.5 L-247.5 634 L-247 634.5 L-247 638.5 L-246 639.5 L-246.5 640 L-247.75 640.25 L-248 641.5 L-247 642.5 L-247.5 643 L-248.75 643.25 L-249 644.5 L-248 645.5 L-248.5 646 L-249.75 646.25 L-250 647.5 L-249 648.5 L-249.5 649 L-250.75 649.25 L-251 650.5 L-250 651.5 L-252 653.5 L-253 657.5 L-252 658.5 L-252.5 659 L-253.75 659.25 L-254 660.5 L-253 661.5 L-255 663.5 L-256 667.5 L-255 668.5 L-255.5 669 L-256.75 669.25 L-257 671.5 L-258 672.5 L-257 673.5 L-257.5 674 L-258.5 674 L-260 675.5 L-259 676.5 L-259.5 677 L-260.5 677 L-263 680 L-263.5 680 L-264 680.5 L-264 681 L-264.5 681 L-265 681.5 L-265 682 L-265.5 682 L-267 683.5 L-267 684.5 L-268.5 686 L-269.5 685 L-271 686.5 L-271.25 687.75 L-273 688.5 L-284 693.375 L-287 694.375 L-294 695.625 L-298 695.625 L-306 694.625 L-320 694.625 L-343 698.5 L-355 701.625 L-357.5 703 L-373.5 716 L-388 725.5 L-392.5 728 L-410.5 740 L-421.5 749 L-425 752.5 L-433 762.5 L-438.5 771 L-442.5 778 L-448.5 793 L-459.5 850 L-461 875.75 L-459.5 876 L-458 874.5 L-452 866.5 L-447.5 862 L-441.5 858 L-438 854.5 L-436.5 848 L-423.375 810 L-419.5 801 L-413.5 792 L-406 782.5 L-396.5 773 L-394 771.5 L-390.5 769 L-384 765.625 L-377 763.625 L-326 756.625 L-271 758.625 L-263 756.375 L-259 754.5 L-248.5 748 L-243 742.5 L-242.5 741 L-239.5 734 L-235.5 711 L-236 696.25 L-234.5 696 L-233 697.5 L-234 698.5 L-233.25 705 L-232.5 707 L-232.5 709 L-233.25 711 L-233.875 716.75 L-232 716.75 L-227.5 716 L-226 714.5 L-227.5 682 L-229.625 669 L-231.5 662 L-232.625 659 L-233 657.5 L-235.5 655 L-236.5 655 L-240 651.5 L-240 645.5 L-238 643.5 L-238.5 642 L-245.5 627 L-252.375 600 L-254 587.5 L-253 586.5 L-254 585.5 L-253 584.5 L-252.5 579 L-250.375 571 L-248.625 567 L-248 563.5 L-245 560.5 L-244.375 558 L-241.5 552 L-239 547.5 L-236.5 545 L-236 545.5 L-237 547.5 L-240.5 553 L-248.5 573 L-250.25 581 L-250.25 599 L-245.5 619 L-241.375 631 L-237.5 639 L-237 640.5 L-235.5 642 L-234.5 641 L-226 641.625 L-222 642.625 L-215 645.5 L-204 651.375 L-201 652.5 L-181 657.5 L-176 657.375 L-173 656.375 L-159 649.5 L-157.5 649 L-155.5 647 L-153.5 647 L-151.5 645 L-140 638.5 L-135 636.5 L-131.25 635.75 L-126.5 624 L-122.75 604 L-122 586.5 L-124.5 584 L-130 584.75 L-132 585.5 L-134 586.5 L-137 588.5 L-155 602.5 L-175 613.375 L-178 614.625 L-179.5 615 L-180.5 616 L-181.5 615 L-182.5 616 L-183.5 616 L-185.5 618 L-186.5 617 L-187.5 618 L-188.5 618 L-190.5 620 L-191.5 619 L-192.5 620 L-194 620.375 L-197 621.5 L-200 622.375 L-207 623.375 L-226 623.125 L-228 622.5 L-232.5 620 L-238.75 615.75 L-240.375 612 L-240.375 609 L-239.75 607.25 L-235.5 605 L-233.5 603 L-227 601.625 L-169 595.5 L-165 594.375 L-163 593.625 L-160.5 593 L-158.5 591 L-157.5 591 L-154 587.5 L-151.75 583 L-150.5 578 L-150.5 572 L-151.625 565 L-152.5 562 L-153.625 559 L-156 554.5 L-162.5 548 L-164 547.5 L-171 544.5 L-175 543.75 L-194 543.75 L-207 546.5 L-212 548.5 L-218.5 552 L-222 554.5 L-224.5 556 L-226 557.5 L-228.25 561.75 L-229.75 561.75 L-230 559.5 L-228 557.5 L-228 556.5 L-221.5 550 L-213 545.625 L-208 543.625 L-200 541.5 L-184 539.125 L-174 540.625 L-170 541.625 L-161.5 545 L-153 553.5 L-152.5 555 L-149.625 561 L-148.625 565 L-147.5 572 L-147.5 579 L-148.75 584 L-151 588.5 L-155.5 593 L-162 596.375 L-165 597.5 L-173 599.375 L-226 604.625 L-231 605.75 L-234.5 607 L-238 610.5 L-238 611.5 L-234.5 615 L-229 618.5 L-227 619.5 L-225 620.125 L-207 620.25 L-201 619.375 L-191 616.5 L-176 610.5 L-156.5 600 L-137.5 585 L-133 582.5 L-131 581.75 L-123.5 581 L-120 584.5 L-119.75 604 L-122.5 620 L-124.625 628 L-126.375 632 L-127 634.5 L-129 636.5 L-128.5 637 L-127.5 637 L-126 638.5 L-125.5 640 L-124.5 642 L-123.75 644 L-122.5 649 L-121.75 655 L-121.75 672 L-122.5 678 L-124.5 685 L-126.5 690 L-127.5 692 L-128 693.5 L-130 695.5 L-127 728.5 L-129 730.5 L-129 734.5 L-128 735.5 L-128.5 736 L-129.75 736.25 L-130.5 739 L-132.5 744 L-134.5 748 L-142.5 759 L-146 763 L-146.5 762 L-147 762.5 L-147 763 M-434 853 L-434 852 L-435 852 L-435 853 L-434 853 M-455 909 L-455 908.5 L-441.5 866 L-441 862.5 L-440 861.5 L-440.5 861 L-441.5 861 L-455 874.5 L-456.5 877 L-459 880.5 L-459.75 883 L-456 908.5 L-455 909 M-249.5 829 L-249 828.5 L-249 824.5 L-249.5 824 L-250.5 825 L-251.5 825 L-252 825.5 L-251 827 L-249.5 829 M-216 842.375 L-210 841.5 L-191 835.5 L-188.5 835 L-188 834 L-202 833.25 L-243 824.375 L-247 824.25 L-247 832.5 L-244.5 835 L-239 838.5 L-233 841.375 L-230 842.25 L-216 842.375 M-214 879 L-194 879.25 L-191 878.5 L-186 876.5 L-171.5 868 L-160 856.5 L-156.5 850 L-154.5 845 L-153.625 841 L-154.125 825.25 L-156 825.5 L-163 829.375 L-166 830.5 L-178 833.625 L-193 839.5 L-210 844.5 L-216 845.375 L-230 845.25 L-233 844.5 L-238 842.5 L-243.5 839 L-245.875 838.25 L-242 875.5 L-240.5 877 L-239.5 876 L-238.5 876 L-238 875.5 L-240 873.5 L-239.75 872.25 L-237.5 872 L-236 873.5 L-236 874.5 L-235.5 875 L-234.5 874 L-233.5 875 L-218.25 877.125 L-218 878 L-224 877.375 L-228 876.5 L-232.5 876 L-233 877 L-229.5 877 L-229 878 L-232.5 878 L-233 878.5 L-232 879.5 L-231 882.5 L-229.5 884 L-223 886.5 L-219 887.375 L-212 887.375 L-205 885.5 L-198 882.625 L-195.5 882 L-195 881 L-195.5 881 L-200 881.75 L-202 881.75 L-208 880.5 L-213.5 880 L-214 879 M-238 878 L-238 877 L-239 877 L-239 878 L-238 878 M-235.25 879.75 L-235.25 878.25 L-236.75 878.25 L-236.75 879.75 L-235.25 879.75 M-234 881 L-234 880 L-235 880 L-235 881 L-234 881 M-240 882 L-240 881 L-241 881 L-241 882 L-240 882 M-237.5 891 L-235 888.5 L-234.375 886 L-234.25 884.25 L-236 883.5 L-238 882.5 L-239.875 882.25 L-239.5 887 L-238.75 890.75 L-237.5 891 M-164 866 L-164 865 L-165 865 L-165 866 L-164 866 M-459 918 L-457 916.5 L-456.5 914 L-456.5 911 L-460.5 893 L-461 888.5 L-462.5 887 L-465 889.5 L-463 907 L-464.25 905 L-466 892.5 L-467 892 L-467 892.5 L-467.5 894 L-470.5 900 L-475.5 913 L-478 929.5 L-474 933.5 L-474 934.5 L-471.5 937 L-470 935.5 L-469.75 934.25 L-468.25 933.75 L-468 931.5 L-465 928.5 L-461 922.5 L-459 920.5 L-459 918 M-453 915 L-453 914 L-454 914 L-454 915 L-453 915 M-476 936 L-476 934.5 L-477 934 L-477 935 L-476 936 M-467 938 L-467 937 L-468 937 L-468 938 L-467 938 M-132 908 L-132 905.5 L-133 905 L-133 907.5 L-132 908 "></path>
</g>
</g>
</svg>