<svg xmlns="http://www.w3.org/2000/svg" viewBox="-1896 -451 590 603">
<title>Lion Mix — Villano (Notebook 8, estudio B)</title>
<g transform="rotate(90)" fill="#3A3A3E" fill-rule="evenodd" opacity="0.92">
<g id="estudio-b-figura">
<path d="M-52.5 1838 L-54 1836 L-53.5 1835 L-52 1836.5 L-52 1837.5 L-52.5 1838 "></path>
<path d="M-54.5 1835 L-56 1833 L-55.5 1832 L-54 1833.5 L-54 1834.5 L-54.5 1835 "></path>
<path d="M-56.5 1832 L-58 1830 L-57.5 1829 L-56 1830.5 L-56 1831.5 L-56.5 1832 "></path>
<path d="M-58 1829 L-59 1828 L-59 1827 L-58 1827.5 L-58 1829 "></path>
<path d="M-59.5 1827 L-61 1825 L-60.5 1824 L-59 1825.5 L-59 1826.5 L-59.5 1827 "></path>
<path d="M-110 1825 L-110 1823.5 L-109.5 1823 L-109 1823 L-109 1824.5 L-109.5 1825 L-110 1825 "></path>
<path d="M-61.5 1824 L-63 1822 L-62.5 1821 L-61 1822.5 L-61 1823.5 L-61.5 1824 "></path>
<path d="M-40.5 1865 L-41.5 1865 L-44 1862.5 L-44.5 1861 L-53 1846.5 L-69 1826.5 L-73.5 1822 L-79 1818.5 L-81 1817.63 L-84 1816.63 L-89 1816.38 L-101.5 1818 L-102 1818 L-101.5 1817 L-91 1815.5 L-82 1815.75 L-79 1816.63 L-74.5 1819 L-62 1831.5 L-53 1843.5 L-42.5 1861 L-42 1862.5 L-40 1864.5 L-40.5 1865 "></path>
<path d="M-120 1847 L-120.5 1848 L-121 1847 L-120 1847 "></path>
<path d="M-121 1847 L-121.5 1847 L-122 1846.5 L-122 1846 L-121.5 1846 L-121 1846.5 L-121 1847 "></path>
<path d="M-122 1846 L-122.5 1846 L-123 1845.5 L-123 1845 L-122.5 1845 L-122 1845.5 L-122 1846 "></path>
<path d="M-120 1847 L-119.375 1844 L-118 1842 L-118.625 1845 L-120 1847 "></path>
<path d="M-118 1842 L-118 1840.5 L-117.5 1840 L-117 1840 L-117 1841.5 L-117.5 1842 L-118 1842 "></path>
<path d="M-123 1845 L-123.5 1845 L-125.5 1843 L-128.5 1843 L-129.5 1842 L-130.5 1843 L-134.5 1843 L-135 1842.5 L-133.5 1841 L-127 1840 L-125.5 1841 L-121.5 1841 L-120 1842.5 L-120.5 1843 L-122.75 1843.25 L-123 1845 "></path>
<path d="M-117 1840 L-117 1838.5 L-116.5 1838 L-116 1838 L-116 1839.5 L-116.5 1840 L-117 1840 "></path>
<path d="M-127 1840 L-127.5 1840 L-131 1836.5 L-131 1836 L-129.5 1836 L-127 1838.5 L-127 1840 "></path>
<path d="M-112 1829 L-112 1827.5 L-111.5 1827 L-111 1827 L-111 1828.5 L-111.5 1829 L-112 1829 "></path>
<path d="M-111 1827 L-111 1825.5 L-110.5 1825 L-110 1825 L-110 1826.5 L-110.5 1827 L-111 1827 "></path>
<path d="M-145.5 1822 L-147 1822 L-146.5 1821 L-145 1821 L-145.5 1822 "></path>
<path d="M-142 1821 L-143 1821 L-143 1820 L-142 1820 L-142 1821 "></path>
<path d="M-140 1820 L-141 1820 L-141 1819 L-140 1819 L-140 1820 "></path>
<path d="M-138 1819 L-138.5 1819 L-139 1818.5 L-138 1818 L-138 1819 "></path>
<path d="M-136 1817 L-136 1816.5 L-135.5 1816 L-135 1816 L-135 1817 L-136 1817 "></path>
<path d="M-158 1821 L-160 1820.5 L-164.5 1818 L-171 1811 L-169.5 1811 L-163.5 1817 L-159.5 1819 L-158 1821 "></path>
<path d="M-208 1870 L-209 1870 L-209 1869 L-208 1869 L-208 1870 "></path>
<path d="M-174.25 1829.75 L-175.75 1829.75 L-177.375 1826 L-178.5 1822 L-178.5 1819 L-177.75 1816.25 L-175.5 1816 L-175 1816.5 L-177 1818.5 L-176.25 1824 L-175.5 1826 L-174.5 1828 L-174.25 1829.75 "></path>
<path d="M-195.5 1872 L-208 1871 L-207.5 1870 L-196.5 1870 L-195 1868.5 L-194.625 1867 L-193.5 1864 L-193 1860.5 L-194 1859.5 L-192 1857.5 L-192 1854.5 L-193 1853.5 L-192 1852.5 L-191.375 1850 L-191.25 1848 L-191 1817.5 L-189.5 1816 L-188.5 1816 L-185.5 1813 L-183.5 1813 L-181.5 1815 L-180.5 1815 L-179 1816.5 L-179.5 1817 L-181 1816.63 L-184.5 1816 L-188 1819.5 L-189.625 1853 L-191.625 1864 L-193 1869.5 L-195.5 1872 "></path>
<path d="M-172 1781 L-172 1779.5 L-171.5 1779 L-171 1779 L-171 1780.5 L-171.5 1781 L-172 1781 "></path>
<path d="M-148.5 1779 L-151 1779 L-150.5 1778 L-148 1778 L-148.5 1779 "></path>
<path d="M-167 1778 L-168 1778 L-168 1777 L-167 1777 L-167 1778 "></path>
<path d="M-171 1779 L-171 1777.5 L-170.5 1777 L-170 1777 L-170 1778.5 L-170.5 1779 L-171 1779 "></path>
<path d="M-166 1775 L-166.5 1776 L-167 1775 L-166 1775 "></path>
<path d="M-166 1775 L-166 1774.5 L-165.5 1774 L-165 1774 L-165 1774.5 L-165.5 1775 L-166 1775 "></path>
<path d="M-139.5 1774 L-141 1774 L-140.5 1773 L-139 1773 L-139.5 1774 "></path>
<path d="M-170 1777 L-170 1775.5 L-167.5 1773 L-167 1773 L-167 1775 L-167.5 1775 L-169.5 1777 L-170 1777 "></path>
<path d="M-167 1773 L-167 1771.5 L-165.5 1770 L-165 1770 L-165 1771.5 L-166.5 1773 L-167 1773 "></path>
<path d="M-163 1771 L-163 1769 L-162 1769 L-162 1771 L-163 1771 "></path>
<path d="M-113 1746 L-114 1746 L-114 1745 L-113 1745 L-113 1746 "></path>
<path d="M-215.5 1836 L-216 1835.5 L-214.5 1823 L-213.25 1818 L-212.5 1816 L-210 1811.5 L-204.5 1806 L-202.5 1805 L-197 1801.5 L-195 1800.63 L-192 1799.75 L-184 1799.75 L-182.5 1800 L-181 1801.5 L-181.25 1803.75 L-182.75 1803.75 L-183 1802.5 L-184.5 1801 L-185.5 1801 L-186.5 1800 L-187.5 1801 L-193 1801.75 L-195 1802.5 L-201.5 1806 L-210 1814.5 L-210.5 1816 L-211.375 1818 L-212.375 1822 L-214 1834.5 L-215.5 1836 "></path>
<path d="M-171 1811 L-171.5 1811 L-176 1806.5 L-176.25 1805 L-176.375 1796 L-173.375 1783 L-172 1781 L-175.375 1797 L-175.25 1804 L-175 1805.5 L-171 1809.5 L-171 1811 "></path>
<path d="M-235.5 1784 L-238 1784 L-237.5 1783 L-235 1783 L-235.5 1784 "></path>
<path d="M-232 1783 L-233.5 1783 L-234 1782.5 L-233.5 1782 L-232 1782 L-232 1783 "></path>
<path d="M-227 1779 L-227 1778.5 L-226.5 1778 L-226 1778 L-226 1779 L-227 1779 "></path>
<path d="M-226 1778 L-226 1777.5 L-225.5 1777 L-225 1777 L-225 1778 L-226 1778 "></path>
<path d="M-225 1777 L-225 1776.5 L-224.5 1776 L-224 1776 L-224 1777 L-225 1777 "></path>
<path d="M-224 1776 L-224 1775.5 L-223.5 1775 L-223 1776 L-224 1776 "></path>
<path d="M-237 1768 L-238 1768 L-238 1767 L-237 1767 L-237 1768 "></path>
<path d="M-229 1764 L-230 1764 L-230 1763 L-229 1763 L-229 1764 "></path>
<path d="M-231 1763 L-232 1763 L-232 1762 L-231 1762 L-231 1763 "></path>
<path d="M-236 1762 L-234.5 1762 L-232.5 1764 L-230 1764 L-230.5 1765 L-233.5 1765 L-236 1763 L-236 1762 "></path>
<path d="M-237 1762 L-237 1761 L-236.5 1761 L-236 1761.5 L-236 1762 L-237 1762 "></path>
<path d="M-228 1763 L-229 1762.5 L-229 1760.5 L-227.5 1759 L-227 1759.5 L-228 1762.5 L-228 1763 "></path>
<path d="M-235 1760 L-236 1760 L-236 1759 L-235 1759 L-235 1760 "></path>
<path d="M-236 1759 L-237 1759 L-237 1758 L-236 1758 L-236 1759 "></path>
<path d="M-294 1808.38 L-297 1809 L-296.5 1808 L-295 1807.5 L-293 1806.5 L-291.5 1806 L-291 1806.5 L-292.5 1808 L-294 1808.38 "></path>
<path d="M-285 1801 L-286 1801 L-286 1800 L-285 1800 L-285 1801 "></path>
<path d="M-262 1800 L-263 1800 L-263 1799 L-262 1799 L-262 1800 "></path>
<path d="M-284 1800 L-285 1800 L-285 1799 L-284 1799 L-284 1800 "></path>
<path d="M-282.5 1799 L-284 1799 L-283.5 1798 L-282 1798 L-282.5 1799 "></path>
<path d="M-279.5 1798 L-282 1798 L-281.5 1797 L-279 1797 L-279.5 1798 "></path>
<path d="M-284 1797 L-285 1797 L-285 1796 L-284 1796 L-284 1797 "></path>
<path d="M-266 1796 L-267 1796 L-267 1795 L-266 1795 L-266 1796 "></path>
<path d="M-282 1796 L-283 1796 L-283 1795 L-282 1795 L-282 1796 "></path>
<path d="M-291 1794 L-292 1794 L-292 1793 L-291 1793 L-291 1794 "></path>
<path d="M-270 1792 L-271 1792 L-271 1791 L-270 1791 L-270 1792 "></path>
<path d="M-267 1791 L-268 1791 L-268 1790 L-267 1790 L-267 1791 "></path>
<path d="M-294 1790 L-295 1790 L-295 1789 L-294 1789 L-294 1790 "></path>
<path d="M-262 1789 L-263 1789 L-263 1788 L-262 1788 L-262 1789 "></path>
<path d="M-253.5 1788 L-258 1788 L-257.5 1787 L-253 1787 L-253.5 1788 "></path>
<path d="M-246.5 1787 L-249 1787 L-248.5 1786 L-246 1786 L-246.5 1787 "></path>
<path d="M-242.5 1786 L-245 1786 L-244.5 1785 L-242 1785 L-242.5 1786 "></path>
<path d="M-239.5 1785 L-241 1785 L-240.5 1784 L-239 1784 L-239.5 1785 "></path>
<path d="M-240 1763 L-241 1763 L-241 1762 L-240 1762 L-240 1763 "></path>
<path d="M-241 1761 L-242 1761 L-242 1760 L-241 1760 L-241 1761 "></path>
<path d="M-238 1756 L-239 1756 L-239 1755 L-238 1755 L-238 1756 "></path>
<path d="M-239 1754 L-240 1754 L-240 1753 L-239 1753 L-239 1754 "></path>
<path d="M-244 1749 L-245 1749 L-245 1748 L-244 1748 L-244 1749 "></path>
<path d="M-326 1790 L-327 1790 L-327 1789 L-326 1789 L-326 1790 "></path>
<path d="M-335 1778 L-334 1778.5 L-335 1779 L-335 1778 "></path>
<path d="M-287.5 1808 L-288 1807.5 L-288 1805.5 L-288.5 1805 L-289.5 1806 L-290.5 1806 L-291 1805.5 L-289 1803.5 L-289.5 1802 L-301.5 1784 L-304 1779.5 L-306 1776.5 L-307 1774.5 L-315 1766.5 L-314.75 1764.25 L-312.5 1764 L-311 1765.5 L-312 1766.5 L-306.5 1772 L-305.5 1772 L-304 1773.5 L-305 1774.5 L-303.5 1776 L-302.5 1776 L-302 1776.5 L-303 1777.5 L-301 1779.5 L-300.75 1780.75 L-299.5 1781 L-299 1781.5 L-300 1782.5 L-299.5 1783 L-298.5 1783 L-298 1783.5 L-299 1784.5 L-297 1786.5 L-296.5 1788 L-294.5 1791 L-289 1798.5 L-287.75 1800.75 L-286.5 1801 L-286 1801.5 L-287 1802.5 L-286 1806.5 L-287.5 1808 "></path>
<path d="M-335 1779 L-332.5 1783 L-319.5 1799 L-315.5 1806 L-314.75 1807.75 L-313.5 1808 L-312.5 1809 L-312 1808.5 L-312.5 1806 L-314.5 1801 L-317 1796.5 L-322 1789.5 L-332.5 1771 L-333 1769.5 L-335 1767.5 L-335 1765.5 L-333.5 1764 L-332.25 1764.25 L-331.75 1767.75 L-330.5 1768 L-330 1768.5 L-331 1769.5 L-330.5 1770 L-329.5 1770 L-329 1770.5 L-330 1771.5 L-329.5 1772 L-328.25 1772.25 L-326.75 1776.75 L-325.5 1777 L-325 1777.5 L-326 1778.5 L-325.5 1779 L-324.25 1779.25 L-322.75 1783.75 L-321.5 1784 L-321 1784.5 L-322 1785.5 L-321.5 1786 L-320.25 1786.25 L-319.75 1788.75 L-318.25 1789.25 L-317.75 1791.75 L-316.25 1792.25 L-315.75 1794.75 L-314.5 1795 L-313 1796.5 L-314 1797.5 L-313.5 1798 L-312.5 1798 L-312 1798.5 L-313 1799.5 L-312.5 1800 L-311.5 1800 L-311 1800.5 L-312 1801.5 L-311 1802.5 L-310.75 1804.75 L-309.5 1805 L-309 1805.5 L-310 1806.5 L-309.75 1807.75 L-308.5 1808 L-308 1808.5 L-309 1809.5 L-308.5 1810 L-297 1809 L-297.5 1810 L-305 1811.63 L-308 1811.5 L-312 1810.38 L-314 1809.5 L-315.5 1809 L-317 1807.5 L-320.5 1801 L-334 1784.5 L-344 1770.5 L-345.5 1768 L-346.375 1766 L-347 1763.5 L-349 1761.5 L-349 1759.5 L-352 1756.5 L-350.5 1755 L-348 1757.5 L-348 1759.5 L-346 1761.5 L-345.75 1762.75 L-344.5 1763 L-344 1763.5 L-345 1764.5 L-344 1767.5 L-342.5 1769 L-341.5 1769 L-341 1769.5 L-342 1770.5 L-340 1772.5 L-340 1773.5 L-336.5 1777 L-335 1778 L-336 1778.5 L-335.5 1779 L-335 1779 "></path>
<path d="M82 1688 L83 1688.5 L82 1690 L82 1688 "></path>
<path d="M84 1687 L83 1687 L83 1686 L84 1686 L84 1687 "></path>
<path d="M85 1683 L85 1684.5 L84.5 1685 L84 1684.5 L84 1683 L85 1683 "></path>
<path d="M85 1681 L86 1681.5 L85 1683 L85 1681 "></path>
<path d="M87 1680 L86 1680 L86 1679 L87 1679 L87 1680 "></path>
<path d="M78 1698 L79 1698.5 L78 1700 L78 1698 "></path>
<path d="M80 1697 L79 1696 L79 1695 L80 1695.5 L80 1697 "></path>
<path d="M81 1692 L81 1693.5 L80.5 1694 L80 1693.5 L80 1692 L81 1692 "></path>
<path d="M81 1692 L81 1690 L82 1690 L82 1691.5 L81.5 1692 L81 1692 "></path>
<path d="M-153 1698 L-153 1697 L-152 1697 L-152 1698 L-153 1698 "></path>
<path d="M-152 1697 L-152 1696 L-151 1696 L-151 1697 L-152 1697 "></path>
<path d="M88 1678 L87 1677 L87 1676 L88 1676.5 L88 1678 "></path>
<path d="M89 1675 L88 1674 L88 1673 L89 1673.5 L89 1675 "></path>
<path d="M90 1671 L89 1670 L89 1669 L90 1669.5 L90 1671 "></path>
<path d="M91 1666 L90 1666 L90 1665 L91 1665 L91 1666 "></path>
<path d="M92 1662 L91 1662 L91 1661 L92 1661 L92 1662 "></path>
<path d="M93 1658 L92 1658 L92 1657 L93 1657 L93 1658 "></path>
<path d="M94 1654 L93 1654 L93 1653 L94 1653 L94 1654 "></path>
<path d="M93 1650 L92 1649.5 L92 1647 L93 1647.5 L93 1650 "></path>
<path d="M97 1644 L96 1644 L96 1643 L97 1643 L97 1644 "></path>
<path d="M94 1647 L93 1646.5 L94 1640.5 L94 1640 L95 1640.5 L94 1646.5 L94 1647 "></path>
<path d="M96 1640 L95 1639.5 L95 1637 L96 1637.5 L96 1640 "></path>
<path d="M99 1637 L98 1636 L98 1635 L99 1635.5 L99 1637 "></path>
<path d="M100 1626 L99 1625 L99 1624 L100 1624.5 L100 1626 "></path>
<path d="M101 1619 L100 1618 L100 1617 L101 1617.5 L101 1619 "></path>
<path d="M-211 1645.63 L-217.5 1645 L-218 1644.5 L-216.5 1643 L-210.25 1642.88 L-209.75 1641.25 L-203 1639.63 L-193 1639.75 L-191.25 1640.25 L-191.25 1642.75 L-193 1643.25 L-211 1645.63 M-194.5 1642 L-194 1641 L-198.5 1641 L-199 1642 L-194.5 1642 "></path>
<path d="M102 1609 L101 1608.5 L101 1606 L102 1606.5 L102 1609 "></path>
<path d="M-155.5 1621 L-197.5 1619 L-199 1617.5 L-198.5 1617 L-182.5 1618 L-181.5 1617 L-180.5 1618 L-164.5 1617 L-162.5 1619 L-157.5 1619 L-157 1618.5 L-158 1617.5 L-159.75 1595 L-159.5 1591 L-157.375 1582 L-156.5 1580 L-156 1578.5 L-154.5 1577 L-144 1574.38 L-141 1574.38 L-136 1575.75 L-131.5 1578 L-128.5 1581 L-125.5 1581 L-122 1584.5 L-121.375 1587 L-119.625 1591 L-118.625 1594 L-118 1600.5 L-117 1601.5 L-118 1602.5 L-118.75 1609 L-119.5 1611 L-120.5 1613 L-121 1614.5 L-125.5 1619 L-127.75 1618.75 L-128 1616.5 L-126 1614.5 L-126 1613.5 L-123 1610.5 L-122.75 1598 L-123.625 1595 L-125.625 1590 L-129 1584.5 L-130.5 1583 L-131.5 1583 L-133 1584.5 L-134 1587.5 L-136.5 1590 L-138.75 1589.75 L-138.75 1587.25 L-137.5 1587 L-136 1585.5 L-135 1581.5 L-134 1580.5 L-136.5 1578 L-141 1577.25 L-143 1577.25 L-149 1578.63 L-153.75 1580.25 L-156.5 1591 L-156.75 1595 L-154 1619.5 L-155.5 1621 "></path>
<path d="M-202 1583 L-203 1583 L-203 1582 L-202 1582 L-202 1583 "></path>
<path d="M-182.5 1565 L-184 1565 L-183.5 1564 L-182 1564 L-182.5 1565 "></path>
<path d="M-220.5 1554 L-222 1554 L-221.5 1553 L-220 1553 L-220.5 1554 "></path>
<path d="M-222 1553 L-223 1552 L-223 1551 L-222 1551.5 L-222 1553 "></path>
<path d="M-410 1655.63 L-420 1654.25 L-423.5 1653 L-425 1651.5 L-425 1647.5 L-424 1646.5 L-426 1644.5 L-427.25 1639 L-427.25 1627 L-426.375 1624 L-425.5 1622 L-425 1620.5 L-419.5 1615 L-417.5 1615 L-415.5 1613 L-402.5 1610 L-402 1610.5 L-403 1611.5 L-403 1613.5 L-402 1614.5 L-402.5 1615 L-403.5 1615 L-405.5 1613 L-406.5 1614 L-407.5 1614 L-408.5 1615 L-409.5 1614 L-410.5 1615 L-414.75 1615.13 L-415.25 1616.75 L-419.5 1618 L-422 1620.5 L-422.25 1622.75 L-423.5 1623 L-424 1623.5 L-423 1624.5 L-424 1625.5 L-424 1626.5 L-426 1628.5 L-425 1629.5 L-425 1635.5 L-426 1636.5 L-425 1637.5 L-424 1640.5 L-425 1641.5 L-424 1642.5 L-423.75 1643.75 L-420 1644.38 L-406 1644.75 L-404 1644.5 L-402 1643.75 L-396.5 1643 L-396 1643 L-396.5 1644 L-398 1644 L-397.5 1645 L-395 1645 L-395.5 1646 L-420.5 1648 L-421.5 1647 L-422 1647.5 L-422 1648.5 L-423 1649.5 L-419.5 1653 L-418.5 1652 L-417.5 1653 L-416.5 1653 L-415.5 1652 L-414.5 1653 L-412.5 1653 L-411.5 1652 L-411 1652.5 L-411 1653.5 L-410.5 1654 L-409.5 1653 L-407 1652.5 L-404 1651.5 L-401.5 1651 L-400.5 1650 L-400 1650.5 L-400 1651.5 L-401.5 1653 L-404 1653.5 L-410 1655.63 M-404 1612 L-404 1611 L-405 1611 L-405 1612 L-404 1612 "></path>
<path d="M97 1637 L96 1636.5 L96.5 1626 L100.5 1587 L102.5 1578 L107 1561.5 L110 1558.5 L118 1548.5 L119 1546.5 L120.5 1545 L122.5 1544 L125 1543.5 L126.5 1544 L127 1544.5 L125.5 1546 L122.25 1546.25 L122 1547.5 L119 1550.5 L120 1551.5 L119.5 1552 L118.25 1552.25 L117.75 1553.75 L116.5 1554 L112 1558.5 L113 1559.5 L112.5 1560 L111.5 1560 L109 1562.5 L108 1566.5 L109 1567.5 L108.5 1568 L107.25 1568.25 L106 1573.5 L107 1574.5 L105 1576.5 L105 1577.5 L106 1578.5 L105.5 1579 L104.25 1579.25 L104 1581.5 L105 1582.5 L104.5 1583 L103.25 1583.25 L103 1585.5 L104 1586.5 L102 1588.5 L102.5 1591 L102.75 1593.75 L101 1594.25 L97 1637 "></path>
<path d="M11 1505 L11 1504 L12.5 1504 L13 1504.5 L13 1505 L11 1505 "></path>
<path d="M9 1504 L9 1503 L10.5 1503 L11 1503.5 L11 1504 L9 1504 "></path>
<path d="M7 1503 L7 1502 L8.5 1502 L9 1502.5 L9 1503 L7 1503 "></path>
<path d="M13 1505 L14.5 1505 L16.5 1507 L18 1507.5 L35 1516.38 L40 1518.5 L61 1527.5 L72 1530.63 L74 1531.38 L95 1535.38 L119 1537.63 L123.5 1537 L124.5 1536 L125.5 1537 L126.5 1536 L128 1537.5 L128 1539.5 L127.5 1540 L126.5 1539 L125.5 1540 L95 1538.38 L73.5 1535 L71.5 1533 L68 1532.5 L60 1530.38 L43 1523.5 L31.5 1518 L4 1503.5 L2.5 1503 L2 1502.5 L2.5 1502 L5 1502 L5 1502.5 L5.5 1503 L7 1503 L7 1503.5 L7.5 1504 L9 1504 L9 1504.5 L9.5 1505 L11 1505 L12.5 1506 L13 1505 M14 1507 L14 1506 L13 1506 L13 1507 L14 1507 M16 1508 L16 1507 L15 1507 L15 1508 L16 1508 M18 1509 L18 1508 L17 1508 L17 1509 L18 1509 M20 1510 L20 1509 L19 1509 L19 1510 L20 1510 M22 1511 L22 1510 L21 1510 L21 1511 L22 1511 M24 1512 L24 1511 L23 1511 L23 1512 L24 1512 M25 1513 L25 1512 L24 1512 L24 1513 L25 1513 M27 1514 L27 1513 L26 1513 L26 1514 L27 1514 M29 1515 L29 1514 L28 1514 L28 1515 L29 1515 M31 1516 L31 1515 L30 1515 L30 1516 L31 1516 "></path>
<path d="M5 1502 L5.25 1501.25 L7 1502 L5 1502 "></path>
<path d="M4 1501 L3 1501 L3 1500 L4 1500 L4 1501 "></path>
<path d="M2 1500 L1 1500 L1 1499 L2 1499 L2 1500 "></path>
<path d="M1 1499 L0 1499 L0 1498 L1 1498 L1 1499 "></path>
<path d="M-1 1498 L-2 1498 L-2 1497 L-1 1497 L-1 1498 "></path>
<path d="M-2 1497 L-3 1497 L-3 1496 L-2 1496 L-2 1497 "></path>
<path d="M-4 1496 L-5 1496 L-5 1495 L-4 1495 L-4 1496 "></path>
<path d="M-6 1495 L-7 1495 L-7 1494 L-6 1494 L-6 1495 "></path>
<path d="M-9 1493 L-10 1493 L-10 1492 L-9 1492 L-9 1493 "></path>
<path d="M-12 1491 L-13 1491 L-13 1490 L-12 1490 L-12 1491 "></path>
<path d="M-15 1489 L-16 1489 L-16 1488 L-15 1488 L-15 1489 "></path>
<path d="M1.5 1502 L0 1501.5 L-20 1489.5 L-21.5 1489 L-22 1489 L-21.5 1488 L-19 1488.63 L-17 1489.5 L-6 1496.5 L0.5 1500 L2 1501.5 L1.5 1502 "></path>
<path d="M-17 1488 L-18 1488 L-18 1487 L-17 1487 L-17 1488 "></path>
<path d="M-22.5 1488 L-24 1488 L-23.5 1487 L-22 1487 L-22.5 1488 "></path>
<path d="M-94 1544 L-95 1543.5 L-95 1541 L-94 1541.5 L-94 1544 "></path>
<path d="M-96 1538 L-95 1538.5 L-96 1540 L-96 1538 "></path>
<path d="M-97 1538 L-97 1535 L-96.5 1535 L-96 1535.5 L-96 1538 L-97 1538 "></path>
<path d="M-98 1535 L-98 1533.5 L-97.5 1533 L-97 1533.5 L-97 1535 L-98 1535 "></path>
<path d="M-98 1532 L-99 1531 L-99 1530 L-98 1530.5 L-98 1532 "></path>
<path d="M-92 1566 L-92 1559.5 L-93 1559 L-93 1565.5 L-92 1566 M-91 1575 L-91 1574 L-92 1574 L-92 1575 L-91 1575 M77 1703 L77 1701.5 L76 1701 L76 1702 L77 1703 M76 1706 L76 1704.5 L75 1704 L75 1705 L76 1706 M75 1707 L75 1706 L74 1706 L74 1707 L75 1707 M74 1709 L74 1708 L73 1708 L73 1709 L74 1709 M73 1711 L73 1710 L72 1710 L72 1711 L73 1711 M70 1716 L70 1715 L69 1715 L69 1716 L70 1716 M-156 1764 L-156 1763 L-157 1763 L-157 1764 L-156 1764 M-158 1765 L-158 1764 L-159 1764 L-159 1765 L-158 1765 M-133 1766 L-133 1765 L-134 1765 L-134 1766 L-133 1766 M-131 1767 L-131 1766 L-132 1766 L-132 1767 L-131 1767 M-130 1768 L-130 1767 L-131 1767 L-131 1768 L-130 1768 M-129 1769 L-129 1768 L-130 1768 L-130 1769 L-129 1769 M-126 1772 L-126 1771 L-127 1771 L-127 1772 L-126 1772 M-125 1773 L-125 1772 L-126 1772 L-126 1773 L-125 1773 M-124 1774 L-124 1773 L-125 1773 L-125 1774 L-124 1774 M-123 1775 L-123 1774 L-124 1774 L-124 1775 L-123 1775 M-122 1777 L-122 1776 L-123 1776 L-123 1777 L-122 1777 M-121 1778 L-121 1777 L-122 1777 L-122 1778 L-121 1778 M-120 1780 L-120 1779 L-121 1779 L-121 1780 L-120 1780 M-117 1789 L-117 1787.5 L-118 1787 L-118 1788 L-117 1789 M-109 1823 L-109 1821.5 L-108 1820.5 L-108.5 1820 L-117 1819.63 L-118.5 1820 L-120 1821.5 L-120 1822.5 L-121 1823.5 L-120 1824.5 L-119 1830.5 L-117.5 1832 L-114.5 1832 L-113 1830.5 L-112.75 1829.25 L-112 1829 L-111.75 1831.75 L-90.5 1830 L-90 1829 L-90.5 1829 L-92 1828.5 L-97 1825.5 L-103 1822.63 L-105.5 1822 L-106.5 1821 L-109 1823 M-135.5 1834 L-135 1833.5 L-136.5 1832 L-137 1832.5 L-136.75 1833.75 L-135.5 1834 M-137 1835 L-137 1834 L-138 1834 L-138 1835 L-137 1835 M-131 1836 L-132 1835.63 L-135 1835.63 L-136.5 1836 L-138 1837.5 L-138 1839 L-139 1838.5 L-139 1834.5 L-138 1833.5 L-138.5 1833 L-140 1833 L-139.5 1832 L-138.5 1832 L-133 1826.5 L-125 1812.5 L-125.5 1812 L-126.5 1813 L-128.5 1814 L-136.5 1820 L-139 1821.5 L-144 1823.5 L-148 1824.5 L-152 1824.5 L-155 1823.38 L-156.5 1823 L-158 1821 L-156 1821.5 L-154 1822.25 L-145 1822.25 L-142 1821.38 L-140 1820.5 L-138.5 1820 L-138 1819 L-137 1818.5 L-138 1818 L-138 1817.5 L-137.5 1817 L-136 1817 L-135.5 1818 L-135 1817 L-134 1816.5 L-135 1816 L-132.5 1813 L-130.5 1812 L-127.5 1810 L-125.5 1809 L-123 1806.5 L-122.5 1805 L-121.625 1803 L-120.625 1799 L-120 1790.25 L-123.5 1790 L-124 1789.5 L-122 1787.5 L-122.75 1783 L-123.5 1781 L-126 1776.5 L-131.5 1771 L-132.5 1772 L-138.5 1773 L-139 1772 L-138.5 1772 L-133.25 1770.75 L-133.25 1769.25 L-136 1767.5 L-139 1766.38 L-150 1770.5 L-161.5 1773 L-162 1774 L-161.5 1774 L-154 1776.38 L-151.5 1777 L-151 1778 L-151.5 1778 L-155 1777.38 L-161 1775.38 L-163 1774.5 L-165 1774 L-163.75 1771.25 L-163 1771 L-162.5 1772 L-162 1771 L-158 1770.5 L-150 1768.5 L-143 1765.5 L-141.5 1765 L-141 1764 L-141.5 1764 L-143 1763.75 L-152 1763.75 L-155 1764.63 L-157 1765.5 L-158.5 1766 L-162 1769 L-162.5 1768 L-163 1768.5 L-163 1769 L-163.5 1769 L-164.5 1770 L-165 1770 L-165 1768.5 L-159.5 1763 L-156.5 1762 L-156 1762 L-156.5 1761 L-162 1761.63 L-166.5 1763 L-175 1771.5 L-176.25 1774.75 L-178.5 1775 L-179 1774.5 L-178 1773.5 L-177 1771.5 L-171 1763.5 L-169.5 1762 L-168.25 1761.75 L-167.75 1760.25 L-163 1758.75 L-146.5 1759 L-145.5 1760 L-144.5 1759 L-138 1760.63 L-136 1761.38 L-133 1761.38 L-127 1758.63 L-124.5 1758 L-112 1745.5 L-108.5 1740 L-99.625 1720 L-97.625 1712 L-92.5 1579 L-95.625 1550 L-97.5 1542 L-100.5 1533 L-101 1530.5 L-101 1530 L-100 1530.5 L-99.625 1532 L-98 1535 L-98 1537.5 L-97.5 1538 L-97 1538 L-97 1539.5 L-96.5 1540 L-96 1540 L-95 1547.5 L-95 1548 L-94 1547.5 L-94 1545 L-93 1545.5 L-94 1555 L-93 1554.5 L-93 1550 L-92 1550.5 L-92.5 1690 L-96.5 1717 L-104.5 1737 L-107 1741.5 L-109 1744.5 L-110 1746.5 L-123.5 1760 L-128 1762.5 L-129.5 1763 L-130 1763 L-129.5 1764 L-128.5 1764 L-124.5 1768 L-98.5 1764 L-97.5 1765 L-96.5 1764 L-83 1763.38 L-80 1762.38 L-78 1762.13 L-24 1762.25 L-8 1759.5 L5 1755.5 L20 1749.5 L43 1738.5 L48.5 1735 L56.75 1728.75 L66 1717.5 L68.5 1714 L72.5 1707 L85.5 1674 L91 1650.5 L91 1650 L92 1650.5 L91.5 1654 L86.5 1675 L85.5 1678 L85 1681 L84.5 1681 L84 1681.5 L84 1683 L83.25 1683.25 L82.625 1685 L82 1688 L81.5 1688 L81 1688.5 L81 1690 L80.5 1690 L80 1690.5 L80 1692 L79.25 1692.25 L78.5 1695 L78 1698 L77.25 1699.75 L78 1700 L77.5 1703 L75.5 1708 L71.5 1715 L69 1718.5 L61 1728.5 L56.5 1733 L53.5 1735 L49.5 1738 L47 1739.5 L45.5 1740 L43.5 1742 L41 1742.63 L0 1759.5 L-24 1764.25 L-108 1767.5 L-122.5 1770 L-123 1770.5 L-120 1773.5 L-119.5 1775 L-116.625 1781 L-116 1783.5 L-115.5 1784 L-114.5 1783 L-113.5 1784 L-111 1784.63 L-109 1785.5 L-89.5 1798 L-71.5 1812 L-68.5 1814 L-63 1819.5 L-63 1820.5 L-63.5 1821 L-68.5 1816 L-71.5 1814 L-91.5 1799 L-106.5 1789 L-108.5 1787 L-113.5 1786 L-114.5 1785 L-115 1785.5 L-115.625 1797 L-116.75 1802 L-118.375 1806 L-119 1808.5 L-123 1812.5 L-130 1824.5 L-133 1828.5 L-135 1831.5 L-133.5 1833 L-120.25 1831.75 L-120.5 1830 L-121.25 1828 L-122 1820.5 L-120.5 1819 L-115 1817.38 L-113 1817.25 L-108 1818.63 L-105 1818.5 L-102.5 1818 L-102 1818 L-102.5 1819 L-103.5 1819 L-104 1819.5 L-102.5 1821 L-101 1821.5 L-92.5 1826 L-89.5 1828 L-87 1829.38 L-74 1832.5 L-67.25 1835.25 L-67 1836.5 L-66 1837.5 L-67.5 1839 L-68 1838.5 L-68.25 1836.25 L-72 1834.63 L-82.5 1832 L-83 1832 L-82.5 1833 L-76 1836.38 L-73.5 1837 L-72 1838.5 L-72 1839.5 L-72.5 1840 L-73.5 1839 L-75 1838.63 L-80 1836.5 L-86 1832.75 L-112 1833.88 L-113.75 1834.25 L-114 1835.5 L-115 1836.5 L-113 1838.5 L-113.5 1839 L-116 1838 L-116 1836.5 L-118.5 1834 L-130.75 1835.25 L-131 1836 M-115 1835 L-115 1834 L-116 1834 L-116 1835 L-115 1835 "></path>
<path d="M-99 1529 L-100 1528 L-100 1527 L-99 1527.5 L-99 1529 "></path>
<path d="M-100 1526 L-101 1525 L-101 1524 L-100 1524.5 L-100 1526 "></path>
<path d="M-101 1523 L-102 1523 L-102 1522 L-101 1522 L-101 1523 "></path>
<path d="M-102 1521 L-103 1521 L-103 1520 L-102 1520 L-102 1521 "></path>
<path d="M-101 1530 L-102.375 1528.5 L-105 1520.5 L-104.5 1520 L-103 1521.5 L-102.5 1524 L-101.5 1527 L-101 1529.5 L-101 1530 "></path>
<path d="M-103 1519 L-104 1519 L-104 1518 L-103 1518 L-103 1519 "></path>
<path d="M-104 1517 L-105 1517 L-105 1516 L-104 1516 L-104 1517 "></path>
<path d="M-106 1514 L-105 1514.5 L-106 1516 L-106 1514 "></path>
<path d="M-107 1514 L-107 1512 L-106.5 1512 L-106 1512.5 L-106 1514 L-107 1514 "></path>
<path d="M-108 1512 L-108 1510.5 L-107.5 1510 L-107 1510.5 L-107 1512 L-108 1512 "></path>
<path d="M-108 1509 L-109 1509 L-109 1508 L-108 1508 L-108 1509 "></path>
<path d="M-109 1507 L-110 1507 L-110 1506 L-109 1506 L-109 1507 "></path>
<path d="M-110 1505 L-111 1505 L-111 1504 L-110 1504 L-110 1505 "></path>
<path d="M-111 1503 L-112 1503 L-112 1502 L-111 1502 L-111 1503 "></path>
<path d="M-112 1501 L-113 1501 L-113 1500 L-112 1500 L-112 1501 "></path>
<path d="M-113 1498 L-114 1498 L-114 1497 L-113 1497 L-113 1498 "></path>
<path d="M-114 1496 L-115 1496 L-115 1495 L-114 1495 L-114 1496 "></path>
<path d="M-220.5 1551 L-222 1551 L-221.5 1550 L-220 1550 L-220.5 1551 "></path>
<path d="M-202.5 1550 L-213 1550 L-212.5 1549 L-202 1549 L-202.5 1550 "></path>
<path d="M-185.5 1548 L-188 1548 L-187.5 1547 L-185 1547 L-185.5 1548 "></path>
<path d="M-299 1496 L-300 1496 L-300 1495 L-299 1495 L-299 1496 "></path>
<path d="M-296.5 1495 L-298 1495 L-297.5 1494 L-296 1494 L-296.5 1495 "></path>
<path d="M-300.5 1494 L-302 1494 L-301.5 1493 L-300 1493 L-300.5 1494 "></path>
<path d="M-298.5 1493 L-300 1493 L-299.5 1492 L-298 1492 L-298.5 1493 "></path>
<path d="M-301.5 1497 L-304 1497 L-303.5 1496 L-301 1496 L-301.5 1497 "></path>
<path d="M-302.5 1495 L-306 1495 L-305.5 1494 L-302 1494 L-302.5 1495 "></path>
<path d="M-19 1487 L-20 1487 L-20 1486 L-19 1486 L-19 1487 "></path>
<path d="M-21 1486 L-22 1486 L-22 1485 L-21 1485 L-21 1486 "></path>
<path d="M-24.5 1487 L-28.5 1486 L-30 1484.5 L-29.5 1484 L-28 1484.5 L-26 1485.5 L-24.5 1486 L-24 1486 L-24.5 1487 "></path>
<path d="M-30.5 1484 L-34.5 1483 L-35 1483 L-34.5 1482 L-30.5 1483 L-30 1483 L-30.5 1484 "></path>
<path d="M-32 1481 L-33 1481 L-33 1480 L-32 1480 L-32 1481 "></path>
<path d="M-37 1479 L-38 1479 L-38 1478 L-37 1478 L-37 1479 "></path>
<path d="M-44 1476 L-45 1476 L-45 1475 L-44 1475 L-44 1476 "></path>
<path d="M-51 1473 L-52 1473 L-52 1472 L-51 1472 L-51 1473 "></path>
<path d="M-55 1472 L-56 1472 L-56 1471 L-55 1471 L-55 1472 "></path>
<path d="M-59 1471 L-60 1471 L-60 1470 L-59 1470 L-59 1471 "></path>
<path d="M-62 1470 L-63 1470 L-63 1469 L-62 1469 L-62 1470 "></path>
<path d="M-164 1501 L-164 1499.5 L-165 1499 L-165 1500 L-164 1501 M-167 1511 L-167 1510 L-168 1510 L-168 1511 L-167 1511 M-168 1514 L-168 1513 L-169 1513 L-169 1514 L-168 1514 M-106 1516 L-105 1519.5 L-105.5 1520 L-107 1518.5 L-107.5 1517 L-117.5 1496 L-123 1486.5 L-128.5 1481 L-129.5 1481 L-132.5 1478 L-135 1477.63 L-142 1477.63 L-145 1478.63 L-149.5 1481 L-153 1484.5 L-152.5 1485 L-148.5 1485 L-147 1486.5 L-147.5 1487 L-154.5 1487 L-157 1489.5 L-158 1493.5 L-159 1494.5 L-158 1495.5 L-157.25 1504 L-155 1508.5 L-155.5 1509 L-156.5 1508 L-157.5 1508 L-159 1506.5 L-159.25 1504.25 L-160.5 1504 L-161 1503.5 L-160 1502.5 L-161 1501.5 L-161 1498 L-162 1498.5 L-163.5 1505 L-169 1521.5 L-170.5 1523 L-171.875 1522.75 L-171.375 1516 L-167.625 1505 L-167 1500.5 L-164.5 1498 L-163.25 1497.75 L-163 1496.5 L-164 1495.5 L-163.5 1495 L-162.25 1494.75 L-161 1491.5 L-162 1490.5 L-161.5 1490 L-160.25 1489.75 L-160 1487.5 L-158 1485.5 L-157.75 1483.25 L-156 1482.5 L-148 1476.63 L-143 1474.75 L-131.5 1475 L-130 1476.5 L-129.75 1477.75 L-127.5 1478 L-125.5 1480 L-124.5 1480 L-123 1481.5 L-122.75 1483.75 L-121.5 1484 L-120 1485.5 L-119.75 1487.75 L-118.5 1488 L-118 1488.5 L-119 1489.5 L-118.5 1490 L-117.25 1490.25 L-117 1491.5 L-115 1493.5 L-116 1494.5 L-115.625 1496 L-110.5 1508 L-109.5 1510 L-108 1512 L-108 1513.5 L-107.5 1514 L-107 1514 L-107 1515.5 L-106.5 1516 L-106 1516 "></path>
<path d="M-35.5 1482 L-38 1481.5 L-43 1479.5 L-52 1475.63 L-63 1472.38 L-68 1470.5 L-79 1467.5 L-110 1465.63 L-127 1467.63 L-133.5 1469 L-135 1467.5 L-134.5 1467 L-126.5 1466 L-124.5 1464 L-123.5 1465 L-111.5 1464 L-109.5 1462 L-87 1463.25 L-85.5 1463 L-83.5 1465 L-80.5 1465 L-79.5 1464 L-77.5 1466 L-73.5 1467 L-72.5 1466 L-72 1466.5 L-71.75 1467.75 L-67.25 1467.25 L-66.75 1468.75 L-65 1469.5 L-58 1472.5 L-54 1473.5 L-44 1477.5 L-37 1480.63 L-35.5 1481 L-35 1481 L-35.5 1482 "></path>
<path d="M-297 1393 L-297 1391.5 L-298 1391 L-298 1392 L-297 1393 M-310.5 1498 L-310 1497 L-311.5 1497 L-312 1498 L-310.5 1498 M-313 1499 L-313 1498 L-314 1498 L-314 1499 L-313 1499 M-316 1500 L-316 1499 L-317 1499 L-317 1500 L-316 1500 M-188.5 1530 L-188 1529 L-195.5 1529 L-196 1530 L-188.5 1530 M-186 1530 L-186 1529 L-187 1529 L-187 1530 L-186 1530 M-162.25 1546.75 L-162.5 1544 L-163.625 1540 L-164.5 1538 L-165 1536.5 L-170.5 1531 L-176 1529.63 L-183.5 1529 L-184 1529.5 L-183 1530.5 L-183 1531.5 L-184.5 1533 L-186 1533.25 L-193.75 1535.25 L-193.75 1536.75 L-192.5 1537 L-190.5 1539 L-181 1538.5 L-172 1537.38 L-168.25 1537.25 L-168.25 1538.75 L-176 1540.5 L-182.5 1541 L-183 1542 L-182.5 1542 L-178 1542.63 L-169.5 1545 L-168.5 1544 L-168 1544.5 L-167.75 1545.75 L-166.5 1546 L-166 1545.5 L-167 1544.5 L-166.5 1544 L-164.5 1544 L-164 1544.5 L-165 1545.5 L-163.5 1547 L-162.25 1546.75 M-192.5 1552 L-192 1551 L-192.5 1551 L-196 1550.38 L-202.5 1547 L-204.5 1545 L-206.75 1544.75 L-207 1543.5 L-209.5 1541 L-210.5 1542 L-211.5 1541 L-216.5 1541 L-218 1539.5 L-216.5 1538 L-210.5 1537 L-207.5 1534 L-207 1534.5 L-207 1535.5 L-206.5 1536 L-205.5 1535 L-197.5 1534 L-196 1532.5 L-196.5 1532 L-205 1532.63 L-210 1533.75 L-215 1533.5 L-217.5 1534 L-218.5 1535 L-220 1533.5 L-220 1531.5 L-220.5 1531 L-221.5 1532 L-222.5 1531 L-223 1531.5 L-222.5 1534 L-217.5 1549 L-216.75 1551.88 L-192.5 1552 M-194.5 1539 L-194 1538.5 L-196.5 1536 L-201 1536.63 L-204 1537.5 L-207.5 1538 L-208 1539 L-194.5 1539 M-204.25 1542.75 L-204.25 1541.25 L-206.5 1541 L-207 1541.5 L-205.5 1543 L-204.25 1542.75 M-201 1542 L-201 1541 L-202 1541 L-202 1542 L-201 1542 M-188.5 1544 L-186.5 1543 L-186 1542 L-186.5 1542 L-189 1541.5 L-192 1541.38 L-201.5 1543 L-202 1544 L-197.5 1544 L-196.5 1545 L-195.5 1544 L-188.5 1544 M-193.5 1549 L-191 1546.5 L-191.25 1545.25 L-198 1545.5 L-200.5 1545 L-201 1545.5 L-199.5 1547 L-198 1547.5 L-196 1548.38 L-193.5 1549 M-174 1548.63 L-166.5 1548 L-166 1547 L-174.5 1547 L-175.5 1548 L-176.5 1547 L-187.5 1546 L-189 1547.5 L-188.75 1548.88 L-178 1548.5 L-174 1548.63 M-170 1550.38 L-165.5 1550 L-165 1549 L-189.5 1550 L-191 1551.5 L-190.5 1552 L-170 1550.38 M-209.5 1561 L-209 1560 L-209.5 1560 L-210.75 1559.75 L-211 1557.5 L-209.5 1556 L-188.5 1555 L-188 1554 L-214.75 1554 L-214.5 1556 L-213.625 1558 L-212.75 1560.75 L-209.5 1561 M-165.5 1561 L-164 1559.5 L-165 1558.5 L-163 1556.5 L-163 1551.5 L-163.5 1551 L-165.5 1553 L-169 1553.5 L-172 1554.38 L-176.5 1555 L-177 1556 L-173.25 1556.25 L-173 1558.5 L-174.5 1560 L-175.5 1560 L-176 1561 L-165.5 1561 M-193 1560.38 L-184.5 1560 L-184 1559 L-207.5 1560 L-208 1561 L-193 1560.38 M-181 1561 L-181 1560 L-182 1560 L-182 1561 L-181 1561 M-197.5 1563 L-197 1562 L-204.5 1562 L-205 1563 L-197.5 1563 M-173 1564.5 L-168.5 1564 L-167 1562.5 L-167.5 1562 L-175.5 1563 L-176.5 1564 L-177 1563.5 L-177.25 1562.13 L-184 1562.63 L-187 1563.25 L-203.5 1564 L-204 1565 L-173 1564.5 M-213 1564 L-213 1563 L-214 1563 L-214 1564 L-213 1564 M-210 1564 L-210 1563 L-211 1563 L-211 1564 L-210 1564 M-209.5 1567 L-208 1565.5 L-208.5 1565 L-209.75 1565.75 L-209.5 1567 M-172.25 1568 L-172 1566.5 L-171.5 1566 L-170.5 1567 L-169 1565.5 L-169.5 1565 L-173 1565.5 L-177 1566.5 L-180.5 1567 L-181 1568 L-172.25 1568 M-202.5 1572 L-200.5 1570 L-186.5 1571 L-186 1570 L-186.5 1570 L-187.75 1569.75 L-188.25 1568.13 L-194 1568.63 L-199 1568.25 L-207.75 1569 L-207.75 1570.75 L-206 1571.38 L-202.5 1572 M-181.5 1571 L-181 1570.5 L-182.5 1569 L-185.5 1569 L-186 1569.5 L-184.5 1571 L-181.5 1571 M-207.5 1593 L-207 1592.5 L-208.5 1591 L-209.5 1591 L-210.5 1592 L-211.5 1591 L-212.5 1591 L-213.5 1590 L-214.5 1591 L-216.75 1591.25 L-216.75 1593 L-207.5 1593 M-244 1637 L-244 1636 L-245 1636 L-245 1637 L-244 1637 M-167 1676.13 L-165.25 1675.75 L-165 1672.5 L-166.5 1671 L-195.75 1672.13 L-197 1677.5 L-196.5 1678 L-195.5 1677 L-167 1676.13 M-145.5 1689 L-145 1688.5 L-145 1679.5 L-147 1677.5 L-147 1676.5 L-149.5 1674 L-153 1672.75 L-161.5 1672 L-163 1673.5 L-162.75 1675.75 L-161 1676.25 L-151.5 1676 L-150 1677.5 L-150 1678.5 L-151 1679.5 L-149 1681.5 L-150 1685.5 L-152 1687.5 L-151.5 1688 L-147.5 1687 L-145.5 1689 M-160 1681.5 L-152.25 1678.75 L-152 1677.5 L-152.5 1677 L-153.5 1678 L-160.5 1678 L-163 1680.5 L-162.75 1681.75 L-160 1681.5 M-246.25 1762.75 L-246 1761.5 L-247 1760.5 L-246.5 1760 L-245.25 1759.75 L-245 1758.5 L-246 1757.5 L-245.5 1757 L-244.25 1756.75 L-244.5 1755 L-244.5 1753 L-244 1751.5 L-245 1750.5 L-243.5 1749 L-242.25 1748.75 L-242 1746.5 L-243 1745.5 L-242 1744.5 L-241.75 1743 L-241.75 1738 L-242 1736.5 L-242.5 1736 L-243.5 1737 L-245 1737.5 L-253 1741.38 L-255.5 1742 L-257 1743.5 L-257 1747.5 L-256 1748.5 L-257 1749.5 L-256 1750.5 L-256 1751.5 L-254.5 1753 L-253.5 1753 L-253 1753.5 L-254 1754.5 L-252.5 1756 L-251.5 1756 L-251 1756.5 L-252 1757.5 L-251 1758.5 L-251 1759.5 L-247.5 1763 L-246.25 1762.75 M-197 1680 L-197 1679 L-198 1679 L-198 1680 L-197 1680 M-183.5 1682 L-182.5 1681 L-180.5 1681 L-180 1680 L-188.5 1680 L-189 1681 L-188.5 1681 L-183.5 1682 M-194 1682.5 L-189.5 1682 L-189 1681 L-189.5 1681 L-197.5 1682 L-198 1683 L-194 1682.5 M-192 1686.63 L-177.5 1685 L-177 1684 L-189 1684.63 L-196.5 1686 L-197 1687 L-192 1686.63 M-174 1690.5 L-166.25 1689.88 L-166 1688.5 L-166.5 1688 L-167.5 1689 L-195.5 1692 L-197 1690.5 L-198.25 1685.25 L-199.75 1685.25 L-205.5 1700 L-206 1703.5 L-205.5 1704 L-204.5 1703 L-203 1702.5 L-201 1701.63 L-193 1699.5 L-184.5 1698 L-184 1697 L-194.5 1698 L-195.5 1699 L-196.5 1698 L-198.75 1697.75 L-198.75 1695.25 L-189 1692.5 L-174 1690.5 M-175 1688 L-175 1687 L-176 1687 L-176 1688 L-175 1688 M-172.5 1700 L-172 1699 L-176.5 1699 L-177 1700 L-172.5 1700 M-185 1701.5 L-179.5 1701 L-179 1700 L-188.5 1701 L-189 1702 L-185 1701.5 M-190.5 1703 L-190 1702 L-194.5 1702 L-195 1703 L-190.5 1703 M-187.5 1712 L-186 1710.5 L-186.5 1710 L-200.5 1711 L-203 1708.5 L-201 1706.5 L-201.5 1706 L-205.75 1705.88 L-206 1704.5 L-207 1704 L-207 1704.5 L-208 1710.5 L-207.5 1711 L-206.5 1710 L-204.5 1712 L-187.5 1712 M-178.5 1706 L-178 1705 L-180.5 1705 L-181 1706 L-178.5 1706 M-185 1707.5 L-181.5 1707 L-181 1706 L-181.5 1706 L-189.5 1707 L-190 1708 L-185 1707.5 M-174 1708.5 L-171.5 1708 L-171 1707 L-171.5 1707 L-179.5 1708 L-180 1708.5 L-178.5 1710 L-174 1708.5 M-198 1709 L-198 1708 L-199 1708 L-199 1709 L-198 1709 M-190.5 1709 L-190 1708 L-193.5 1708 L-194 1709 L-190.5 1709 M-181.5 1711 L-180 1709.5 L-181.5 1708 L-182.5 1709 L-183.5 1709 L-185 1710.5 L-184.5 1711 L-181.5 1711 M-215 1719 L-215 1718 L-216 1718 L-216 1719 L-215 1719 M-165.5 1682 L-165 1681 L-166.5 1681 L-167 1682 L-165.5 1682 M-151.5 1683 L-151 1682 L-152.5 1682 L-153 1683 L-151.5 1683 M-160 1684.5 L-154.5 1684 L-154 1683 L-163.5 1684 L-164 1685 L-160 1684.5 M-165.5 1685 L-165 1684 L-166.5 1684 L-167 1685 L-165.5 1685 M-156.5 1687 L-156 1686 L-157.5 1686 L-158 1687 L-156.5 1687 M-161 1688.5 L-158.5 1688 L-158 1687 L-158.5 1687 L-162 1687.63 L-163.5 1688 L-164 1689 L-161 1688.5 M-162.5 1695 L-162 1694 L-164.5 1694 L-165 1695 L-162.5 1695 M-169.5 1696 L-169 1695 L-171.5 1695 L-172 1696 L-169.5 1696 M-166.5 1699 L-166 1698 L-167.5 1698 L-168 1699 L-166.5 1699 M-152 1698 L-151.5 1698 L-151 1697.5 L-151 1697 L-150 1696.5 L-151 1696 L-148.5 1695 L-146 1692.5 L-146.25 1690.25 L-147.5 1690 L-149.5 1692 L-158.5 1693 L-160 1694.5 L-159.5 1695 L-152.25 1695.13 L-152 1696 L-152.5 1696 L-153 1696.5 L-153 1697 L-157.5 1698 L-159 1699.5 L-159 1700.5 L-157.5 1702 L-156.5 1701 L-155.5 1701 L-154 1699.5 L-153.75 1698.25 L-153 1698 L-152.5 1699 L-152 1698 M-159.5 1702 L-159 1701 L-164.5 1701 L-165 1702 L-159.5 1702 M-166.5 1704 L-166 1703 L-167.5 1703 L-168 1704 L-166.5 1704 M-163.5 1705 L-163 1704 L-164.5 1704 L-165 1705 L-163.5 1705 M-165.5 1706 L-165 1705 L-166.5 1705 L-167 1706 L-165.5 1706 M-168.5 1707 L-168 1706 L-169.5 1706 L-170 1707 L-168.5 1707 M-259 1746 L-259 1745 L-260 1745 L-260 1746 L-259 1746 M-276.5 1790 L-273 1786.5 L-274 1785.5 L-272 1783.5 L-273 1782.5 L-271 1780.5 L-272 1779.5 L-270 1777.5 L-271 1776.5 L-270.5 1776 L-269.5 1776 L-269 1775.5 L-270 1774.5 L-267 1771.5 L-266 1768.5 L-265 1767.5 L-266 1766.5 L-265 1765.5 L-267.5 1763 L-272 1760.5 L-276 1758.63 L-279 1757.63 L-284 1757.75 L-287.5 1759 L-289 1757.5 L-288.75 1756.25 L-287.5 1756 L-286.5 1755 L-285.5 1756 L-283.5 1754 L-280.5 1754 L-278.5 1756 L-275.5 1756 L-274.5 1757 L-273.5 1756 L-273 1756.5 L-273 1757.5 L-272.5 1758 L-271.5 1757 L-271 1757.5 L-271 1758.5 L-269.5 1760 L-268.5 1760 L-267.5 1761 L-266.5 1760 L-266 1760.5 L-266 1761.5 L-263.5 1764 L-263 1763.5 L-262.5 1761 L-261.375 1758 L-261 1756.5 L-262 1755.5 L-260 1753.5 L-261 1749.5 L-260 1748.5 L-261 1747.5 L-261.25 1746.13 L-266 1746.63 L-293 1755.5 L-295.5 1756 L-296 1756.5 L-294 1758.5 L-293.875 1762.75 L-292.5 1763 L-292 1763.5 L-293 1764.5 L-292.5 1765 L-291.5 1765 L-291 1765.5 L-292 1766.5 L-291 1767.5 L-288.75 1771.75 L-287.5 1772 L-287 1772.5 L-288 1773.5 L-287.5 1774 L-286.5 1774 L-286 1774.5 L-287 1775.5 L-286.5 1776 L-285.5 1776 L-285 1776.5 L-286 1777.5 L-284 1779.5 L-283.75 1780.75 L-282.5 1781 L-282 1781.5 L-283 1782.5 L-281.5 1784 L-280.5 1784 L-280 1784.5 L-281 1785.5 L-276.5 1790 M-253.5 1772 L-252.5 1771 L-250.5 1771 L-250 1770.5 L-251 1769.5 L-250.5 1769 L-249.5 1769 L-249 1768.5 L-250 1767.5 L-249.5 1767 L-248.5 1767 L-248 1766.5 L-249 1765.5 L-253.5 1759 L-256.5 1754 L-257 1752.5 L-258 1752 L-258 1752.5 L-258.5 1756 L-260.5 1762 L-261 1764.5 L-262 1765.5 L-261.5 1766 L-260.5 1766 L-257.5 1769 L-256.5 1768 L-256 1769 L-253.5 1772 M-243 1754 L-243 1753 L-244 1753 L-244 1754 L-243 1754 M-237.5 1773 L-235 1770.5 L-235.5 1769 L-240.5 1759 L-241 1757.5 L-242 1757 L-242 1757.5 L-244.5 1764 L-245 1766.5 L-242.5 1769 L-241.5 1768 L-241 1769 L-237.5 1773 M-274 1791 L-274 1790 L-275 1790 L-275 1791 L-274 1791 M-235.5 1774 L-234 1772.5 L-234.5 1772 L-235.75 1772.75 L-235.5 1774 M-233.5 1776 L-233 1775.5 L-233.25 1774.25 L-234.5 1774 L-235 1774.5 L-233.5 1776 M-226 1779 L-225.5 1779 L-225 1778.5 L-225 1778 L-224.5 1778 L-224 1777.5 L-224 1777 L-223.5 1777 L-223 1776.5 L-223 1776 L-222 1776.5 L-222 1777.5 L-226.5 1782 L-231 1784.38 L-249 1789.38 L-262 1791.5 L-267 1793.38 L-269.5 1794 L-270 1794 L-269.5 1795 L-265.5 1797 L-264 1798.5 L-264 1799.5 L-262 1801.5 L-263.5 1803 L-265 1801.5 L-265 1800.5 L-267.5 1798 L-271.5 1796 L-272.5 1795 L-273.5 1796 L-275 1796.38 L-278.5 1797 L-279 1797 L-278.5 1796 L-274.5 1795 L-274 1795 L-274.5 1794 L-275.75 1793.75 L-276.25 1792.25 L-277.5 1792 L-283 1786.5 L-294.375 1766 L-296.375 1761 L-297.25 1757.13 L-313 1759.25 L-327.5 1760 L-328.5 1761 L-329.5 1760 L-335 1759.38 L-338 1758.5 L-343 1756.5 L-355.5 1746 L-357 1744.5 L-369.375 1721 L-376.5 1702 L-377.625 1698 L-379.5 1693 L-380.625 1689 L-382.5 1684 L-390.5 1653 L-395.25 1616 L-394.375 1553 L-392.5 1545 L-390.5 1540 L-387 1533.5 L-385.5 1532 L-384.25 1531.75 L-384 1530.5 L-378.5 1525 L-369.5 1520 L-367.5 1518 L-365.5 1518 L-363.5 1516 L-362 1515.5 L-360 1514.5 L-358.5 1514 L-357.5 1513 L-356.5 1514 L-353.5 1511 L-352.5 1512 L-350.5 1510 L-348.5 1510 L-347.5 1511 L-347 1510.5 L-346.75 1509.25 L-325 1501.38 L-310 1495.5 L-307.5 1495 L-307 1495 L-307.5 1496 L-309 1496 L-308.5 1497 L-306 1497 L-306.5 1498 L-309 1498.5 L-318 1501.63 L-346 1512.38 L-350 1513.5 L-353.5 1514 L-355.5 1516 L-359.5 1517 L-361.5 1519 L-363 1519.5 L-375 1526.5 L-376.5 1527 L-381 1531.5 L-386.5 1539 L-389.375 1545 L-390.375 1548 L-391.375 1553 L-391.5 1625 L-386.5 1658 L-379.375 1684 L-377.5 1689 L-376.375 1693 L-367.375 1718 L-358.5 1736 L-356 1740.5 L-348.5 1748 L-347.25 1748.25 L-347 1749.5 L-343.5 1753 L-342 1753.5 L-335 1756.25 L-329.5 1757 L-328.5 1758 L-327.5 1757 L-313 1756.25 L-296 1753.25 L-270 1744.5 L-266.25 1743.75 L-265.75 1741.25 L-260 1741.38 L-258.25 1740.75 L-258 1737.5 L-259 1736.5 L-257 1734.5 L-256.75 1732.25 L-255.5 1732 L-255 1732.5 L-256 1733.5 L-255.875 1738.75 L-254 1738.5 L-243 1733.38 L-241.5 1733 L-240 1731.5 L-238.75 1726.25 L-237.25 1726.25 L-237.75 1732.75 L-236 1732.75 L-230 1731.25 L-228.5 1731 L-226.5 1729 L-224 1728.38 L-222 1728.5 L-220.5 1729 L-219 1730.5 L-219.25 1731.75 L-225 1731.63 L-226.75 1732.25 L-227.25 1733.75 L-239 1736.25 L-240.25 1755 L-237 1761 L-238 1761.5 L-237.5 1762 L-237 1762 L-237 1762.5 L-236.5 1763 L-236 1763 L-235.5 1765 L-232.5 1771 L-231.75 1772.75 L-230.5 1773 L-229 1771.5 L-229 1770.5 L-228 1769.5 L-229 1768.5 L-228.5 1768 L-227.5 1768 L-226 1766.5 L-225.5 1765 L-224.625 1763 L-224 1760.5 L-223 1759.5 L-224 1758.5 L-223.5 1758 L-222.25 1757.75 L-219 1749.5 L-220 1748.5 L-219.5 1748 L-218.25 1747.75 L-214.375 1736 L-214.75 1732.25 L-213.125 1731.75 L-213 1726.5 L-215.5 1724 L-216.5 1724 L-217 1723.5 L-216 1722.5 L-216.5 1722 L-217.5 1722 L-218 1721.5 L-217 1720.5 L-217.5 1720 L-218.75 1719.75 L-220 1716.5 L-221 1715.5 L-220 1714.5 L-222 1712.5 L-223 1709.5 L-225 1707.5 L-224 1706.5 L-224.5 1706 L-225.75 1705.75 L-227 1702.5 L-228 1701.5 L-227 1700.5 L-229 1698.5 L-229.5 1697 L-231.5 1692 L-233.5 1685 L-242.5 1658 L-247.25 1624 L-246.5 1572 L-230.875 1469 L-231.625 1403 L-233.5 1392 L-240.5 1368 L-242.5 1363 L-247.5 1353 L-255 1343.5 L-256 1341.5 L-261.5 1336 L-263 1335.5 L-265 1334.63 L-269 1333.5 L-274.5 1333 L-276.5 1335 L-280.75 1337.25 L-282 1339.5 L-287.5 1347 L-291.375 1354 L-292.5 1357 L-295.125 1368 L-294.5 1409 L-291.5 1427 L-266.5 1512 L-258.375 1535 L-253.5 1548 L-253 1550.5 L-254.5 1552 L-256 1550.5 L-256.5 1548 L-294.5 1427 L-298.25 1401 L-298.125 1368 L-297.5 1364 L-294.375 1353 L-289.5 1344 L-288.75 1342.25 L-287.5 1342 L-286 1340.5 L-284 1336.5 L-281.5 1334 L-277.5 1332 L-275.5 1330 L-268 1330.75 L-265 1331.5 L-262 1332.63 L-260.5 1333 L-253 1340.5 L-251 1343.5 L-244.5 1352 L-243.625 1354 L-243 1356.5 L-241 1358.5 L-240.5 1360 L-237.625 1367 L-229.5 1397 L-227.625 1469 L-235.875 1528 L-227.25 1528 L-227 1525 L-226 1525.5 L-226 1527.5 L-224 1529.5 L-224 1530.5 L-223.5 1531 L-222.5 1530 L-220.5 1530 L-218.5 1528 L-175 1526.75 L-169.5 1528 L-162 1535.5 L-161.625 1537 L-160.5 1540 L-159.5 1544 L-159.25 1547 L-160 1557.5 L-162 1559.5 L-164 1563.5 L-169.5 1569 L-171 1569.5 L-173.5 1571 L-176 1572.13 L-198.5 1574 L-200.5 1576 L-201 1575.5 L-201.25 1574.13 L-206.5 1574 L-207 1574.5 L-206 1575.5 L-205.5 1578 L-203 1584.5 L-201 1586.5 L-202.5 1588 L-203.5 1588 L-204.5 1587 L-205.5 1588 L-211.5 1589 L-212 1589 L-211.5 1590 L-207.5 1590 L-205 1592.5 L-206.5 1594 L-208.5 1594 L-209.5 1595 L-210.5 1594 L-217.5 1594 L-219 1592.5 L-219 1591.5 L-217.5 1590 L-215 1589.38 L-205.25 1585.75 L-205.625 1583 L-212.25 1565.25 L-213.5 1565 L-215 1563.5 L-215 1562.5 L-214 1561.5 L-215 1560.5 L-215.375 1559 L-217.25 1554.25 L-218.5 1554 L-219 1553.5 L-218 1552.5 L-218.5 1551 L-225 1531.5 L-226.5 1530 L-229 1530.5 L-236.875 1530.25 L-244.25 1581 L-243.5 1632 L-240.5 1653 L-235.5 1671 L-225.375 1699 L-221.5 1707 L-221 1708.5 L-219 1710.5 L-218.375 1713 L-216.75 1716.75 L-214.5 1717 L-212 1714.5 L-213 1713.5 L-213 1712.5 L-213.5 1712 L-214.5 1713 L-216.5 1713 L-217 1712.5 L-215.5 1711 L-214 1710.5 L-212 1710.5 L-210.25 1710.75 L-210 1709.5 L-211 1708.5 L-209 1706.5 L-210 1705.5 L-209.75 1704 L-207.625 1697 L-203.375 1686 L-203.75 1682.25 L-202.5 1682 L-201 1680.5 L-199.5 1675 L-199 1670.5 L-200 1669.5 L-197 1666.5 L-196.5 1663 L-192 1649.5 L-189.5 1647 L-188 1648.5 L-189 1649.5 L-189.5 1652 L-194.625 1667 L-194.75 1668.88 L-153 1669.75 L-150 1670.63 L-148 1671.5 L-146.5 1672 L-145 1673.5 L-144.5 1675 L-143.5 1677 L-142.75 1679 L-142.75 1689 L-144 1693.5 L-150.5 1700 L-156 1703.5 L-167 1708.5 L-180 1712.5 L-186 1713.25 L-207.75 1713.25 L-208 1717 L-209 1716.5 L-209.25 1715.25 L-210.5 1715 L-212 1716.5 L-211 1717.5 L-211.25 1718.75 L-214.75 1719.25 L-215 1720.5 L-213.5 1722 L-212.5 1722 L-211 1723.5 L-210.75 1725.75 L-208.5 1726 L-207.5 1725 L-206 1726.5 L-206.25 1727.75 L-209.5 1728 L-211 1729.5 L-211.5 1733 L-219.625 1757 L-225.5 1769 L-229.5 1776 L-230 1777.5 L-228.5 1779 L-227 1779 L-226.5 1780 L-226 1779 M-227 1781 L-227 1780 L-228 1780 L-228 1781 L-227 1781 M-232 1782 L-232.25 1780.25 L-233.75 1779.75 L-234 1778.5 L-237.5 1775 L-243.5 1771 L-246.5 1768 L-247 1768.5 L-247.5 1770 L-248.5 1772 L-249 1773.5 L-250 1774.5 L-249 1775.5 L-246.5 1779 L-244.25 1782.75 L-245.5 1783 L-247 1781.5 L-247 1780.5 L-250.5 1777 L-251.5 1777 L-252 1777.5 L-250 1779.5 L-250.5 1780 L-251.5 1780 L-254.5 1783 L-255 1782.5 L-255 1780.5 L-256 1779.5 L-254 1777.5 L-254 1776.5 L-253 1775.5 L-257.5 1771 L-262.5 1768 L-264 1769.5 L-264 1770.5 L-266 1772.5 L-266.625 1775 L-268.375 1779 L-270.5 1785 L-271 1787.5 L-272 1788.5 L-271 1789.5 L-271.5 1790 L-272.5 1790 L-274 1791.5 L-272.5 1793 L-268 1792.25 L-263 1790.5 L-246 1787.5 L-239 1785.5 L-232.5 1784 L-232 1783 L-230.5 1783 L-230 1782.5 L-230.5 1782 L-232 1782 "></path>
</g>
</g>
</svg>