<svg xmlns="http://www.w3.org/2000/svg" viewBox="-1423 -406 917 984">
<title>Lion Mix — Villano (Notebook 8, estudio A)</title>
<g transform="rotate(90)" fill="#3A3A3E" fill-rule="evenodd" opacity="0.92">
<g id="estudio-a-cabeza">
<path d="M213 1279 L212 1279 L212 1278 L213 1278 L213 1279 "></path>
<path d="M212 1278 L211 1278 L211 1277 L212 1277 L212 1278 "></path>
<path d="M214 1277 L213 1277 L213 1276 L214 1276 L214 1277 "></path>
<path d="M213 1276 L212 1276 L212 1275 L213 1275 L213 1276 "></path>
<path d="M211 1273 L210 1273 L210 1272 L211 1272 L211 1273 "></path>
<path d="M223 1239 L222 1239 L222 1238 L223 1238 L223 1239 "></path>
<path d="M210 1272 L209 1272 L209 1271 L210 1271 L210 1272 "></path>
<path d="M284 1055 L283 1055 L283 1054 L284 1054 L284 1055 "></path>
<path d="M293 1044 L292 1044 L292 1043 L293 1043 L293 1044 "></path>
<path d="M329 999 L328 999 L328 998 L329 998 L329 999 "></path>
<path d="M-264 977 L-264 975 L-263 975 L-263 976.5 L-263.5 977 L-264 977 "></path>
<path d="M-325.5 1185 L-327.5 1185 L-329 1183.5 L-329 1181.5 L-332 1178.5 L-353.375 1141 L-359.5 1125 L-360.5 1121 L-362.875 1103 L-362.875 1101 L-361.25 1088 L-360.5 1085 L-360 1081.5 L-358 1079.5 L-357.5 1078 L-356 1075.5 L-348.75 1066.25 L-334.5 1054 L-326 1048.5 L-301 1035.63 L-298.5 1035 L-296.5 1033 L-292.5 1032 L-291.5 1031 L-290.5 1032 L-288.25 1032.25 L-288 1034.5 L-288.5 1035 L-289.5 1034 L-290.5 1035 L-291 1034.5 L-291 1033.5 L-291.5 1033 L-292.5 1034 L-293.75 1034.25 L-294 1035.5 L-294.5 1036 L-295.5 1035 L-296 1035.5 L-296 1036.5 L-296.5 1037 L-297.5 1036 L-298.5 1037 L-300 1037.38 L-303 1038.63 L-304.5 1039 L-306 1040.5 L-306 1041.5 L-306.5 1042 L-307.5 1041 L-308.5 1042 L-309.75 1042.25 L-310 1043.5 L-310.5 1044 L-311.5 1043 L-312.5 1043 L-314 1044.5 L-314 1045.5 L-314.5 1046 L-315.5 1045 L-316 1045.5 L-316 1046.5 L-316.5 1047 L-317.5 1046 L-318 1046.5 L-318.25 1047.75 L-322.75 1049.25 L-323 1050.5 L-323.5 1051 L-324.5 1050 L-325 1050.5 L-325 1051.5 L-325.5 1052 L-326.5 1051 L-328.5 1053 L-329.75 1053.25 L-330 1054.5 L-331.5 1056 L-333.75 1056.25 L-334 1057.5 L-337.5 1061 L-338.5 1061 L-352 1074.5 L-353 1076.5 L-355 1079.5 L-356.375 1082 L-357.5 1085 L-358.25 1088 L-359.875 1101 L-359.875 1103 L-357.5 1120 L-354.5 1130 L-350.5 1140 L-340.5 1158 L-340 1159.5 L-340 1160 L-339 1159.5 L-340.375 1139 L-338.5 1131 L-336.5 1126 L-331 1115.5 L-329 1112.5 L-328 1110.5 L-321.5 1104 L-320.5 1104 L-318.5 1102 L-316 1101.38 L-308 1097.75 L-302 1096.5 L-298 1096.5 L-289 1098.5 L-284 1100.25 L-279.25 1100.88 L-278.5 1099 L-273 1087.5 L-267.75 1079.25 L-265 1078.38 L-263.25 1078.25 L-263 1080.5 L-263.5 1081 L-264.5 1080 L-265 1080.5 L-266.5 1083 L-269 1086.5 L-272.375 1093 L-274.5 1098 L-275.5 1100 L-276 1101.5 L-279.5 1105 L-280.5 1104 L-284 1103.5 L-298 1099.5 L-302 1099.5 L-307 1100.75 L-309 1101.5 L-315 1104.38 L-317.5 1105 L-319.5 1107 L-320.5 1107 L-325 1111.5 L-326 1113.5 L-329.5 1119 L-335.375 1131 L-336.125 1134 L-336.25 1154 L-333.375 1167 L-332.375 1170 L-331.5 1172 L-330 1174.5 L-325.5 1181 L-325 1182.5 L-324 1183.5 L-325.5 1185 M-338 1161 L-338 1160 L-339 1160 L-339 1161 L-338 1161 "></path>
<path d="M-37 957 L-36 957.5 L-35.5 984 L-34 996.5 L-33.5 997 L-32.5 996 L-30.5 996 L-28.5 994 L-27 993.5 L-14 987.5 L-7 985.625 L-1 984.625 L10 984.875 L12 985.5 L14 986.375 L16.5 987 L23 993.5 L24 995.5 L27.5 1001 L29.5 1006 L30.25 1010 L30.375 1023 L29.5 1028 L27.375 1036 L25.5 1040 L24 1042.5 L18 1050.5 L15.5 1053 L9 1057.5 L7 1057.5 L5 1056.5 L3.5 1056 L1 1053.5 L1 1052.5 L2.5 1051 L3.5 1051 L5 1052.5 L5 1053.5 L7.5 1056 L8.5 1056 L13 1051.5 L13 1050.5 L13.5 1050 L14.5 1051 L16 1049.5 L15 1048.5 L15.5 1048 L16.5 1048 L19 1045.5 L19 1043.5 L21.5 1041 L22.5 1041 L23 1040.5 L22 1039.5 L22.5 1039 L23.5 1039 L24 1038.5 L23 1037.5 L24 1036.5 L24 1035.5 L26 1033.5 L25 1032.5 L26 1031.5 L27.375 1023 L27.25 1010 L26.375 1006 L23.5 1000 L23 998.5 L13.5 989 L9 987.75 L1 987.5 L-5 988.5 L-15 991.5 L-20 993.5 L-31 999.5 L-32.5 1000 L-33 1000.5 L-32 1001.5 L-32.25 1003 L-32.5 1009 L-30.375 1018 L-28.5 1023 L-19.5 1055 L-17.625 1060 L-15.5 1067 L-13.5 1072 L-9 1080.5 L-5.5 1086 L-3.5 1090 L6.5 1104 L8 1106.5 L12.5 1111 L13.5 1111 L15 1112.5 L14.75 1113.75 L13.5 1114 L12.5 1115 L10.5 1113 L9.25 1112.75 L-5.5 1092 L-8 1087.5 L-13.5 1079 L-17.5 1070 L-35.375 1010 L-39.25 960 L-38 957 L-37.5 958 L-37 957 "></path>
<path d="M-38 957 L-38 956.5 L-37.5 956 L-37 957 L-38 957 "></path>
<path d="M22 1120.25 L-11 1119.38 L-25 1116.5 L-37 1112.38 L-43 1109.5 L-62.5 1097 L-71 1090.5 L-73.5 1089 L-87 1075.5 L-89 1072.5 L-96 1063.5 L-99.5 1058 L-113.5 1021 L-115.5 1013 L-116.25 1007 L-116.25 986 L-115.375 981 L-114.375 978 L-110.375 969 L-110 967.5 L-98.5 956 L-96.5 955 L-91 951.5 L-89 950.75 L-84.5 950 L-81 953.5 L-81.25 954.75 L-83.5 955 L-85.5 953 L-86.5 953 L-87.5 952 L-88.5 953 L-89.75 953.25 L-90 954.5 L-90.5 955 L-91.5 954 L-93 955.5 L-93 956.5 L-93.5 957 L-94.5 956 L-96 957.5 L-96.25 958.75 L-98.5 959 L-107 967.5 L-107.625 970 L-108.5 972 L-111 976.5 L-112 977.5 L-111 978.5 L-112 979.5 L-113.25 986 L-113.25 1006 L-112.375 1013 L-107.5 1029 L-100.375 1049 L-98.625 1053 L-98 1055.5 L-96 1057.5 L-95 1059.5 L-93 1062.5 L-90 1066.5 L-88 1069.5 L-68.5 1089 L-65.5 1091 L-61.5 1094 L-42 1106.5 L-31 1111.5 L-16 1115.5 L22 1117.25 L30 1115.38 L39 1111.5 L53.5 1103 L61.5 1097 L70 1088.5 L71.5 1086 L81 1072.5 L88.375 1058 L92.5 1047 L98.5 1019 L98.375 980 L97.5 975 L94.5 963 L90.5 953 L84 942.5 L76 932.5 L74.5 931 L72.5 930 L67 926.5 L57 922.5 L27 918.125 L2 920.5 L-17 925.625 L-36 933.5 L-73.5 955 L-77.5 958 L-80.5 960 L-82.5 962 L-84.75 962.25 L-85 963.5 L-86.5 965 L-88.75 965.25 L-89.25 966.75 L-92 967.625 L-93.75 967.75 L-94 966.5 L-91.5 964 L-89.5 963 L-71.5 950 L-40 932.5 L-38.5 932 L-36.5 930 L-34 929.375 L-14 921.5 L2 917.5 L27 915.125 L48 917.5 L61 920.5 L66 922.5 L75.5 928 L81 933.5 L87 941.5 L91.5 949 L92 950.5 L94 952.5 L94.625 955 L96.375 959 L100.5 974 L102.375 989 L101.5 1019 L99.5 1032 L93.375 1054 L89.5 1063 L84 1073.5 L77.5 1083 L74.5 1087 L73 1089.5 L62.5 1100 L61.5 1100 L56.5 1105 L54.25 1105.25 L53.75 1106.75 L49.25 1108.25 L48.75 1109.75 L47 1110.5 L42 1113.5 L30 1118.5 L22 1120.25 "></path>
<path d="M-263 975 L-263 973 L-262 973 L-262 974.5 L-262.5 975 L-263 975 "></path>
<path d="M-262 973 L-262 971 L-261 971 L-261 972.5 L-261.5 973 L-262 973 "></path>
<path d="M-261 971 L-261 969 L-260 969 L-260 970.5 L-260.5 971 L-261 971 "></path>
<path d="M-260 967 L-259 967.5 L-260 969 L-260 967 "></path>
<path d="M-258 967 L-259 967 L-259 966 L-258 966 L-258 967 "></path>
<path d="M-257 965 L-258 965 L-258 964 L-257 964 L-257 965 "></path>
<path d="M-256 964 L-257 964 L-257 963 L-256 963 L-256 964 "></path>
<path d="M-255 962 L-256 962 L-256 961 L-255 961 L-255 962 "></path>
<path d="M-264 977 L-264.5 980 L-268.5 995 L-269.375 1024 L-267.5 1036 L-264.5 1047 L-249.5 1085 L-242 1098.5 L-238 1104.5 L-229.5 1116 L-206 1142.5 L-192.5 1156 L-180.5 1166 L-156.5 1183 L-128 1199.38 L-123 1201.5 L-65 1225.25 L-39 1231.5 L-33 1233.25 L23 1241.63 L28 1241.63 L54 1237.38 L57 1237.63 L59 1238.5 L60.75 1238.75 L64 1233.5 L65.5 1232 L83 1216.5 L88 1212.5 L95 1208.63 L98.75 1208.25 L99 1209.5 L100 1210.5 L99.5 1211 L98 1210.5 L96.25 1210.25 L96 1211.5 L95.5 1212 L94.5 1211 L93 1212.5 L93 1213.5 L92.5 1214 L91.5 1213 L91 1213.5 L90.75 1214.75 L86 1217.5 L84.5 1218 L82 1220.5 L82 1221.5 L80.5 1223 L79.5 1223 L76 1226.5 L76 1227.5 L74.5 1229 L73.5 1229 L64 1238.5 L62.5 1241 L60 1244.5 L51.5 1258 L46.625 1269 L45.625 1273 L44.5 1282 L44.5 1292 L46.5 1303 L53.5 1320 L59.5 1333 L62.5 1338 L70.5 1349 L72 1351.5 L84.5 1364 L96 1373.5 L99.5 1376 L109 1381.5 L116 1384.5 L134 1392.5 L142 1394.63 L147 1394.13 L161 1395.88 L183 1393.38 L190.5 1391 L192.5 1389 L194 1388.5 L198.5 1386 L201.5 1384 L203.5 1383 L214 1372.5 L224.5 1358 L229.375 1349 L231.375 1344 L233.625 1336 L234.375 1334 L234.5 1329 L235.25 1327 L235.875 1321.25 L234.5 1321 L234 1320.5 L235 1319.5 L234.875 1315.25 L233.5 1315 L233 1314.5 L234 1313.5 L234 1312.5 L232 1310.5 L233 1309.5 L231 1307.5 L232 1306.5 L230 1304.5 L229.5 1303 L223 1291.5 L220.5 1288 L219 1285.5 L213 1279.5 L213.5 1279 L214.5 1279 L215 1278.5 L214 1277.5 L214.5 1277 L215.75 1277.25 L224 1287.5 L231.5 1300 L234.375 1307 L236.375 1314 L237.5 1321 L237.5 1330 L234.5 1344 L232.5 1349 L227.5 1359 L217 1373.5 L215.5 1375 L214.25 1375.25 L213 1378.5 L210.5 1381 L207.5 1382 L205 1384.5 L205 1385.5 L204.5 1386 L203.5 1385 L202 1386.5 L202 1387.5 L201.5 1388 L200.5 1387 L198.5 1389 L197.25 1389.25 L197 1390.5 L196.5 1391 L195.5 1390 L194.5 1391 L193.5 1391 L191.5 1393 L189 1393.63 L184 1395.5 L180 1396.25 L167 1397.75 L163 1398.63 L161 1398.5 L159 1397.63 L142 1397.63 L131 1394.5 L126 1392.5 L106 1383.5 L95.5 1377 L84.5 1368 L68 1351.5 L67 1349.5 L61.5 1342 L55.5 1332 L49.5 1318 L44.625 1307 L42.75 1300 L41.5 1292 L41.5 1282 L42.75 1272 L43.5 1269 L45.5 1264 L50.5 1254 L57.5 1243 L57.75 1241.25 L56 1240.5 L54 1240.5 L52.5 1241 L51.5 1240 L50.5 1241 L49.5 1241 L48.5 1242 L47.5 1241 L46.5 1242 L42.5 1243 L41.5 1242 L40.5 1243 L37.5 1243 L36.5 1244 L35.5 1243 L34.5 1244 L12 1243.5 L-33 1236.25 L-66 1228.25 L-118 1207.5 L-152.5 1189 L-171 1176.5 L-181.5 1169 L-192.5 1160 L-194.75 1159.25 L-195.5 1162 L-198.25 1168.75 L-200 1169.38 L-204 1169.5 L-207 1168.63 L-211.5 1168 L-212.5 1167 L-213.5 1168 L-215.5 1166 L-216.5 1167 L-217.5 1166 L-220 1165.38 L-227 1162.5 L-231 1160.63 L-242 1157.5 L-246 1157.5 L-249.5 1158 L-251.5 1160 L-252.75 1160.25 L-255.5 1165 L-256.25 1167 L-255.375 1188 L-254.5 1194 L-252.5 1201 L-247.5 1216 L-246.625 1221 L-246 1233.5 L-245 1234.5 L-247.5 1237 L-249.5 1235 L-251 1234.5 L-262.5 1228 L-266 1225.5 L-268.5 1224 L-277 1215.5 L-282.375 1205 L-283.5 1202 L-288.25 1179 L-287.5 1152 L-283.5 1128 L-281.5 1120 L-276.75 1107 L-275.875 1102.25 L-272.5 1102 L-271 1103.5 L-272.5 1105 L-273.5 1104 L-274 1104.5 L-274 1105.5 L-273 1106.5 L-273.5 1107 L-274.75 1107.25 L-275 1108.5 L-274 1109.5 L-274.5 1110 L-275.75 1110.25 L-277 1115.5 L-278 1116.5 L-277 1117.5 L-277.5 1118 L-278.75 1118.25 L-279 1119.5 L-278 1120.5 L-278.5 1121 L-279.75 1121.25 L-280 1122.5 L-279 1123.5 L-281 1125.5 L-282 1132.5 L-281 1133.5 L-283 1135.5 L-283 1137.5 L-282 1138.5 L-284 1140.5 L-284 1143.5 L-283 1144.5 L-284 1145.5 L-284.375 1147 L-284.5 1152 L-285.375 1154 L-285.375 1157 L-285.125 1159 L-285.25 1179 L-283.5 1190 L-280.5 1201 L-278.5 1206 L-274 1214.5 L-269.5 1219 L-261.5 1225 L-252 1230.5 L-250.5 1231 L-249.5 1232 L-249 1231.5 L-249.75 1221 L-251.5 1213 L-257.5 1194 L-259.25 1167 L-258.375 1164 L-256 1159.5 L-253.5 1157 L-252.5 1157 L-250.5 1155 L-242 1154.5 L-231 1157.5 L-226 1159.5 L-214 1164.5 L-203.5 1167 L-202.5 1168 L-201.5 1167 L-200.5 1167 L-199 1165.5 L-198.625 1164 L-196.625 1159 L-196.25 1156.25 L-197.5 1156 L-199 1154.5 L-211 1140.5 L-217.5 1134 L-218.75 1133.75 L-224 1126.5 L-227.5 1123 L-228.75 1122.75 L-230 1120.5 L-245 1099.5 L-251.5 1088 L-269.5 1041 L-270.5 1037 L-272.375 1024 L-272.375 1002 L-270.5 990 L-268.375 982 L-264.5 972 L-259 961.5 L-257.5 960 L-257 960.5 L-258 963.5 L-260 965.5 L-260 967 L-260.5 967 L-261 967.5 L-261 969 L-261.5 969 L-262 969.5 L-262 971 L-262.5 971 L-263 971.5 L-263 973 L-263.5 973 L-264 973.5 L-264 975 L-264.75 976.75 L-264 977 M-265 980 L-265 978.5 L-266 978 L-266 979 L-265 980 M-266 982 L-266 981 L-267 981 L-267 982 L-266 982 M-267 984 L-267 983 L-268 983 L-268 984 L-267 984 "></path>
<path d="M-254 961 L-255 960 L-255 959 L-254 959.5 L-254 961 "></path>
<path d="M-253 959 L-254 959 L-254 958 L-253 958 L-253 959 "></path>
<path d="M-252 957 L-253 957 L-253 956 L-252 956 L-252 957 "></path>
<path d="M-251 956 L-252 956 L-252 955 L-251 955 L-251 956 "></path>
<path d="M-250 953 L-250.5 954 L-251 953 L-250 953 "></path>
<path d="M-250 953 L-250 952 L-249 952 L-249 952.5 L-249.5 953 L-250 953 "></path>
<path d="M-249 952 L-249 951.5 L-248.5 951 L-248 951 L-248 951.5 L-248.5 952 L-249 952 "></path>
<path d="M-248 951 L-248 949 L-247 949 L-247 950.5 L-247.5 951 L-248 951 "></path>
<path d="M-247 949 L-247 948 L-246 948 L-246 948.5 L-246.5 949 L-247 949 "></path>
<path d="M-246 948 L-246 947 L-245 947 L-245 947.5 L-245.5 948 L-246 948 "></path>
<path d="M-245 947 L-245 946 L-244 946 L-244 946.5 L-244.5 947 L-245 947 "></path>
<path d="M-244 946 L-244 945 L-243 945 L-243 945.5 L-243.5 946 L-244 946 "></path>
<path d="M-302 1022.25 L-309.5 1024 L-310.5 1025 L-311.5 1024 L-323.75 1024 L-324 1025.5 L-324.5 1026 L-325.5 1025 L-326.5 1025 L-327.5 1026 L-329.5 1024 L-331.5 1024 L-332.5 1025 L-333.5 1024 L-335 1023.63 L-340 1023.5 L-342 1022.5 L-346 1022.63 L-351 1020.63 L-353.5 1020 L-355.5 1018 L-359.5 1016 L-370 1005.5 L-373.5 1000 L-378.5 989 L-379.5 985 L-381.5 955 L-378.25 928 L-377.5 925 L-376.375 922 L-376 920.5 L-374.5 919 L-373 920.5 L-372.5 928 L-371.375 934 L-367.5 944 L-364 950.5 L-362 953.5 L-359 957.5 L-357 960.5 L-351.5 966 L-349 967.5 L-337 977.5 L-334 979.375 L-331 980.5 L-327 981.25 L-305 981.25 L-294 979.375 L-291 978.375 L-287 976.625 L-283.5 976 L-283 976 L-283.5 977 L-290 980.375 L-293 981.375 L-309 984.5 L-331 983.25 L-336.5 982 L-339.5 979 L-350 970.5 L-352.5 969 L-361 960.5 L-362.5 958 L-367 951.5 L-370.375 945 L-373.5 937 L-374.375 934 L-375 929.5 L-375 929 L-376 929.5 L-376.5 939 L-378.5 955 L-377.25 980 L-376.375 985 L-375.5 988 L-373.625 993 L-373 995.5 L-371 997.5 L-370.5 999 L-366 1005.5 L-358.5 1013 L-353 1016.5 L-346 1019.25 L-328 1022.63 L-303 1020.38 L-300 1019.38 L-298 1018.5 L-296.5 1018 L-295.5 1019 L-294.5 1018 L-293 1017.63 L-290.25 1017.25 L-290.25 1018.75 L-291.75 1019.25 L-292 1020.5 L-292.5 1021 L-293.5 1020 L-298 1020.75 L-302 1022.25 M-379 979 L-379 973.5 L-380 973 L-380 978.5 L-379 979 M-378 983 L-378 982 L-379 982 L-379 983 L-378 983 "></path>
<path d="M-70 800 L-70.5 800 L-71 799.5 L-70 799 L-70 800 "></path>
<path d="M-70 799 L-70 798.5 L-69.5 798 L-69 799 L-70 799 "></path>
<path d="M-61 791 L-62 791 L-62 790 L-61 790 L-61 791 "></path>
<path d="M404 746 L403 746 L403 745 L404 745 L404 746 "></path>
<path d="M-16 685 L-17 685 L-17 684 L-16 684 L-16 685 "></path>
<path d="M-18 682 L-19 682 L-19 681 L-18 681 L-18 682 "></path>
<path d="M-20 679 L-21 679 L-21 678 L-20 678 L-20 679 "></path>
<path d="M-21 678 L-22 678 L-22 677 L-21 677 L-21 678 "></path>
<path d="M-22 677 L-23 677 L-23 676 L-22 676 L-22 677 "></path>
<path d="M-23 676 L-24 676 L-24 675 L-23 675 L-23 676 "></path>
<path d="M-24 675 L-25 675 L-25 674 L-24 674 L-24 675 "></path>
<path d="M-25 671 L-24 671.5 L-25 672 L-25 671 "></path>
<path d="M-25 672 L-25 673.5 L-25.5 674 L-28 671 L-26 671 L-26 671.5 L-25.5 672 L-25 672 "></path>
<path d="M-26 671 L-26 670 L-25.5 670 L-25 670.5 L-25 671 L-26 671 "></path>
<path d="M-27 669 L-26.5 669 L-26 669.5 L-26 670 L-26.5 670 L-27 669.5 L-27 669 "></path>
<path d="M-120 779 L-120 778 L-121 778 L-121 779 L-120 779 M-119 786 L-119 784.5 L-120 784 L-120 785 L-119 786 M-69 799 L-64 794.5 L-63.75 793.25 L-62.5 793 L-60 790.5 L-60 789.5 L-61 788.5 L-60.5 788 L-59.25 787.75 L-59 786.5 L-60 785.5 L-58 783.5 L-59.75 761 L-60.5 757 L-63 750.5 L-70.5 743 L-72 742.625 L-75 741.5 L-79 740.75 L-94 740.75 L-104 742.5 L-119.5 746 L-121 747.5 L-119.5 774 L-106.5 850 L-104.375 859 L-103.375 862 L-101 866.5 L-98.5 869 L-97.25 869.25 L-97.25 871.75 L-98.75 871.75 L-99.25 870.25 L-100.5 870 L-103 867.5 L-103 866.5 L-104.5 865 L-105.5 865 L-106 864.5 L-105 863.5 L-106 862.5 L-106.5 859 L-108.25 851.25 L-109.5 851 L-110 850.5 L-109 849.5 L-109 847.5 L-111 845.5 L-110 844.5 L-110 841.5 L-112 839.5 L-111 838.5 L-111 836.5 L-113 834.5 L-112 833.5 L-112 831.5 L-114 829.5 L-113 828.5 L-113 826.5 L-115 824.5 L-114 823.5 L-114.25 821.25 L-115.5 821 L-116 820.5 L-115 819.5 L-115.25 816.25 L-116.75 815.75 L-116.25 810.25 L-117.75 809.75 L-117.75 808 L-117.125 803.25 L-118.875 802.75 L-123.25 768 L-120.25 686 L-119.5 681 L-118.5 677 L-116.5 672 L-114.5 668 L-114 666.5 L-111.5 664 L-110.25 664.25 L-110.625 667 L-113.375 672 L-116.5 682 L-117.25 686 L-120 742.75 L-118 742.75 L-94 737.75 L-79 737.75 L-71.5 739 L-69.5 741 L-68.5 741 L-60 749.5 L-59.5 751 L-58.625 753 L-57.625 756 L-56.75 761 L-56.75 785 L-57.625 789 L-58.5 791 L-61.25 795.75 L-71 803.5 L-73.5 805 L-75.5 807 L-78 807.5 L-84 809.625 L-86 809.75 L-94.5 809 L-99 804.5 L-99.5 803 L-99.75 801.25 L-98.5 801 L-97 802.5 L-97 804.5 L-95.5 806 L-92.5 807 L-91.5 806 L-90.5 807 L-89.5 806 L-88.5 807 L-86.5 807 L-85.5 808 L-84.5 807 L-81.25 806.75 L-81 805.5 L-80.5 805 L-79.5 806 L-78 805.5 L-72.5 802 L-70 800 L-69.5 800 L-69 799.5 L-69 799 "></path>
<path d="M426 659 L425 658.5 L425 641 L426 641.5 L426 659 "></path>
<path d="M356.75 1019.75 L355.5 1020 L354.5 1019 L353.5 1020 L351.5 1020 L349.5 1018 L347.5 1018 L347 1017.5 L348 1016.5 L345.5 1014 L344.5 1014 L340 1009.5 L341 1008.5 L335.5 1003 L334.5 1004 L333 1002.5 L333 1001.5 L328.5 997 L327.5 997 L327 996.5 L328 995.5 L327.5 995 L326.5 995 L326 994.5 L327 993.5 L326.5 993 L325.5 993 L325 992.5 L326 991.5 L325 990.5 L323.75 987.25 L322.5 987 L321 985.5 L322 984.5 L320.5 983 L319.5 983 L318 981.5 L319 980.5 L317.5 979 L316.5 979 L315 977.5 L316 976.5 L314.5 975 L313.5 975 L312 973.5 L311.5 972 L306.5 964 L295.5 929 L293.625 918 L295.75 864 L300.5 847 L304.5 837 L310 826.5 L321.5 810 L329 800.5 L341.5 788 L344.5 786 L352.5 780 L366 771.5 L370.5 769 L389.5 755 L392 752.5 L392.25 751.25 L393.5 751 L404 740.5 L405 738.5 L412 729.5 L417 721.5 L418 720.5 L417 719.5 L417.5 719 L418.75 718.75 L424.5 705 L426.375 698 L427.25 691 L427 635 L428 635.5 L428.125 696 L427.5 701 L425.5 708 L420.5 720 L414 732.5 L412.5 734 L411.5 734 L409 736.5 L410 737.5 L408.5 739 L407.5 739 L406 740.5 L407 741.5 L406.5 742 L393.25 753.25 L393 754.5 L390.5 757 L378.5 766 L367 773.5 L362.5 776 L350 784.5 L340.5 792 L337 795.5 L334.5 799 L324.5 811 L311 830.5 L309.5 833 L302.5 851 L298.75 865 L296.625 918 L297.5 924 L300.5 937 L307.625 959 L309.5 963 L316.5 974 L325.5 986 L329.5 994 L330 995.5 L334.5 1000 L335.5 1000 L346 1010.5 L346 1011.5 L351.5 1017 L355.5 1017 L357 1018.5 L356.75 1019.75 M296 922 L296 921 L295 921 L295 922 L296 922 M297 927 L297 926 L296 926 L296 927 L297 927 M298 932 L298 930.5 L297 930 L297 931 L298 932 M299 937 L299 935.5 L298 935 L298 936 L299 937 M300 940 L300 939 L299 939 L299 940 L300 940 M301 944 L301 942.5 L300 942 L300 943 L301 944 M302 947 L302 945.5 L301 945 L301 946 L302 947 M303 949 L303 948 L302 948 L302 949 L303 949 M304 952 L304 951 L303 951 L303 952 L304 952 "></path>
<path d="M425 636 L424 635 L424 634 L425 634.5 L425 636 "></path>
<path d="M428 634 L427 633.5 L427 625 L428 625.5 L428 634 "></path>
<path d="M426 626 L425 625.5 L425 617 L426 617.5 L426 626 "></path>
<path d="M429 618 L428 617 L428 616 L429 616.5 L429 618 "></path>
<path d="M427 616 L426 615.5 L426 612 L427 612.5 L427 616 "></path>
<path d="M430 612 L429 612 L429 611 L430 611 L430 612 "></path>
<path d="M428 611 L427 610.5 L427 607 L428 607.5 L428 611 "></path>
<path d="M429 607 L428 606.5 L428 604 L429 604.5 L429 607 "></path>
<path d="M430 604 L429 603.5 L429 600 L430 600.5 L430 604 "></path>
<path d="M431 600 L430 599.5 L430 597 L431 597.5 L431 600 "></path>
<path d="M432 597 L431 596.5 L431 594 L432 594.5 L432 597 "></path>
<path d="M433 594 L432 593.5 L432 591 L433 591.5 L433 594 "></path>
<path d="M-28 671 L-29.5 671 L-32.5 668 L-44.5 659 L-60 650.625 L-69 647.625 L-83 645.375 L-88 645.375 L-104 647.5 L-115 650.5 L-118.5 651 L-119.5 652 L-120.5 651 L-122.5 653 L-126.5 653 L-128.5 655 L-129.5 654 L-131.5 656 L-132.5 655 L-133.5 656 L-135.75 656.25 L-136 657.5 L-136.5 658 L-137.5 657 L-138.5 658 L-140.75 658.25 L-141 659.5 L-141.5 660 L-142.5 659 L-143 659.5 L-143 660.5 L-143.5 661 L-144.5 660 L-145.5 661 L-148.75 662.25 L-149 663.5 L-149.5 664 L-150.5 663 L-152.5 665 L-155.75 666.25 L-156.25 667.75 L-158.75 668.25 L-159.25 669.75 L-177 680.5 L-190 690.5 L-192.5 692 L-200.5 698 L-208 705.5 L-208.25 706.75 L-209.5 707 L-218 715.5 L-220 718.5 L-223 722.5 L-231.5 736 L-235.5 745 L-237.5 752 L-239.375 766 L-238.5 793 L-237.5 799 L-234.5 810 L-232.5 815 L-222.5 836 L-216.5 845 L-213 849.5 L-211 852.5 L-200.5 863 L-197.5 865 L-193 868.5 L-187.5 872 L-185 873.375 L-180 875.375 L-173 877.375 L-167.5 878 L-164 881.5 L-164 882.5 L-165.5 884 L-166 883.5 L-166 882.5 L-167.5 881 L-173 880.25 L-175 879.75 L-180.75 878.875 L-181 877.5 L-181.5 877 L-182.5 878 L-183 877.5 L-183.25 876.25 L-192.5 873 L-194 871.5 L-194.25 870.25 L-196.5 870 L-200.5 866 L-201.5 866 L-214 853.5 L-216 850.5 L-222 842.5 L-225.5 837 L-237.5 811 L-240.375 800 L-242.25 786 L-241.375 757 L-240.5 752 L-237.5 742 L-235.5 737 L-233 732.5 L-226 721.5 L-223 717.5 L-221 714.5 L-201.5 695 L-198.5 693 L-194 689.5 L-191 687.5 L-178 677.5 L-175 675.5 L-142 656.5 L-104 644.5 L-88 642.375 L-83 642.375 L-69 644.5 L-65 645.5 L-55.25 649.25 L-55 650.5 L-54.5 651 L-53.5 650 L-53 650.5 L-53 651.5 L-52.5 652 L-51.5 651 L-51 651.5 L-51 652.5 L-50.5 653 L-49.5 652 L-49 652.5 L-49 653.5 L-47.5 655 L-46.5 654 L-46 654.5 L-46 655.5 L-44.5 657 L-43.5 656 L-43 656.5 L-43 657.5 L-42.5 658 L-41.5 657 L-40 658.5 L-40 659.5 L-38.5 661 L-37.5 660 L-36 661.5 L-36 662.5 L-34.5 664 L-33 664.5 L-30 666.5 L-27 669 L-28.5 669 L-29 669.5 L-28 670.5 L-28 671 "></path>
<path d="M434 591 L433 590.5 L433.5 587 L436.625 578 L438.5 574 L439 572.5 L441.5 570 L442 570.5 L437.625 579 L434.5 588 L434 590.5 L434 591 "></path>
<path d="M224 1241 L224 1240 L223 1240 L223 1241 L224 1241 M493 838 L497 841.5 L498.5 844 L506 854.5 L514.5 868 L525.5 895 L527.5 902 L530.25 909 L534.375 930 L536.375 1011 L532.5 1032 L531.5 1036 L531 1041.5 L529 1043.5 L528.5 1047 L520.5 1068 L506.5 1092 L501 1099.5 L476 1134.5 L445.5 1165 L444.5 1165 L441 1168.5 L441 1169.5 L433.5 1177 L393 1210.5 L378 1221.5 L362 1231.5 L360.5 1232 L358.5 1234 L356 1234.63 L347 1238.5 L313 1249.5 L291 1252.5 L250 1250.25 L238 1247.5 L222.5 1242 L221 1240.5 L221.5 1240 L223 1239.5 L225 1239.38 L251 1246.25 L301 1247.5 L313 1245.5 L341 1237.38 L350 1233.5 L359.5 1229 L375.5 1219 L391 1207.5 L430.5 1175 L439 1166.5 L439 1165.5 L441.5 1163 L442.5 1163 L473 1132.5 L475.5 1129 L486 1115.5 L497 1099.5 L500.5 1094 L506 1086.5 L517.5 1067 L524.5 1050 L533.375 1011 L531.375 930 L529.5 919 L521.5 893 L514.5 875 L510 866.5 L494 842.5 L489 837.5 L489 836 L490 836 L490 836.5 L490.5 837 L491 837 L491 837.5 L491.5 838 L492 838 L492.5 839 L493 838 M496 843 L496 842 L495 842 L495 843 L496 843 "></path>
<path d="M485 830 L485 829 L485.5 829 L486 829.5 L486 830 L485 830 "></path>
<path d="M484 829 L484 828 L484.5 828 L485 828.5 L485 829 L484 829 "></path>
<path d="M483 828 L483 827 L483.5 827 L484 827.5 L484 828 L483 828 "></path>
<path d="M482 827 L482 826 L482.5 826 L483 826.5 L483 827 L482 827 "></path>
<path d="M481 826 L481 825 L481.5 825 L482 825.5 L482 826 L481 826 "></path>
<path d="M480 825 L480 824 L480.5 824 L481 824.5 L481 825 L480 825 "></path>
<path d="M479 824 L479 823 L479.5 823 L480 823.5 L480 824 L479 824 "></path>
<path d="M478 823 L478 822.5 L477.5 822 L477 822 L477 821.5 L476.5 821 L476 821 L476 820.5 L475.5 820 L475 820 L475 819.5 L474.5 819 L474 819 L474 818 L475.5 818 L479 821.5 L479 823 L478 823 "></path>
<path d="M473 818 L473 817 L473.5 817 L474 817.5 L474 818 L473 818 "></path>
<path d="M258.5 1005 L260.5 1003 L261.5 1004 L262 1003.5 L261.75 1002.13 L257.5 1002 L256.5 1001 L256 1001.5 L256.25 1004.75 L258.5 1005 M492 838 L492 837.5 L491.5 837 L491 837 L491 836.5 L490.5 836 L490 836 L489.5 835 L489 835.5 L489 836 L488.5 836 L466.5 814 L464.5 813 L457.5 808 L455.5 807 L453.5 805 L451 804.375 L442 800.5 L434 798.75 L423.5 798 L423 798.5 L424 799.5 L424 801.5 L423.5 802 L422 800.5 L421.75 798.25 L418 798.5 L411.5 801 L410.5 802 L409.5 801 L409 801.5 L408.75 802.75 L406 803.625 L398 809.5 L396.5 810 L395 811.5 L393.75 814.75 L392.5 815 L390 817.5 L382.625 832 L375.5 854 L370.75 885 L375.5 995 L378.25 1016 L378.25 1045 L376.375 1056 L375.5 1059 L373.5 1064 L370 1070.5 L368.5 1072 L367.5 1072 L365 1074.5 L364.75 1075.75 L356 1081.5 L346 1086.38 L343 1087.25 L314 1089.5 L307 1088.38 L295.5 1086 L293.5 1084 L292 1083.5 L281.5 1078 L278.5 1076 L276.5 1075 L262 1060.5 L260.5 1058 L252.5 1046 L239.625 1018 L237.75 1011.25 L233.5 1010 L232.5 1011 L231 1009.5 L231.25 1007.25 L234.5 1007 L236.5 1009 L237 1008.5 L236.625 1007 L235.5 1004 L230.625 969 L231.5 931 L234.5 914 L237.5 904 L241.5 894 L243.375 890 L244 887.5 L246 885.5 L246.5 884 L258 863.5 L266.5 851 L314 794.5 L317.5 791 L318.5 791 L322 787.5 L325 782.5 L328.5 779 L329.5 779 L337 771.5 L341.5 765 L353.5 745 L355.5 740 L356 736.5 L357 735.5 L356 734.5 L356 733.5 L353.5 731 L349 729.75 L341 729.625 L337 730.5 L318 736.625 L314 738.5 L311.5 740 L305 744.5 L303 745.5 L297 749.5 L288.5 756 L277.5 762 L266 769.5 L250 777.375 L247 778.375 L223 783.375 L198 784.375 L187 782.625 L179 780.375 L163 772.5 L161.5 772 L151 761.5 L149 758.5 L143 750.5 L134.625 735 L127.625 717 L117.25 668 L117.625 665 L117.625 663 L116.5 660 L116 657.5 L117 656.5 L116 655.5 L109.5 612 L108.5 608 L106.5 603 L101 593.5 L93.5 586 L92 585.5 L90 584.625 L82 582.75 L71 582.625 L66 583.5 L59 585.5 L54 587.375 L47.5 589 L45.5 591 L44 591.5 L41 593.5 L26.5 605 L24 607.5 L22.5 610 L20 613.5 L15.5 621 L11.625 631 L7.5 647 L11.375 821 L8.5 834 L5.375 842 L4 844.5 L2 847.5 L1 849.5 L-9.5 860 L-12 861.5 L-15.5 864 L-18 865.375 L-23 867.5 L-40 874.5 L-63 880.5 L-129 891.625 L-162 900.5 L-183 907.625 L-197 914.375 L-199.5 915 L-201.5 917 L-203 917.5 L-221.5 928 L-234 938.5 L-243 945 L-243.5 944 L-244 944.5 L-244 945 L-244.5 945 L-245 945.5 L-245 946 L-245.5 946 L-246 946.5 L-246 947 L-246.5 947 L-247 947.5 L-247 948 L-247.5 948 L-248 948.5 L-248 949 L-248.5 949 L-250 950.5 L-250 952 L-250.5 952 L-251 952.5 L-251 953 L-251.5 953 L-253 954.5 L-255 958.5 L-256.5 960 L-257 959.5 L-256.5 958 L-255 955.5 L-252.5 952 L-251 949.5 L-240.5 939 L-238 937.5 L-234.5 935 L-224.5 927 L-221.5 924 L-219.5 924 L-217.5 922 L-216 921.5 L-200 912.625 L-195 910.5 L-182 904.5 L-175 902.5 L-153 894.625 L-136 890.5 L-133 889.5 L-54.5 876 L-53.5 875 L-52.5 876 L-50.5 874 L-47 873.5 L-40 871.375 L-38 870.625 L-35.5 870 L-34.5 869 L-33.5 870 L-31.5 868 L-30.5 868 L-29.5 867 L-28.5 868 L-27.5 867 L-26.25 866.75 L-25.75 865.25 L-24.5 865 L-23.5 864 L-22.5 865 L-20.5 863 L-19.5 864 L-18.5 863 L-17.5 863 L-16 861.5 L-15.75 860.25 L-13.5 860 L-12 858.5 L-11.75 857.25 L-9.5 857 L-8 855.5 L-7.75 854.25 L-6.5 854 L-1 848.5 L1 844.5 L3 842.5 L4 838.5 L5 837.5 L4 836.5 L6 834.5 L5 833.5 L7 831.5 L6 830.5 L8 828.5 L8 827.5 L7 826.5 L8 825.5 L9 822.5 L8 821.5 L9 820.5 L9.625 816 L9.5 784 L8.5 778 L8.625 771 L7.5 766 L7.5 758 L6.5 754 L6.5 747 L5.5 743 L5.5 737 L4.625 733 L3.625 654 L5.5 642 L9.5 628 L11.5 623 L16.5 613 L21 606.5 L26.5 601 L40 590.5 L43 588.5 L49 585.625 L66 580.5 L71 579.625 L82 579.625 L90 581.5 L93 582.625 L100.5 588 L102 589.5 L103 591.5 L106.5 597 L111.5 608 L126.5 701 L131.5 719 L138.375 736 L139 738.5 L141 740.5 L141.5 742 L146 749.5 L153 758.5 L155 761.5 L161.5 768 L177 776.375 L182 778.25 L198 781.375 L222 780.5 L233 778.5 L246 775.375 L256 771.5 L277.5 759 L279.5 757 L282 756.375 L284.5 755 L296 746.5 L315 734.5 L317 733.625 L328 730.375 L336 727.5 L340 726.625 L350 726.75 L354.5 728 L358 731.5 L359 734.5 L360 735.5 L359 736.5 L358.5 740 L357.5 743 L357 745.5 L355 747.5 L354.5 749 L351 755.5 L342 769.5 L308 806.5 L266.5 856 L264 859.5 L244.625 895 L239.5 908 L236.5 920 L233.625 942 L234.5 980 L237.5 1000 L239 1006.5 L240.5 1008 L241.5 1008 L242.5 1007 L243.5 1008 L245.5 1008 L247.5 1006 L248.5 1007 L249.5 1007 L251.5 1005 L252.5 1006 L253.5 1006 L255 1004.5 L255 1002.5 L254.5 1002 L253.5 1003 L253 1002.5 L254 999.5 L255.5 998 L262 999.5 L265 1000.63 L266.5 1001 L268.5 999 L269.5 1000 L270.5 999 L272.75 998.75 L273 997.5 L273.5 997 L274.5 998 L276.5 996 L279.5 995 L281 993.5 L281.25 992 L281.375 986 L278.375 975 L275.5 971 L264 957.5 L262 954.5 L261 952.5 L256.5 948 L255 947.75 L249 947.75 L244.5 949 L242.5 951 L239.25 950.75 L239.25 949.25 L246 945.5 L248 944.75 L256 944.75 L259.75 946.25 L267 956.5 L276 967.5 L277.5 969 L278.75 969.25 L279 970.5 L281 972.5 L281.5 975 L282.5 978 L283.25 982 L284 993.5 L280.5 997 L279 997.5 L274 1000.38 L271.5 1001 L271 1001 L271.5 1002 L274 1002.5 L280 1004.63 L286 1007.5 L287.5 1008 L289.5 1010 L292.5 1010 L297 1014.5 L300 1019.5 L303 1022.5 L303.375 1025 L303.375 1030 L302.375 1033 L299.5 1039 L297.5 1042 L294.5 1046 L288.75 1054.75 L285.5 1056 L284 1057.5 L284 1058.5 L281.5 1061 L280 1061.25 L274 1061.38 L271.25 1060.75 L271 1059.5 L270 1058.5 L270.5 1058 L271.75 1058.25 L272 1059.5 L272.5 1060 L273.5 1059 L276.5 1060 L277.5 1061 L278.5 1060 L287.75 1052.75 L289 1050.5 L297.5 1038 L301.375 1030 L302 1026.5 L300 1024.5 L295.5 1018 L295 1016.5 L291.5 1013 L289 1012.38 L274 1005.63 L270 1004.5 L266 1004.5 L260 1006.38 L247 1009.5 L241.25 1010.13 L241.5 1014 L243.625 1020 L247.5 1029 L257 1047.5 L265 1059.5 L277.5 1072 L279.5 1073 L285 1076.5 L293 1080.5 L294.5 1081 L296.5 1083 L299 1083.38 L307 1085.38 L314 1086.5 L342 1084.38 L346 1083.38 L355 1078.5 L360.5 1075 L369 1066.5 L369 1065.5 L371 1063.5 L371.5 1061 L374.5 1051 L375.25 1045 L374.5 1008 L368.875 960.25 L367.5 960 L366.5 961 L366 960.5 L365.75 959.25 L364.5 959 L363.5 960 L361.5 958 L360.5 959 L360 958.5 L360 957.5 L359.5 957 L358.5 958 L358 957.5 L358 956.5 L357.5 956 L356.5 957 L355 955.5 L355 954.5 L349.5 949 L348.5 950 L347 948.5 L346 946.5 L341.5 940 L330.5 911 L323.5 885 L323.125 880.25 L327.5 878 L328 878.5 L326 880.5 L326.5 885 L337.5 922 L343.5 937 L344.5 939 L348 944.5 L358.5 955 L361 955.625 L366 957.5 L369 957.75 L368.5 877 L373.625 849 L380.625 829 L383.5 823 L386.5 818 L387 816.5 L398.5 805 L399.75 804.75 L400 803.5 L401.5 802 L403 801.5 L417 795.625 L420.875 794.75 L421.5 789 L424.625 776 L428.5 766 L440 745.5 L442 742.5 L443 740.5 L455.5 728 L464 721.5 L480 711.5 L491 702.5 L494.5 700 L511 683.5 L514.5 679 L529 662.5 L536 653.5 L539.5 648 L542.5 641 L547.5 630 L550.5 620 L551.25 614 L550.5 580 L547.375 567 L543.5 557 L541.5 553 L538 547.5 L525.5 535 L521 532.625 L518 531.75 L508 531.625 L502 532.625 L493 535.625 L487 538.5 L474 546.5 L457.5 558 L448.5 563 L446 565.5 L446 566.5 L442.5 570 L442 569.5 L445 564.5 L449.5 560 L459.5 554 L479.5 540 L487 535.5 L500 530.5 L504 529.75 L521 529.875 L523 530.5 L528.5 534 L530.75 535.25 L531.25 536.75 L532.5 537 L534 538.5 L534 539.5 L536.5 542 L537.5 542 L539 543.5 L540 545.5 L545.5 554 L550.5 567 L554.375 587 L554.25 614 L553.5 616 L553.5 620 L553 621.5 L552 622.5 L553 623.5 L552 624.5 L552 625.5 L551 626.5 L552 627.5 L550 629.5 L551 630.5 L550.5 631 L549.5 631 L549 631.5 L550 632.5 L548 634.5 L549 635.5 L548.5 636 L547.5 636 L547 636.5 L548 637.5 L547.5 638 L546.25 638.25 L543.5 645 L540.5 651 L538.5 654 L531.5 663 L516.5 680 L513 684.5 L496.5 701 L493 703.5 L482 712.5 L463.5 724 L453.5 732 L445 740.5 L443.5 743 L441 746.5 L430.5 765 L425.5 778 L424.5 782 L423.125 795 L434 795.625 L442 797.5 L454 802.5 L458.5 805 L465.5 810 L467.5 811 L473 817 L472 817.5 L472.5 818 L473 818 L473 818.5 L473.5 819 L474 819 L474 819.5 L474.5 820 L475 820 L475 820.5 L475.5 821 L476 821 L476 821.5 L476.5 822 L477 822 L477 822.5 L477.5 823 L478 823 L478 823.5 L478.5 824 L479 824 L479 824.5 L479.5 825 L480 825 L480 825.5 L480.5 826 L481 826 L481 826.5 L481.5 827 L482 827 L482 827.5 L482.5 828 L483 828 L483 828.5 L483.5 829 L484 829 L484 829.5 L484.5 830 L485 830 L485.5 831 L486 830 L486.5 830 L493 836.5 L493 838 L492 838 "></path>
</g>
</g>
</svg>