<svg xmlns="http://www.w3.org/2000/svg" viewBox="-1810 -494 612 798">
<title>Lion Mix — Villano (Notebook 9, estudio B)</title>
<g transform="rotate(90)" fill="#3A3A3E" fill-rule="evenodd" opacity="0.92">
<g id="estudio-b-gorro">
<path d="M-414 1772 L-415 1772 L-415 1771 L-414 1771 L-414 1772 "></path>
<path d="M-64 1671 L-65 1671 L-65 1670 L-64 1670 L-64 1671 "></path>
<path d="M-40 1655 L-41 1655 L-41 1654 L-40 1654 L-40 1655 "></path>
<path d="M-99 1679 L-100 1679 L-100 1678 L-99 1678 L-99 1679 "></path>
<path d="M-95 1670 L-96 1670 L-96 1669 L-95 1669 L-95 1670 "></path>
<path d="M-435.25 1786 L-445 1785.38 L-450 1784.25 L-455 1782.38 L-460.5 1779 L-462 1777.5 L-463.5 1775 L-466 1771.5 L-469.375 1765 L-470.25 1761 L-470.25 1745 L-468.375 1735 L-465.375 1727 L-463 1722.5 L-452.5 1712 L-449 1710.75 L-440 1710.63 L-436 1711.63 L-431 1713.5 L-428.5 1714 L-425 1717.5 L-424 1719.5 L-417 1729.5 L-415.5 1732 L-412.5 1740 L-408.625 1756 L-409 1768.5 L-411 1770.5 L-411 1771.5 L-413 1773.5 L-413.625 1776 L-415 1778.5 L-417 1781.5 L-418 1783.5 L-419.5 1785 L-421 1783.5 L-420.75 1782.25 L-419.5 1782 L-419 1781.5 L-420 1780.5 L-419.5 1780 L-418.5 1780 L-417 1778.5 L-416 1775.5 L-415 1774.5 L-416 1773.5 L-415.5 1773 L-414.5 1773 L-413 1771.5 L-413 1770.5 L-411 1768.5 L-411 1766.5 L-412 1765.5 L-411.5 1765 L-410.125 1764.75 L-410 1757.5 L-412 1755.5 L-411 1754.5 L-411 1753.5 L-413 1751.5 L-412 1750.5 L-412 1749.5 L-414 1747.5 L-413 1746.5 L-413 1745.5 L-415 1743.5 L-414 1742.5 L-414 1741.5 L-416 1739.5 L-415 1738.5 L-417 1736.5 L-417.5 1735 L-420 1730.5 L-427 1720.5 L-428 1718.5 L-429.5 1717 L-432 1716.38 L-437 1714.5 L-440 1713.75 L-449 1713.75 L-450.5 1714 L-457 1720.5 L-457.25 1721.75 L-458.5 1722 L-461 1724.5 L-461.5 1726 L-465.5 1736 L-466.5 1740 L-467.375 1746 L-467.25 1760 L-466.375 1764 L-464.5 1768 L-462 1772.5 L-455.5 1779 L-454 1779.5 L-449 1781.5 L-445 1782.38 L-436.5 1783 L-435 1784.5 L-435.25 1786 M-436.5 1785 L-436 1784 L-442.5 1784 L-443 1785 L-436.5 1785 "></path>
<path d="M237 1624 L236 1624 L236 1623 L237 1623 L237 1624 "></path>
<path d="M235.5 1623 L234.5 1623 L233 1621.5 L233.5 1621 L234.5 1621 L236 1622.5 L235.5 1623 "></path>
<path d="M233 1621 L232 1621 L232 1620 L233 1620 L233 1621 "></path>
<path d="M235 1620 L234 1620 L234 1619 L235 1619 L235 1620 "></path>
<path d="M234 1619 L233 1619 L233 1618 L234 1618 L234 1619 "></path>
<path d="M233 1618 L232 1618 L232 1617 L233 1617 L233 1618 "></path>
<path d="M230 1616 L229 1616 L229 1615 L230 1615 L230 1616 "></path>
<path d="M255.5 1616 L255 1615 L256.5 1613 L257 1613.5 L257 1614.5 L255.5 1616 "></path>
<path d="M257.5 1613 L257 1612 L258.5 1610 L259 1610.5 L259 1611.5 L257.5 1613 "></path>
<path d="M259.5 1610 L259.5 1608.5 L260 1606.5 L261.5 1605 L262 1605.5 L261 1608.5 L259.5 1610 "></path>
<path d="M263 1605 L262 1604 L262 1603 L263 1603.5 L263 1605 "></path>
<path d="M264 1603 L263 1602 L263 1601 L264 1601.5 L264 1603 "></path>
<path d="M264.5 1601 L264.5 1599.5 L266 1595.5 L266 1595 L267 1595.5 L266 1599.5 L264.5 1601 "></path>
<path d="M268 1595 L267 1594 L267 1593 L268 1593.5 L268 1595 "></path>
<path d="M269 1593 L268 1592 L268 1591 L269 1591.5 L269 1593 "></path>
<path d="M216 1624 L217 1624.5 L216 1625 L216 1624 "></path>
<path d="M215 1624 L215 1623 L215.5 1623 L216 1623.5 L216 1624 L215 1624 "></path>
<path d="M223 1620 L222 1620 L222 1619 L223 1619 L223 1620 "></path>
<path d="M224 1618 L223 1618 L223 1617 L224 1617 L224 1618 "></path>
<path d="M225 1617 L224 1617 L224 1616 L225 1616 L225 1617 "></path>
<path d="M226 1616 L225 1616 L225 1615 L226 1615 L226 1616 "></path>
<path d="M206 1612 L205 1612 L205 1611 L206 1611 L206 1612 "></path>
<path d="M204 1611 L203 1611 L203 1610 L204 1610 L204 1611 "></path>
<path d="M-46 1646 L-47 1646 L-47 1645 L-46 1645 L-46 1646 "></path>
<path d="M-94 1679.5 L-98.5 1680 L-99 1679.5 L-97.5 1678 L-85.5 1677 L-83.5 1675 L-82.5 1676 L-77 1675.5 L-73 1674.5 L-64 1671.38 L-54 1666.5 L-49 1663.5 L-47.5 1663 L-45.5 1661 L-43.5 1661 L-40 1657.5 L-39.625 1656 L-39.625 1653 L-40.5 1651 L-44 1645.5 L-46 1643.5 L-45.5 1643 L-44.5 1643 L-43 1644.5 L-39.5 1650 L-38.5 1652 L-38 1653.5 L-37 1654.5 L-38 1655.5 L-39 1659.5 L-41.5 1662 L-43 1662.5 L-50 1666.5 L-51.5 1667 L-53.5 1669 L-56 1669.63 L-67 1674.5 L-73 1676.5 L-77 1677.38 L-94 1679.5 "></path>
<path d="M-48 1644 L-49 1644 L-49 1643 L-48 1643 L-48 1644 "></path>
<path d="M-46.5 1643 L-51 1638 L-53 1634.5 L-52.5 1634 L-48 1638.5 L-46 1642.5 L-46.5 1643 "></path>
<path d="M-53 1634 L-54 1634 L-54 1633 L-53 1633 L-53 1634 "></path>
<path d="M-58 1632 L-59 1632 L-59 1631 L-58 1631 L-58 1632 "></path>
<path d="M-54.5 1633 L-58 1629 L-57.5 1628 L-54 1631.5 L-54 1632.5 L-54.5 1633 "></path>
<path d="M-58 1628 L-59 1628 L-59 1627 L-58 1627 L-58 1628 "></path>
<path d="M-61 1628 L-62 1628 L-62 1627 L-61 1627 L-61 1628 "></path>
<path d="M-59.5 1627 L-61 1625 L-60.5 1624 L-59 1625.5 L-59 1626.5 L-59.5 1627 "></path>
<path d="M-63 1625 L-64 1625 L-64 1624 L-63 1624 L-63 1625 "></path>
<path d="M-61 1624 L-62 1624 L-62 1623 L-61 1623 L-61 1624 "></path>
<path d="M-64 1624 L-65 1624 L-65 1623 L-64 1623 L-64 1624 "></path>
<path d="M-51 1619 L-52 1619 L-52 1618 L-51 1618 L-51 1619 "></path>
<path d="M-62.5 1623 L-66 1619 L-65.5 1618 L-62 1621.5 L-62 1622.5 L-62.5 1623 "></path>
<path d="M-68 1619 L-69 1619 L-69 1618 L-68 1618 L-68 1619 "></path>
<path d="M-66 1618 L-67 1618 L-67 1617 L-66 1617 L-66 1618 "></path>
<path d="M-69 1618 L-70 1618 L-70 1617 L-69 1617 L-69 1618 "></path>
<path d="M-52 1618 L-53 1617 L-53 1616 L-52 1616.5 L-52 1618 "></path>
<path d="M-67 1617 L-68 1617 L-68 1616 L-67 1616 L-67 1617 "></path>
<path d="M-70 1617 L-71 1617 L-71 1616 L-70 1616 L-70 1617 "></path>
<path d="M-68 1616 L-69 1616 L-69 1615 L-68 1615 L-68 1616 "></path>
<path d="M-71 1616 L-72 1616 L-72 1615 L-71 1615 L-71 1616 "></path>
<path d="M-69 1615 L-70 1615 L-70 1614 L-69 1614 L-69 1615 "></path>
<path d="M-72 1615 L-73 1615 L-73 1614 L-72 1614 L-72 1615 "></path>
<path d="M-74 1612 L-75 1612 L-75 1611 L-74 1611 L-74 1612 "></path>
<path d="M-70.5 1614 L-73 1611 L-72.5 1610 L-70 1612.5 L-70 1613.5 L-70.5 1614 "></path>
<path d="M-75 1611 L-76 1611 L-76 1610 L-75 1610 L-75 1611 "></path>
<path d="M-76 1609 L-77 1609 L-77 1608 L-76 1608 L-76 1609 "></path>
<path d="M-77 1608 L-78 1608 L-78 1607 L-77 1607 L-77 1608 "></path>
<path d="M-73.5 1610 L-76 1607 L-75.5 1606 L-73 1608.5 L-73 1609.5 L-73.5 1610 "></path>
<path d="M-78 1605 L-78.5 1606 L-79 1605 L-78 1605 "></path>
<path d="M-79 1605 L-79.5 1605 L-80 1604.5 L-80 1603 L-79 1603 L-79 1605 "></path>
<path d="M-80 1603 L-80.5 1603 L-81 1602.5 L-81 1601 L-80 1601 L-80 1603 "></path>
<path d="M-81 1601 L-81.5 1601 L-82 1600.5 L-82 1599 L-81 1599 L-81 1601 "></path>
<path d="M-82 1599 L-82.5 1599 L-83 1598.5 L-83 1597 L-82 1597 L-82 1599 "></path>
<path d="M-83 1597 L-83.5 1597 L-84 1596.5 L-84 1595 L-83 1595 L-83 1597 "></path>
<path d="M-84 1595 L-84.5 1595 L-85 1594.5 L-85 1593 L-84 1593 L-84 1595 "></path>
<path d="M-85 1593 L-85.5 1593 L-86 1592.5 L-86 1591 L-85 1591 L-85 1593 "></path>
<path d="M270 1590 L269 1589 L269 1588 L270 1588.5 L270 1590 "></path>
<path d="M271 1587 L270 1586 L270 1585 L271 1585.5 L271 1587 "></path>
<path d="M272 1584 L271 1583.5 L271 1581 L272 1581.5 L272 1584 "></path>
<path d="M270 1581 L269 1581 L269 1580 L270 1580 L270 1581 "></path>
<path d="M273 1580 L272 1579.5 L272 1577 L273 1577.5 L273 1580 "></path>
<path d="M271 1578 L270 1577 L270 1576 L271 1576.5 L271 1578 "></path>
<path d="M274 1576 L273 1575.5 L273 1573 L274 1573.5 L274 1576 "></path>
<path d="M272 1574 L271 1573.5 L271 1571 L272 1571.5 L272 1574 "></path>
<path d="M275 1571 L274 1570 L274 1569 L275 1569.5 L275 1571 "></path>
<path d="M273 1570 L272 1569.5 L272 1567 L273 1567.5 L273 1570 "></path>
<path d="M276 1567 L275 1566.5 L275 1564 L276 1564.5 L276 1567 "></path>
<path d="M274 1565 L273 1564.5 L273 1561 L274 1561.5 L274 1565 "></path>
<path d="M277 1561 L276 1560 L276 1559 L277 1559.5 L277 1561 "></path>
<path d="M275 1560 L274 1559.5 L274 1556 L275 1556.5 L275 1560 "></path>
<path d="M278 1556 L277 1555 L277 1554 L278 1554.5 L278 1556 "></path>
<path d="M276 1555 L275 1554.5 L275 1550 L276 1550.5 L276 1555 "></path>
<path d="M279 1550 L278 1550 L278 1549 L279 1549 L279 1550 "></path>
<path d="M277 1549 L276 1548.5 L276 1544 L277 1544.5 L277 1549 "></path>
<path d="M280 1544 L279 1544 L279 1543 L280 1543 L280 1544 "></path>
<path d="M278 1543 L277 1542.5 L277 1538 L278 1538.5 L278 1543 "></path>
<path d="M279 1537 L278 1536.5 L278 1530 L279 1530.5 L279 1537 "></path>
<path d="M207 1533 L206 1533 L206 1532 L207 1532 L207 1533 "></path>
<path d="M-28 1581 L-29 1581 L-29 1580 L-28 1580 L-28 1581 "></path>
<path d="M8 1573 L8 1572 L9 1572 L9 1572.5 L8.5 1573 L8 1573 "></path>
<path d="M9 1572 L9 1571.5 L9.5 1571 L10 1571 L10 1571.5 L9.5 1572 L9 1572 "></path>
<path d="M8 1573 L7.5 1574 L5 1574.5 L-2 1576.63 L-9 1579.5 L-20 1582.5 L-25 1582.25 L-26.5 1582 L-27 1581.5 L-26 1580.5 L-26.5 1580 L-27.75 1579.75 L-28 1578.5 L-27.5 1578 L-26.5 1579 L-24 1579.5 L-20 1579.5 L-4.5 1575 L-2.5 1573 L1 1572.5 L8 1570 L8 1572 L7 1572.5 L7.5 1573 L8 1573 M4.5 1574 L5 1573 L3.5 1573 L3 1574 L4.5 1574 "></path>
<path d="M10 1571 L10 1569 L11 1569 L11 1570.5 L10.5 1571 L10 1571 "></path>
<path d="M11 1569 L11 1568.5 L11.5 1568 L12 1568 L12 1568.5 L11.5 1569 L11 1569 "></path>
<path d="M8 1570 L8 1568.5 L9.5 1567 L10 1567 L10 1569 L9.5 1569 L8.5 1570 L8 1570 "></path>
<path d="M12 1566 L13 1566.5 L12 1568 L12 1566 "></path>
<path d="M14 1566 L13 1565 L13 1564 L14 1564.5 L14 1566 "></path>
<path d="M15 1563 L14 1562 L14 1561 L15 1561.5 L15 1563 "></path>
<path d="M16 1560 L15 1559 L15 1558 L16 1558.5 L16 1560 "></path>
<path d="M17 1557 L16 1557 L16 1556 L17 1556 L17 1557 "></path>
<path d="M18 1554 L17 1554 L17 1553 L18 1553 L18 1554 "></path>
<path d="M19 1552 L18 1552 L18 1551 L19 1551 L19 1552 "></path>
<path d="M20 1549 L19 1549 L19 1548 L20 1548 L20 1549 "></path>
<path d="M10 1567 L10.5 1565 L17 1546.5 L17 1546 L18 1546.5 L17.375 1550 L12.625 1563 L12 1566 L11.5 1566 L10.5 1567 L10 1567 "></path>
<path d="M21 1546 L20 1545 L20 1544 L21 1544.5 L21 1546 "></path>
<path d="M-29 1533 L-30 1533 L-30 1532 L-29 1532 L-29 1533 "></path>
<path d="M22 1538 L21 1537.5 L21 1530 L22 1530.5 L22 1538 "></path>
<path d="M-25 1530 L-24 1530.5 L-25 1531 L-25 1530 "></path>
<path d="M-23 1530 L-24 1530 L-24 1529 L-23 1529 L-23 1530 "></path>
<path d="M-32 1539 L-33 1539 L-33 1538 L-32 1538 L-32 1539 "></path>
<path d="M-31 1537 L-32 1537 L-32 1536 L-31 1536 L-31 1537 "></path>
<path d="M-30 1535 L-31 1535 L-31 1534 L-30 1534 L-30 1535 "></path>
<path d="M280 1529 L279 1528.5 L279 1514 L280 1514.5 L280 1529 "></path>
<path d="M-17 1522 L-17 1521.5 L-16.5 1521 L-16 1521 L-16 1521.5 L-16.5 1522 L-17 1522 "></path>
<path d="M-16 1521 L-16 1520.5 L-15.5 1520 L-15 1520 L-15 1520.5 L-15.5 1521 L-16 1521 "></path>
<path d="M-15 1520 L-15 1519 L-14 1519 L-14 1519.5 L-14.5 1520 L-15 1520 "></path>
<path d="M-14 1519 L-14 1518 L-13 1518 L-13 1518.5 L-13.5 1519 L-14 1519 "></path>
<path d="M-13 1517 L-12 1517.5 L-13 1518 L-13 1517 "></path>
<path d="M-11 1517 L-12 1517 L-12 1516 L-11 1516 L-11 1517 "></path>
<path d="M-10 1516 L-11 1516 L-11 1515 L-10 1515 L-10 1516 "></path>
<path d="M21 1517 L20 1516.5 L20 1514 L21 1514.5 L21 1517 "></path>
<path d="M-9 1515 L-10 1515 L-10 1514 L-9 1514 L-9 1515 "></path>
<path d="M-8 1514 L-9 1514 L-9 1513 L-8 1513 L-8 1514 "></path>
<path d="M-6 1513 L-7 1513 L-7 1512 L-6 1512 L-6 1513 "></path>
<path d="M-5 1512 L-6 1512 L-6 1511 L-5 1511 L-5 1512 "></path>
<path d="M-14 1512 L-14 1511.5 L-13.5 1511 L-13 1511 L-13 1512 L-14 1512 "></path>
<path d="M4 1511 L3 1511 L3 1510 L4 1510 L4 1511 "></path>
<path d="M-3 1511 L-4 1511 L-4 1510 L-3 1510 L-3 1511 "></path>
<path d="M-13 1511 L-13 1510.5 L-12.5 1510 L-12 1510 L-12 1511 L-13 1511 "></path>
<path d="M-2 1510 L-3 1510 L-3 1509 L-2 1509 L-2 1510 "></path>
<path d="M-12 1510 L-12 1509.5 L-11.5 1509 L-11 1509 L-11 1510 L-12 1510 "></path>
<path d="M0 1509 L-1 1509 L-1 1508 L0 1508 L0 1509 "></path>
<path d="M-11 1509 L-11 1508.5 L-10.5 1508 L-10 1508 L-10 1509 L-11 1509 "></path>
<path d="M4.5 1510 L4 1509 L5.5 1507 L6 1507.5 L6 1508.5 L4.5 1510 "></path>
<path d="M1.5 1508 L0 1508 L0.5 1507 L2 1507 L1.5 1508 "></path>
<path d="M-10 1508 L-10 1507.5 L-9.5 1507 L-9 1507 L-9 1508 L-10 1508 "></path>
<path d="M3 1507 L2 1507 L2 1506 L3 1506 L3 1507 "></path>
<path d="M-9 1507 L-9 1506.5 L-8.5 1506 L-8 1506 L-8 1507 L-9 1507 "></path>
<path d="M7 1507 L6 1506 L6 1505 L7 1505.5 L7 1507 "></path>
<path d="M4.5 1506 L3 1506 L3.5 1505 L5 1505 L4.5 1506 "></path>
<path d="M-8 1506 L-8 1505.5 L-7.5 1505 L-7 1505 L-7 1506 L-8 1506 "></path>
<path d="M-7 1505 L-7 1504.5 L-6.5 1504 L-6 1504 L-6 1505 L-7 1505 "></path>
<path d="M-6 1504 L-6 1503.5 L-5.5 1503 L-5 1503 L-5 1504 L-6 1504 "></path>
<path d="M-5 1503 L-5 1502.5 L-4.5 1502 L-4 1502 L-4 1503 L-5 1503 "></path>
<path d="M-4 1502 L-4 1501.5 L-3.5 1501 L-3 1501 L-3 1502 L-4 1502 "></path>
<path d="M-3 1501 L-3 1500.5 L-2.5 1500 L-2 1500 L-2 1501 L-3 1501 "></path>
<path d="M-29 1500 L-30 1500 L-30 1499 L-29 1499 L-29 1500 "></path>
<path d="M-28 1499 L-28.5 1499 L-29 1498.5 L-28 1498 L-28 1499 "></path>
<path d="M-2 1500 L-2 1498.5 L-0.5 1497 L1 1497 L1 1497.5 L0 1498.5 L0 1499 L-0.5 1499 L-1 1499.5 L-1 1500 L-2 1500 "></path>
<path d="M-28 1498 L-28 1497.5 L-27.5 1497 L-27 1497 L-27 1498 L-28 1498 "></path>
<path d="M-27 1497 L-27 1496.5 L-26.5 1496 L-26 1496 L-26 1497 L-27 1497 "></path>
<path d="M-26 1496 L-26 1495.5 L-25.5 1495 L-25 1495 L-25 1496 L-26 1496 "></path>
<path d="M-28 1499 L-27.5 1499 L-27 1498.5 L-27 1498 L-26.5 1498 L-26 1497.5 L-26 1497 L-25.5 1497 L-25 1496.5 L-25 1496 L-24.5 1496 L-24 1495.5 L-24 1495 L-23.5 1495 L-23 1494.5 L-23 1494 L-21 1494 L-21 1495 L-21.5 1495 L-27.5 1501 L-28 1501 L-28 1499 "></path>
<path d="M-25 1495 L-25 1494.5 L-24.5 1494 L-24 1494 L-24 1495 L-25 1495 "></path>
<path d="M-24 1494 L-24 1493.5 L-23.5 1493 L-23 1493 L-23 1494 L-24 1494 "></path>
<path d="M-23 1493 L-23 1492.5 L-22.5 1492 L-22 1492 L-22 1492.5 L-22.5 1493 L-23 1493 "></path>
<path d="M-22 1492 L-22 1491.5 L-21.5 1491 L-20 1491 L-20 1492 L-22 1492 "></path>
<path d="M-22 1489 L-23 1489 L-23 1488 L-22 1488 L-22 1489 "></path>
<path d="M-37 1509 L-37 1508 L-36 1508 L-36 1508.5 L-36.5 1509 L-37 1509 "></path>
<path d="M-46.5 1602 L-47.75 1601.75 L-49.25 1598 L-51.25 1586 L-52 1567.25 L-53.5 1567 L-54 1566.5 L-53 1565.5 L-58 1508 L-57 1508.5 L-48 1597.5 L-45 1600.5 L-46.5 1602 "></path>
<path d="M-36 1508 L-36 1507.5 L-35.5 1507 L-35 1508 L-36 1508 "></path>
<path d="M-34 1506 L-35 1506 L-35 1505 L-34 1505 L-34 1506 "></path>
<path d="M-33 1505 L-34 1505 L-34 1504 L-33 1504 L-33 1505 "></path>
<path d="M-35 1508 L-34.5 1508 L-32 1505.5 L-32 1504 L-31.5 1504 L-31 1503.5 L-31 1503 L-30.5 1503 L-28.5 1501 L-28 1501 L-28 1502.5 L-31 1505.5 L-31 1506.5 L-35 1510 L-35 1508 "></path>
<path d="M-32 1504 L-32.5 1504 L-33 1503.5 L-32 1503 L-32 1504 "></path>
<path d="M-32 1503 L-32 1502.5 L-31.5 1502 L-31 1503 L-32 1503 "></path>
<path d="M-58 1508 L-59 1507.5 L-59 1501 L-58 1501.5 L-58 1508 "></path>
<path d="M-30 1501 L-31 1501 L-31 1500 L-30 1500 L-30 1501 "></path>
<path d="M-63 1463 L-64 1463 L-64 1462 L-63 1462 L-63 1463 "></path>
<path d="M-96.25 1671.75 L-97.5 1672 L-99 1670.5 L-99 1669.5 L-104.5 1664 L-105.5 1665 L-106.5 1664 L-107.5 1664 L-109 1662.5 L-109 1661.5 L-111.5 1659 L-113.75 1658.75 L-114 1657.5 L-114.5 1657 L-115.5 1658 L-116 1657.5 L-116.25 1656.25 L-118.75 1655.75 L-119.25 1654.25 L-121.75 1653.75 L-122 1652.5 L-123.5 1651 L-124.5 1651 L-129 1646.5 L-129.25 1645.25 L-130.5 1645 L-133 1642.5 L-135 1639.5 L-155.5 1611 L-157 1608.5 L-158.5 1607 L-159.5 1607 L-161 1605.5 L-163 1602.5 L-169 1594.5 L-173.5 1587 L-176.5 1580 L-190.5 1547 L-203.375 1518 L-204 1515.5 L-204 1515 L-203 1515.5 L-202.5 1517 L-171.5 1586 L-167 1593.5 L-164.5 1597 L-163 1599.5 L-160.5 1602 L-159.25 1602.25 L-158.75 1604.75 L-156.5 1605 L-155 1606.5 L-155 1608.5 L-153.5 1610 L-152.25 1610.25 L-152 1612.5 L-150.5 1614 L-149.5 1614 L-148 1615.5 L-148 1617.5 L-146 1619.5 L-146 1620.5 L-144.5 1622 L-143.5 1622 L-143 1622.5 L-144 1623.5 L-142.5 1625 L-141.25 1625.25 L-140.75 1627.75 L-139.25 1628.25 L-139 1630.5 L-137.5 1632 L-136.5 1632 L-136 1632.5 L-137 1633.5 L-135.5 1635 L-134.25 1635.25 L-134 1637.5 L-132.5 1639 L-131.5 1639 L-130 1640.5 L-130 1642.5 L-120.5 1652 L-118.25 1652.25 L-118 1653.5 L-117.5 1654 L-116.5 1653 L-116 1653.5 L-115.75 1654.75 L-113.25 1655.25 L-112.75 1656.75 L-110.25 1657.25 L-110 1658.5 L-107.5 1661 L-103.25 1662.25 L-103 1663.5 L-101.5 1665 L-100.5 1665 L-99 1666.5 L-97.5 1669 L-96.25 1671.75 "></path>
<path d="M270 1415 L271 1415.5 L270 1416 L270 1415 "></path>
<path d="M207 1427 L207.25 1426.25 L209 1427 L207 1427 "></path>
<path d="M207 1426 L206 1426 L206 1425 L207 1425 L207 1426 "></path>
<path d="M205 1425 L204 1425 L204 1424 L205 1424 L205 1425 "></path>
<path d="M203 1424 L202 1424 L202 1423 L203 1423 L203 1424 "></path>
<path d="M202 1423 L201 1423 L201 1422 L202 1422 L202 1423 "></path>
<path d="M200 1422 L199 1422 L199 1421 L200 1421 L200 1422 "></path>
<path d="M198 1421 L197 1421 L197 1420 L198 1420 L198 1421 "></path>
<path d="M195 1419 L196 1419.5 L195 1420 L195 1419 "></path>
<path d="M194 1419 L194 1418 L194.5 1418 L195 1418.5 L195 1419 L194 1419 "></path>
<path d="M215 1416 L215 1415.5 L215.5 1415 L216 1416 L215 1416 "></path>
<path d="M190 1414 L191 1414.5 L190 1415 L190 1414 "></path>
<path d="M189 1414 L189 1413.5 L189.5 1413 L190 1414 L189 1414 "></path>
<path d="M179 1405 L179 1404.5 L179.5 1404 L180 1405 L179 1405 "></path>
<path d="M103 1405 L102 1405 L102 1404 L103 1404 L103 1405 "></path>
<path d="M-63 1456 L-64 1456 L-64 1455 L-63 1455 L-63 1456 "></path>
<path d="M-62 1453 L-63 1453 L-63 1452 L-62 1452 L-62 1453 "></path>
<path d="M-61 1451 L-62 1451 L-62 1450 L-61 1450 L-61 1451 "></path>
<path d="M-59 1448 L-60 1448 L-60 1447 L-59 1447 L-59 1448 "></path>
<path d="M-58 1447 L-59 1447 L-59 1446 L-58 1446 L-58 1447 "></path>
<path d="M-56 1446 L-56.5 1446 L-57 1445.5 L-56 1445 L-56 1446 "></path>
<path d="M-56 1445 L-56 1444.5 L-55.5 1444 L-55 1445 L-56 1445 "></path>
<path d="M-54 1444 L-55 1444 L-55 1443 L-54 1443 L-54 1444 "></path>
<path d="M-52 1443 L-52.5 1443 L-53 1442.5 L-52 1442 L-52 1443 "></path>
<path d="M-52 1442 L-51.75 1441.25 L-48 1442 L-52 1442 "></path>
<path d="M-44 1441 L-46.5 1441 L-47 1440.5 L-46.5 1440 L-44 1440 L-44 1441 "></path>
<path d="M-39 1443 L-39 1442 L-40 1442 L-40 1443 L-39 1443 M-40 1445 L-40 1444 L-41 1444 L-41 1445 L-40 1445 M-41 1452 L-41 1448.5 L-42 1448 L-42 1451.5 L-41 1452 M-35 1503 L-35 1502 L-36 1502 L-36 1503 L-35 1503 M-37 1506 L-37 1505 L-38 1505 L-38 1506 L-37 1506 M-42.5 1519 L-41 1517.5 L-40 1514.5 L-40.5 1514 L-42 1515.5 L-42.5 1517.5 L-42.5 1519 M-43 1521 L-43 1519.5 L-44 1519 L-44 1520 L-43 1521 M-44 1523 L-44 1521.5 L-45 1521 L-45 1522 L-44 1523 M-45 1524 L-45 1523 L-46 1523 L-46 1524 L-45 1524 M-15 1490 L-15 1489 L-16 1489 L-16 1490 L-15 1490 M-17 1491 L-17 1490 L-18 1490 L-18 1491 L-17 1491 M-21 1494 L-21 1493.5 L-20 1492.5 L-20 1492 L-19 1491.5 L-20 1491 L-17.5 1489 L-10.5 1485 L-8 1482.5 L-8.5 1482 L-18.5 1481 L-22 1484.5 L-23.5 1487 L-35 1503.5 L-36.5 1506 L-37 1508 L-38 1508.5 L-37.5 1509 L-37 1509 L-38 1510.5 L-37.5 1511 L-36 1510.5 L-35 1510 L-35 1511.5 L-37 1513.5 L-37 1515.5 L-36.5 1516 L-34 1513.5 L-32.5 1511 L-26 1502.5 L-24 1499.5 L-21 1496.5 L-21 1495 L-20 1494.5 L-21 1494 M4 1497 L4 1496 L3 1496 L3 1497 L4 1497 M-20 1519 L-20 1518 L-21 1518 L-21 1519 L-20 1519 M-21 1521 L-21 1520 L-22 1520 L-22 1521 L-21 1521 M-6.5 1530 L-3 1526.5 L-3 1525.5 L-3.5 1525 L-7 1529 L-6.5 1530 M-25 1531 L-25.5 1532 L-28.5 1532 L-29 1531.5 L-28 1530.5 L-27.375 1528 L-15.5 1504 L-4.5 1486 L-4 1484.5 L-3 1483.5 L-3.5 1483 L-6.5 1484 L-9 1486.5 L-9 1487.5 L-10.5 1489 L-11.75 1489.25 L-13.5 1492 L-34 1518.5 L-35 1520.5 L-37 1522.5 L-36 1549.5 L-35.5 1550 L-34 1548.5 L-33 1546.5 L-26.5 1537 L-19 1527.5 L-10.5 1519 L0.5 1513 L2.5 1511 L3.5 1512 L4.5 1512 L6 1513.5 L1 1518.5 L-1 1521.5 L-2.75 1524.75 L-0.5 1525 L1 1523.5 L1.25 1522.25 L5.5 1521 L6 1521.5 L5 1522.5 L4.75 1523.75 L3.5 1524 L3 1524 L3.5 1525 L4.75 1525.25 L5 1527.5 L3.5 1529 L2.5 1529 L1 1530.5 L0.5 1532 L-14.5 1557 L-15 1558.5 L-17 1560.5 L-18 1567.5 L-18 1568 L-17 1567.5 L-16 1563.5 L-2.5 1550 L-1 1551.5 L-3 1553.5 L-4 1569 L-5 1568.5 L-4 1554.5 L-4.5 1554 L-14 1563.5 L-14 1565.5 L-16 1567.5 L-16.25 1568.75 L-18.5 1569 L-20 1567.5 L-18.375 1561 L-17.5 1559 L-6.5 1540 L-6.25 1538.25 L-7.5 1538 L-10 1540.5 L-10.5 1542 L-21 1558.5 L-22 1560.5 L-23.5 1562 L-25.75 1561.75 L-25.25 1557 L-26 1552.5 L-24 1550.5 L-23.5 1549 L-17 1537.5 L-8 1525.5 L-6 1522.5 L-2 1518.5 L-2.5 1518 L-5.5 1519 L-10 1523.5 L-30.5 1548 L-33 1551.5 L-34 1553.5 L-36 1555.5 L-34 1627.5 L-35.5 1629 L-36.5 1628 L-37.5 1628 L-39.5 1626 L-43 1625.38 L-45 1624.5 L-46.5 1624 L-51 1619.5 L-50.5 1619 L-45 1622.38 L-39 1624.5 L-36 1624.75 L-36.75 1616 L-37.375 1613 L-38 1560.5 L-38.5 1560 L-39.5 1561 L-40.5 1561 L-42 1559.5 L-38 1555.5 L-39.125 1525.25 L-40.75 1524.75 L-40.375 1522 L-39.625 1520 L-39 1517.5 L-39.5 1517 L-41 1518.5 L-41.5 1520 L-42.5 1522 L-43 1523.5 L-44.5 1525 L-46.75 1524.75 L-46.375 1522 L-43.5 1516 L-40.5 1511 L-40.25 1509.25 L-41.75 1508.75 L-42 1443.5 L-41 1442.5 L-41.5 1442 L-47 1443.5 L-50.5 1444 L-52.5 1446 L-53.5 1446 L-59 1451.5 L-60.375 1456 L-59 1501 L-60 1500.5 L-61.125 1454 L-60.5 1452 L-57.75 1447.25 L-56 1446 L-55.5 1446 L-55 1445.5 L-55 1445 L-53.5 1445 L-52 1443.5 L-52 1443 L-48.5 1443 L-48 1442.5 L-48 1442 L-44.5 1442 L-44 1441.5 L-44 1441 L-41.5 1441 L-41 1440.5 L-41.5 1440 L-44 1440 L-43.75 1439.13 L-38.25 1439.13 L-38.5 1443 L-39.125 1446 L-39 1498.5 L-37.5 1500 L-37 1499.5 L-36.5 1498 L-35 1495.5 L-32.5 1492 L-31 1489.5 L-29 1487.5 L-28.75 1485.25 L-27.5 1485 L-26.5 1486 L-23.5 1483 L-22.25 1482.75 L-22.25 1481 L-32.5 1482 L-34 1480.5 L-33.75 1479.25 L-31.5 1479 L-30.5 1478 L-29.5 1479 L-20.5 1479 L-18.5 1477 L-17.5 1477 L-15.5 1479 L-14.5 1478 L-12.5 1480 L-6.5 1480 L-5.5 1481 L-4.5 1480 L-3.5 1480 L-1.5 1478 L0.5 1478 L2.5 1480 L4 1479.63 L7.5 1479 L8.5 1478 L9.5 1479 L19.75 1479 L19.875 1481 L19 1546 L18 1545.5 L17 1481.13 L9.5 1481 L8.5 1482 L7.5 1481 L4 1481.5 L-0.75 1483.25 L-1.5 1485 L-19.5 1516 L-20 1517.5 L-19.5 1518 L-15 1513.5 L-14 1512 L-13.5 1513 L-13 1512 L-12.5 1512 L-12 1511.5 L-12 1511 L-11.5 1511 L-11 1510.5 L-11 1510 L-10.5 1510 L-10 1509.5 L-10 1509 L-9.5 1509 L-9 1508.5 L-9 1508 L-8.5 1508 L-8 1507.5 L-8 1507 L-7.5 1507 L-7 1506.5 L-7 1506 L-6.5 1506 L-6 1505.5 L-6 1505 L-5.5 1505 L-5 1504.5 L-5 1504 L-4.5 1504 L-4 1503.5 L-4 1503 L-3.5 1503 L-3 1502.5 L-3 1502 L-2.5 1502 L-2 1501.5 L-2 1501 L-1.5 1501 L-1 1500.5 L-1 1500 L-0.5 1500 L0 1499.5 L0 1499 L1.5 1499 L3 1497.5 L2.5 1497 L1 1497 L1 1496.5 L2.5 1495 L3.5 1495 L5.5 1493 L7 1494.5 L7 1495.5 L-0.5 1503 L-1.5 1503 L-3 1504.5 L-3 1505.5 L-9.5 1512 L-10.5 1512 L-13 1514.5 L-13 1517 L-13.5 1517 L-14 1517.5 L-14 1518 L-14.5 1518 L-15 1518.5 L-15 1519 L-16.5 1519 L-19 1521.5 L-18.5 1522 L-17 1522 L-21.5 1527 L-22.5 1526 L-25 1528.5 L-25 1530 L-26 1530.5 L-25.5 1531 L-25 1531 M-7 1531 L-7 1530 L-8 1530 L-8 1531 L-7 1531 M-19 1533 L-19 1532 L-20 1532 L-20 1533 L-19 1533 M-20 1534 L-20 1533 L-21 1533 L-21 1534 L-20 1534 M-21 1535 L-21 1534 L-22 1534 L-22 1535 L-21 1535 M-10 1535 L-10 1534 L-11 1534 L-11 1535 L-10 1535 M-3 1535 L-3 1534 L-4 1534 L-4 1535 L-3 1535 M-11 1536 L-11 1535 L-12 1535 L-12 1536 L-11 1536 M-4 1536 L-4 1535 L-5 1535 L-5 1536 L-4 1536 M-12 1537 L-12 1536 L-13 1536 L-13 1537 L-12 1537 M-5 1538 L-5 1537 L-6 1537 L-6 1538 L-5 1538 M-14 1540 L-14 1538.5 L-15 1538 L-15 1539 L-14 1540 M-17 1544 L-17 1543 L-18 1543 L-18 1544 L-17 1544 M-19 1547 L-19 1546 L-20 1546 L-20 1547 L-19 1547 "></path>
<path d="M168.5 1545 L170.5 1543 L173.5 1544 L175.5 1542 L176.5 1543 L180.5 1542 L181.5 1541 L182.5 1542 L184.5 1540 L185.5 1541 L186.5 1540 L188.75 1539.75 L189 1538.5 L189.5 1538 L190.5 1539 L191.75 1538.75 L192 1537.5 L192.5 1537 L193.5 1538 L194.75 1537.75 L195 1536.5 L195.5 1536 L196.5 1537 L197.75 1536.75 L198 1535.5 L198.5 1535 L199.5 1536 L200.75 1535.75 L201 1534.5 L201.5 1534 L202.5 1535 L204 1534.63 L211 1531.5 L212.5 1531 L213 1530.5 L212 1529.5 L212 1507.13 L205.5 1507 L204 1505.5 L204 1504.5 L205.5 1503 L207.5 1505 L210.5 1505 L212 1503.5 L208.375 1443 L207.375 1438 L206.375 1435 L204.5 1431 L204 1429.5 L203 1428.5 L204 1427.5 L202.5 1426 L201 1425.5 L197 1423.5 L193.5 1421 L178.5 1408 L173.5 1403 L170.25 1403.25 L168.375 1408 L161.5 1421 L157.5 1431 L156.875 1433 L155 1472.5 L156 1473 L156 1464.5 L157 1464 L158.125 1485.75 L168 1485.25 L171.5 1484 L172.5 1485 L174.5 1483 L176 1483.38 L179 1483.5 L182 1482.38 L184 1482.38 L186.5 1483 L188.5 1481 L189.5 1482 L190.5 1482 L192.5 1480 L193.5 1481 L197.5 1479 L198.5 1480 L199.5 1479 L201 1480.5 L199.5 1482 L188 1484.5 L170 1487.38 L159.5 1488 L158 1489.5 L161 1544.5 L161.5 1545 L162.5 1544 L168.5 1545 M214 1418 L214 1417 L213 1417 L213 1418 L214 1418 M222.5 1418 L223 1417 L220.5 1417 L220 1418 L222.5 1418 M213 1419 L213 1418 L212 1418 L212 1419 L213 1419 M213 1429 L213 1423.5 L212 1423 L212 1428.5 L213 1429 M210.5 1429 L211 1428 L209.5 1428 L209 1429 L210.5 1429 M240.5 1418 L241 1417 L238.5 1417 L238 1418 L240.5 1418 M157 1486 L157 1481.5 L156 1481 L156 1485.5 L157 1486 M170.75 1590.75 L171 1589.5 L171.5 1589 L172.5 1590 L173.5 1589 L176 1588.38 L186 1583.5 L187.75 1582.75 L188 1581.5 L188.5 1581 L189.5 1582 L190.5 1581 L192.75 1580.75 L193 1579.5 L193.5 1579 L194.5 1580 L195.75 1579.75 L196 1578.5 L196.5 1578 L197.5 1579 L198.75 1578.75 L199 1577.5 L199.5 1577 L200.5 1578 L204.5 1577 L206.5 1575 L207.5 1576 L208.5 1576 L210.5 1574 L211.5 1575 L213 1574.75 L213 1554.5 L210 1551.5 L210 1548.5 L210.5 1548 L212 1549.5 L212 1550.5 L213 1551 L213 1533.5 L212.5 1533 L211.5 1534 L209 1534.63 L205 1536.38 L182 1544.25 L171 1546.38 L161 1547 L163.125 1589.88 L170.75 1590.75 M168.5 1633 L172 1630.5 L188.75 1615.75 L189 1614.5 L189.5 1614 L190.5 1615 L192 1613.5 L192.25 1612.25 L193.5 1612 L194.5 1611 L195.5 1612 L196 1611.5 L196 1610.5 L196.5 1610 L197.5 1611 L203 1611.75 L205 1612.5 L209.5 1615 L210 1615.5 L209 1616.5 L210.5 1618 L211 1617.5 L213 1577.25 L210 1577.5 L194 1582.5 L174 1591.5 L172 1592.25 L163.125 1593 L165 1634.75 L168.5 1633 M208.5 1643 L209 1642.5 L209.5 1634 L210.75 1624 L210 1621.5 L208 1618.5 L207 1616.5 L204.5 1614 L197.25 1613.13 L197 1615.5 L199.5 1618 L200.75 1618.25 L206.5 1639 L207 1641.5 L208.5 1643 M174.75 1658.88 L180.5 1636 L181 1633.5 L182.5 1632 L183.5 1633 L184.75 1633.25 L187.375 1639 L190.5 1648 L191 1650.5 L192 1651 L194 1617.5 L192.5 1616 L191.5 1617 L190 1617.5 L174.5 1631 L172 1632.5 L170.5 1633 L166 1637.5 L168.125 1658.88 L174.75 1658.88 M198 1623 L198 1621.5 L197 1621 L197 1622 L198 1623 M200 1653.25 L201.75 1652.75 L199.5 1638 L199.625 1634 L200 1632.5 L199.5 1632 L198.5 1633 L198 1632.5 L197 1623.5 L196 1623 L195 1653.88 L200 1653.25 M216 1625 L216.5 1626 L217.5 1626 L218.5 1625 L219.5 1626 L220.5 1626 L222 1624.5 L222.5 1623 L223.5 1621 L224 1619.5 L226.5 1617 L229.5 1617 L232 1619.5 L231.5 1620 L227.5 1618 L225 1620.5 L224.5 1622 L223.5 1624 L223 1625.5 L220.5 1628 L216 1627.25 L214 1626.5 L212.125 1626.25 L212.75 1632 L212.625 1634 L211.75 1637 L211 1647.5 L212.5 1649 L214 1648.5 L223 1644.38 L224.5 1644 L225 1643.5 L224 1642.5 L224 1639.5 L223 1638.5 L224 1637.5 L224.625 1630 L226.125 1621.25 L227.5 1621 L229 1622.5 L230 1631.5 L228.5 1633 L227.5 1633 L226.5 1632 L226 1632.5 L226 1636.5 L227 1637.5 L226 1638.5 L227 1639.5 L227 1641.5 L226 1642.5 L226.5 1643 L228 1642.5 L232.5 1640 L248 1624.5 L252 1618.5 L254.5 1616 L255 1616.5 L254 1618.5 L251.5 1622 L244 1631.5 L233.5 1642 L229.5 1644 L227.5 1646 L225 1646.63 L223 1647.5 L221.5 1648 L220.5 1649 L219.5 1648 L219 1648.5 L219 1649.5 L218.5 1650 L217.5 1649 L216.5 1650 L215 1650.5 L208.25 1653.25 L208 1654.5 L207.5 1655 L206.5 1654 L205.25 1654.25 L205 1655.5 L204.5 1656 L203.5 1655 L201.25 1655.25 L201 1656.5 L200.5 1657 L199.5 1656 L195.5 1656 L192.5 1659 L192 1658.5 L191.75 1657.25 L188 1657.63 L186 1658.38 L179.5 1660 L176.5 1663 L174.5 1661 L173 1661.25 L168 1662.75 L166.5 1663 L165 1661.5 L166 1660.5 L163.875 1639.25 L162.5 1639 L162 1638.5 L163 1637.5 L160 1592.5 L159 1591.5 L160 1590.5 L157.125 1546 L157.875 1542 L155 1489.5 L153.5 1488 L151.5 1488 L150 1486.5 L151.5 1485 L153 1485.5 L154.875 1485.75 L153 1440 L152 1440.5 L151.75 1441.75 L150.5 1442 L148 1439.5 L149.5 1438 L151.75 1437.75 L152.25 1436 L152.625 1431 L145.125 1366 L145.5 1364 L146 1362.5 L146 1362 L147 1362.5 L147.375 1364 L148.5 1367 L148.75 1376 L149 1377.5 L150 1378.5 L149 1379.5 L150 1383.5 L151 1384.5 L150 1385.5 L150.625 1388 L151.5 1390 L151.625 1396 L152.5 1398 L152.5 1404 L153.5 1407 L153.5 1415 L154.5 1418 L154.375 1425 L155 1429.5 L155 1430 L156 1429.5 L156 1428.5 L157 1427.5 L156 1426.5 L158 1424.5 L157 1423.5 L159 1421.5 L158 1420.5 L158.5 1420 L159.5 1420 L160 1419.5 L159 1418.5 L159.5 1418 L160.5 1418 L161 1417.5 L160 1416.5 L160.5 1416 L161.75 1415.75 L162 1414.5 L164 1412.5 L163 1411.5 L163.5 1411 L164.5 1411 L165 1410.5 L164 1409.5 L164.5 1409 L165.5 1409 L166 1408.5 L165 1407.5 L165.5 1407 L166.75 1406.75 L167 1404.5 L168 1403.5 L167 1402.5 L167.5 1402 L168.5 1402 L171.5 1399 L172 1399.5 L172.25 1400.75 L174.5 1401 L179 1405 L179.5 1406 L180 1405 L183 1407.5 L183 1408.5 L185.5 1411 L186.75 1411.25 L187 1412.5 L189 1414 L189 1414.5 L189.5 1415 L190 1415 L191.5 1417 L192.5 1416 L194 1418 L193 1418.5 L193.5 1419 L194 1419 L194 1419.5 L194.5 1420 L195 1420 L196.5 1422 L198 1422.5 L202 1424.5 L203.5 1425 L205.5 1427 L207 1427 L208.5 1428 L209 1427 L210.75 1426.75 L212 1421.5 L211.5 1421 L210.5 1422 L210 1421.5 L210 1420.5 L209 1419.5 L211.5 1417 L215 1416 L215.5 1417 L216 1416 L244.75 1416 L244.5 1414 L234.5 1397 L232.5 1392 L231.625 1388 L231.125 1380.25 L232.5 1380 L234 1381.5 L233 1382.5 L233.5 1385 L235.625 1392 L236.375 1394 L237 1396.5 L239 1398.5 L239.5 1400 L246.5 1412 L247 1413.5 L248.5 1415 L270 1415 L259.5 1415 L259 1415.5 L259.5 1416 L270 1416 L269.5 1417 L250.25 1418.13 L251 1420.5 L252.5 1423 L255.5 1430 L269.5 1461 L273.5 1476 L279 1513.5 L279 1514 L278 1513.5 L276.5 1501 L268.5 1465 L262.5 1450 L255.5 1435 L255 1433.5 L253 1431.5 L252.375 1429 L248.5 1421 L248 1419.5 L246.5 1418 L245.5 1419 L214.5 1419 L213 1420.5 L214 1421.5 L214 1429.5 L212.5 1431 L210 1430.38 L208 1429.5 L206.5 1429 L206 1429.5 L207 1430.5 L207.5 1432 L209.5 1436 L210 1437.5 L211 1438.5 L210 1439.5 L210 1441.5 L212 1443.5 L211.5 1445 L211.25 1447 L212.75 1452 L213 1453.5 L214.5 1455 L215.5 1455 L217.5 1457 L233 1459.5 L251 1459.38 L252.5 1459 L253.5 1460 L255.5 1458 L256.5 1459 L257.5 1458 L258 1458.5 L257.75 1460.75 L233 1462.5 L223 1461.38 L219 1460.38 L215 1458.5 L213.25 1458.25 L212.125 1464 L215 1503.5 L216.5 1505 L225 1504.38 L229 1503.5 L235 1503.63 L238 1502.5 L243 1502.63 L246 1501.5 L248.5 1501 L249.5 1502 L250.5 1501 L253 1500.5 L260 1500.5 L263 1499.63 L274.75 1500.13 L274.75 1502 L215 1507 L216 1553.5 L216.5 1554 L217.5 1553 L219.5 1555 L220.5 1554 L221.5 1555 L223.5 1555 L224.5 1556 L225.5 1555 L263 1555.25 L264.5 1555 L265.5 1554 L266 1554.5 L266 1555.5 L267 1556.5 L266.5 1557 L229 1558.38 L217.5 1557 L216.5 1556 L216 1556.5 L216 1573.88 L220.5 1574 L221 1574.5 L219.5 1576 L216 1576.25 L215 1611.5 L217 1613.5 L217 1614.5 L221 1618.5 L221 1620.5 L222 1621.5 L221.5 1622 L220.25 1621.75 L220 1620.5 L217.5 1618 L216.5 1618 L216 1617.5 L217 1616.5 L215.5 1615 L214.125 1615.25 L215 1623 L214 1623.5 L214.5 1624 L215 1624 L215 1624.5 L215.5 1625 L216 1625 M199 1628 L199 1625.5 L198 1625 L198 1627.5 L199 1628 M201 1628 L201 1625.5 L200 1625 L200 1627.5 L201 1628 M195 1628 L195 1627 L194 1627 L194 1628 L195 1628 M202 1632 L202 1629.5 L201 1629 L201 1631.5 L202 1632 M204 1639 L204 1637.5 L203 1637 L203 1638 L204 1639 M182 1657.5 L187 1655.63 L189.5 1655 L190 1654.5 L189 1653.5 L184.375 1640 L184 1638.5 L183 1638 L183 1638.5 L179.5 1653 L179.125 1657.75 L182 1657.5 M202 1641 L202 1639.5 L201 1639 L201 1640 L202 1641 M207 1651.5 L208.75 1650.75 L208.625 1649 L207.75 1646.25 L206.5 1646 L206 1645.5 L207 1644.5 L206 1643.5 L204.75 1640.25 L203.25 1640.25 L203.25 1642 L204.5 1647 L205.125 1651.75 L207 1651.5 M203 1648 L203 1644.5 L202 1644 L202 1647.5 L203 1648 M204 1652 L204 1648.5 L203 1648 L203 1651.5 L204 1652 M212 1650 L212 1649 L211 1649 L211 1650 L212 1650 M228 1630 L228 1627.5 L227 1627 L227 1629.5 L228 1630 "></path>
<path d="M7 1385 L6 1384.5 L6 1382 L7 1382.5 L7 1385 "></path>
<path d="M8 1377 L7 1376.5 L7 1374 L8 1374.5 L8 1377 "></path>
<path d="M9 1372 L8 1371 L8 1370 L9 1370.5 L9 1372 "></path>
<path d="M10 1368 L9 1367.5 L9 1365 L10 1365.5 L10 1368 "></path>
<path d="M23 1337 L22 1337 L22 1336 L23 1336 L23 1337 "></path>
<path d="M34 1328 L34 1327.5 L34.5 1327 L35 1327 L35 1328 L34 1328 "></path>
<path d="M-1 1334 L-1 1332.5 L-0.5 1332 L0 1332 L0 1334 L-1 1334 "></path>
<path d="M-2 1332 L-3 1332 L-3 1331 L-2 1331 L-2 1332 "></path>
<path d="M0 1332 L0 1330.5 L0.5 1330 L1 1330 L1 1332 L0 1332 "></path>
<path d="M24 1332 L23 1331.5 L23 1329 L24 1329.5 L24 1332 "></path>
<path d="M-1 1330 L-2 1330 L-2 1329 L-1 1329 L-1 1330 "></path>
<path d="M34 1329 L33 1329 L33 1328.5 L33.5 1328 L34 1328 L34 1329 "></path>
<path d="M1 1330 L1 1328.5 L1.5 1328 L2 1328 L2 1329.5 L1.5 1330 L1 1330 "></path>
<path d="M0 1328 L-1 1328 L-1 1327 L0 1327 L0 1328 "></path>
<path d="M1 1326 L0 1326 L0 1325 L1 1325 L1 1326 "></path>
<path d="M2 1324 L1 1324 L1 1323 L2 1323 L2 1324 "></path>
<path d="M2 1328 L2.625 1325 L3.5 1323 L5 1321 L4.375 1324 L3.5 1326 L3 1327.5 L2 1328 "></path>
<path d="M25 1325 L24 1324.5 L24 1319 L25 1319.5 L25 1325 "></path>
<path d="M-19 1308 L-19 1307 L-18 1307 L-18 1308 L-19 1308 "></path>
<path d="M-16 1305 L-16 1304.5 L-15.5 1304 L-15 1304 L-15 1305 L-16 1305 "></path>
<path d="M26 1308 L25 1307.5 L25 1303 L26 1303.5 L26 1308 "></path>
<path d="M-15 1304 L-15 1303.5 L-14.5 1303 L-14 1303 L-14 1304 L-15 1304 "></path>
<path d="M-14 1303 L-14 1302.5 L-13.5 1302 L-12 1302 L-12 1303 L-14 1303 "></path>
<path d="M-12 1302 L-12 1301.5 L-11.5 1301 L-11 1301 L-11 1302 L-12 1302 "></path>
<path d="M-72 1317 L-73 1316.5 L-73 1314 L-72 1314.5 L-72 1317 "></path>
<path d="M-73 1298 L-74 1297.5 L-74 1291 L-73 1291.5 L-73 1298 "></path>
<path d="M-73 1290 L-74 1289.5 L-74 1284 L-73 1284.5 L-73 1290 "></path>
<path d="M-109 1315 L-110 1314 L-110 1313 L-109 1313.5 L-109 1315 "></path>
<path d="M-93 1570 L-93 1569 L-94 1569 L-94 1570 L-93 1570 M-92 1573 L-92 1572 L-93 1572 L-93 1573 L-92 1573 M-91 1576 L-91 1575 L-92 1575 L-92 1576 L-91 1576 M-90 1578 L-90 1577 L-91 1577 L-91 1578 L-90 1578 M-89 1581 L-89 1580 L-90 1580 L-90 1581 L-89 1581 M-88 1583 L-88 1582 L-89 1582 L-89 1583 L-88 1583 M-87 1586 L-87 1584.5 L-88 1584 L-88 1585 L-87 1586 M-86 1588 L-86 1587 L-87 1587 L-87 1588 L-86 1588 M-79 1603 L-79 1601.5 L-79.5 1601 L-80 1601 L-80 1599.5 L-80.5 1599 L-81 1599 L-81 1597.5 L-81.5 1597 L-82 1597 L-82 1595.5 L-82.5 1595 L-83 1595 L-83 1593.5 L-83.5 1593 L-84 1593 L-84 1591.5 L-84.5 1591 L-85 1591 L-85 1589.5 L-85.5 1589 L-86 1589.5 L-86 1591 L-86.75 1590.75 L-95.5 1568 L-98.5 1558 L-105.5 1540 L-120.5 1484 L-128.25 1436 L-127.5 1399 L-123.375 1375 L-119 1358.5 L-117 1356.5 L-117 1355.5 L-118 1354.5 L-116 1352.5 L-107.5 1313 L-107 1308 L-106 1308.5 L-106.5 1314 L-116.5 1362 L-121.5 1381 L-126 1413.5 L-127 1414.5 L-126 1415.5 L-126.5 1433 L-126 1435.5 L-125 1436.5 L-126 1437.5 L-126 1440.5 L-124 1442.5 L-125 1443.5 L-124.625 1446 L-123.25 1451 L-123 1452.5 L-122 1453.5 L-123 1454.5 L-122 1457.5 L-121 1458.5 L-122 1459.5 L-121 1463.5 L-120 1464.5 L-121 1465.5 L-119.625 1471 L-117.5 1484 L-110.5 1513 L-101.5 1542 L-90.375 1574 L-84.5 1588 L-76.5 1604 L-76 1605.5 L-76.5 1606 L-78 1605 L-78 1603.5 L-78.5 1603 L-79 1603 "></path>
<path d="M-108 1310 L-109 1309 L-109 1308 L-108 1308.5 L-108 1310 "></path>
<path d="M-105 1308 L-106 1307.5 L-106 1303 L-105 1303.5 L-105 1308 "></path>
<path d="M-107 1306 L-108 1305.5 L-108 1303 L-107 1303.5 L-107 1306 "></path>
<path d="M-104 1303 L-105 1302.5 L-105 1299 L-104 1299.5 L-104 1303 "></path>
<path d="M-106 1301 L-107 1300.5 L-107 1298 L-106 1298.5 L-106 1301 "></path>
<path d="M-103 1298 L-104 1297.5 L-104 1292 L-103 1292.5 L-103 1298 "></path>
<path d="M-105 1297 L-106 1296.5 L-106 1292 L-105 1292.5 L-105 1297 "></path>
<path d="M-102 1292 L-103 1291.5 L-103 1287 L-102 1287.5 L-102 1292 "></path>
<path d="M-104 1291 L-105 1290.5 L-105 1285 L-104 1285.5 L-104 1291 "></path>
<path d="M-101 1285 L-102 1284.5 L-102 1281 L-101 1281.5 L-101 1285 "></path>
<path d="M-103 1285 L-104 1284.5 L-104 1279 L-103 1279.5 L-103 1285 "></path>
<path d="M-100 1279 L-101 1278.5 L-101 1275 L-100 1275.5 L-100 1279 "></path>
<path d="M-102 1279 L-103 1278.5 L-103 1273 L-102 1273.5 L-102 1279 "></path>
<path d="M-99 1273 L-100 1272.5 L-100 1270 L-99 1270.5 L-99 1273 "></path>
<path d="M-153.25 1671.75 L-156.5 1672 L-157.5 1671 L-159.5 1673 L-160.5 1673 L-161.5 1672 L-162.5 1673 L-168 1674.38 L-177 1675.75 L-182 1675.38 L-188 1676.5 L-194 1676.5 L-200 1675.25 L-209 1671.5 L-211 1670.5 L-218.5 1665 L-222 1661.5 L-223.5 1659 L-229.25 1651.25 L-230.5 1651 L-232 1649.5 L-236 1643.5 L-237.5 1642 L-239.5 1641 L-245.5 1637 L-248 1635.63 L-253 1633.5 L-262 1629.5 L-272 1626.63 L-279 1625.75 L-311 1626.5 L-328 1630.63 L-333 1632.5 L-337 1633.63 L-343 1636.38 L-345.5 1637 L-347.5 1639 L-349 1639.5 L-356 1642.5 L-361.5 1646 L-385.5 1666 L-389 1668.5 L-390.5 1669 L-398 1676.5 L-399.5 1679 L-402.5 1683 L-404 1685.5 L-418.5 1700 L-423 1702.38 L-426 1702.38 L-428 1701.75 L-426 1661.5 L-425 1660.5 L-426 1659.5 L-419.5 1483 L-417.5 1470 L-411.5 1442 L-402.5 1419 L-395.5 1405 L-373.5 1375 L-372 1372.5 L-358.5 1359 L-357.5 1359 L-356 1357.5 L-356 1356.5 L-354.5 1355 L-351 1352.5 L-341.5 1345 L-324 1333.5 L-310.5 1324 L-278 1305.63 L-268.25 1301.75 L-268 1300.5 L-267.5 1300 L-266.5 1301 L-265.5 1300 L-264 1299.5 L-252 1294.63 L-249.5 1294 L-249 1294.5 L-250.5 1296 L-252 1296.38 L-257 1298.5 L-306.5 1325 L-319 1333.5 L-326.5 1339 L-340.5 1348 L-357.5 1362 L-369 1373.5 L-370.5 1376 L-392.5 1406 L-407.375 1439 L-417.5 1492 L-423 1659.5 L-422 1660.5 L-423 1661.5 L-424.875 1698.75 L-422.5 1698 L-410.5 1688 L-409 1686.5 L-407 1683.5 L-404 1679.5 L-402 1676.5 L-401 1674.5 L-393.5 1667 L-391.5 1666 L-388.5 1664 L-361.5 1642 L-358.5 1640 L-356 1638.63 L-349.5 1636 L-347.5 1634 L-345 1633.38 L-339 1630.63 L-313 1623.63 L-278 1622.75 L-271 1623.63 L-256 1628.63 L-246 1633.5 L-236.5 1639 L-233 1642.5 L-220 1658.5 L-219 1660.5 L-217.5 1662 L-215 1663.5 L-211 1666.5 L-208 1668.5 L-202 1671.38 L-199 1672.38 L-194 1673.5 L-188 1673.5 L-179.5 1672 L-178.5 1673 L-177.5 1672 L-168 1671.38 L-150 1667.38 L-144 1667.5 L-140 1666.5 L-133.5 1664 L-132 1662.5 L-131.75 1659.25 L-130.5 1659 L-129.5 1658 L-128 1659.5 L-128.5 1660 L-129.75 1660.25 L-130.375 1662 L-131.25 1665.75 L-132.5 1666 L-133.5 1667 L-134.5 1666 L-135.5 1667 L-137 1667.38 L-140 1668.5 L-143 1669.38 L-147.5 1670 L-148.5 1671 L-149.5 1670 L-150.5 1671 L-151.5 1671 L-152.5 1670 L-153 1670.5 L-153.25 1671.75 "></path>
<path d="M-72 1267 L-73 1266.5 L-73 1256 L-72 1256.5 L-72 1267 "></path>
<path d="M-71 1254 L-71.75 1253.75 L-71 1251 L-71 1254 "></path>
<path d="M-71 1251 L-71 1250.5 L-70.5 1250 L-70 1250 L-70 1251 L-71 1251 "></path>
<path d="M-70 1250 L-70 1249.5 L-69.5 1249 L-69 1250 L-70 1250 "></path>
<path d="M-61 1249 L-62 1249 L-62 1248 L-61 1248 L-61 1249 "></path>
<path d="M-63.5 1249 L-69 1249 L-68.5 1248 L-63 1248 L-63.5 1249 "></path>
<path d="M-48 1248 L-49.5 1248 L-50 1247.5 L-49.5 1247 L-48 1247 L-48 1248 "></path>
<path d="M-34 1244 L-34 1243 L-35 1243 L-35 1244 L-34 1244 M-37 1245 L-37 1244 L-38 1244 L-38 1245 L-37 1245 M-40 1246 L-40 1245 L-41 1245 L-41 1246 L-40 1246 M-29.5 1343 L-11.5 1311 L-11 1309.5 L-11.5 1309 L-16 1313.5 L-23.5 1323 L-29 1330.5 L-31.5 1335 L-32.125 1337 L-33 1348.5 L-32 1349 L-32 1348.5 L-31.5 1347 L-29.5 1343 M-15 1305 L-14.5 1305 L-14 1304.5 L-14 1304 L-12.5 1304 L-12 1303.5 L-12 1303 L-11.5 1303 L-11 1302.5 L-11 1302 L-8.5 1302 L-8 1301.5 L-8.5 1301 L-11 1301 L-3.25 1300.13 L-4 1302.5 L-5 1304.5 L-7 1306.5 L-7.625 1310 L-8.5 1312 L-18.5 1329 L-19 1330.5 L-18.5 1331 L-16 1328.5 L-14.5 1326 L-7.5 1316 L-4.5 1310 L-1.75 1303.25 L0.75 1303.25 L0.75 1305.75 L-0.5 1306 L-1 1306.5 L0.5 1308 L6 1304.63 L8.75 1304.25 L9 1306.5 L8 1307.5 L9 1308.5 L8 1309.5 L7 1313.5 L8 1314.5 L7 1315.5 L7 1316.5 L9 1318.5 L8 1319.5 L8 1320.5 L8.5 1321 L10.5 1319 L11.75 1319.25 L11.375 1322 L11 1323.5 L10 1324.5 L11 1325.5 L10.5 1328 L4.5 1341 L4 1342.5 L4.5 1343 L6 1341.5 L6.5 1340 L9.5 1335 L10 1333.5 L12 1331.5 L12 1328.5 L15.5 1325 L16 1325.5 L16 1326.5 L17 1327.5 L16 1328.5 L14 1337.5 L15 1338 L15 1337.5 L15.375 1336 L16 1332.5 L17.5 1331 L19.5 1331 L20.5 1332 L21 1331.5 L22.125 1294 L21.75 1292.25 L20.25 1291.75 L19.75 1290.25 L18 1290.13 L-33.5 1294 L-35 1295.5 L-33 1321.5 L-32 1322 L-32 1321.5 L-31.5 1320 L-24.5 1308 L-22.5 1305 L-19.5 1301 L-17.75 1298.25 L-16.5 1298 L-15 1299.5 L-16 1302.5 L-18 1304.5 L-17.5 1305 L-16 1305 L-15.5 1306 L-15 1305 M-12 1306 L-12 1305 L-13 1305 L-13 1306 L-12 1306 M-16 1307 L-16 1306 L-17 1306 L-17 1307 L-16 1307 M-13 1307 L-13 1306 L-14 1306 L-14 1307 L-13 1307 M-14 1308 L-14 1307 L-15 1307 L-15 1308 L-14 1308 M-18 1308 L-17 1307.5 L-18 1307 L-18.5 1306 L-19 1306.5 L-19 1307 L-20 1307.5 L-19.5 1308 L-19 1308 L-18.5 1309 L-18 1308 M-15 1309 L-15 1308 L-16 1308 L-16 1309 L-15 1309 M-1.5 1310 L0 1308.5 L-0.5 1308 L-1.75 1308.75 L-1.5 1310 M4.5 1310 L6 1308.5 L5.5 1308 L4.25 1308.75 L4.5 1310 M-16 1310 L-16 1309 L-17 1309 L-17 1310 L-16 1310 M-17 1311 L-17 1310 L-18 1310 L-18 1311 L-17 1311 M-2 1311 L-2 1310 L-3 1310 L-3 1311 L-2 1311 M4 1311 L4 1310 L3 1310 L3 1311 L4 1311 M-22 1312 L-22 1311 L-23 1311 L-23 1312 L-22 1312 M-20 1312 L-20 1311 L-21 1311 L-21 1312 L-20 1312 M-18 1312 L-18 1311 L-19 1311 L-19 1312 L-18 1312 M-26 1317 L-26 1316 L-27 1316 L-27 1317 L-26 1317 M-4 1318 L-4 1317 L-5 1317 L-5 1318 L-4 1318 M-5 1319 L-5 1318 L-6 1318 L-6 1319 L-5 1319 M-1 1320 L-1 1319 L-2 1319 L-2 1320 L-1 1320 M-6 1321 L-6 1320 L-7 1320 L-7 1321 L-6 1321 M-5 1325 L-5 1324 L-6 1324 L-6 1325 L-5 1325 M-20.5 1334 L-19 1332.5 L-19 1331.5 L-19.5 1331 L-21 1333 L-20.5 1334 M5 1335 L5 1333.5 L4 1333 L4 1334 L5 1335 M42 1323 L42 1322 L41 1322 L41 1323 L42 1323 M35 1328 L36 1327.5 L35 1327 L35 1326.5 L40.5 1321 L42.5 1320 L48 1316.5 L64 1307.63 L68 1306.75 L86 1306.75 L96.5 1308 L98.5 1310 L100.5 1311 L104.5 1314 L107.5 1316 L114 1322.5 L114.5 1324 L118.5 1333 L121.5 1344 L122.25 1349 L122.25 1369 L120.5 1381 L118 1390.5 L116 1392.5 L115 1394.5 L112.5 1398 L111 1400.5 L103.5 1408 L100.5 1410 L92.5 1416 L83 1421.5 L81.5 1422 L78.5 1425 L71.5 1425 L70.5 1426 L69.5 1425 L67.25 1424.75 L67.25 1423.25 L68.5 1423 L69.5 1424 L70.5 1423 L73.5 1423 L74.5 1422 L75.5 1423 L78.5 1420 L79.5 1421 L80 1420.5 L80.25 1419.25 L81.5 1419 L82.5 1418 L83.5 1419 L84 1418.5 L84 1417.5 L84.5 1417 L85.5 1418 L87.5 1416 L88.75 1415.75 L89 1414.5 L89.5 1414 L90.5 1415 L92.5 1413 L93.5 1413 L96 1410.5 L96 1409.5 L96.5 1409 L97.5 1410 L101.5 1406 L102.5 1406 L109 1399.5 L111 1396.5 L114 1392.5 L115.5 1390 L116.375 1388 L118.5 1380 L120.375 1367 L120.25 1351 L119.5 1346 L116.5 1336 L113.375 1328 L111 1323.5 L106.5 1319 L105 1318.5 L96 1311.75 L91 1310.5 L81.5 1309 L80.5 1310 L79.5 1309 L68 1309.75 L65 1310.63 L47 1320.5 L41.5 1324 L25 1340.5 L23.5 1343 L21 1346.5 L19.625 1349 L19 1351.5 L17 1353.5 L18 1354.5 L17 1355.5 L14.625 1360 L11.5 1370 L9.375 1382 L10.75 1399 L11.625 1403 L16 1413.5 L17 1414.5 L15.5 1416 L-3 1417.75 L-10.5 1417 L-11.5 1418 L-12.5 1417 L-33.5 1416 L-34 1416.5 L-33 1417.5 L-33.5 1418 L-34.5 1418 L-37 1415.5 L-35.5 1414 L-33.5 1414 L-32.5 1413 L-31.5 1414 L-24.5 1414 L-23.5 1413 L-23 1413.5 L-22.75 1414.88 L-18.5 1415 L-17.5 1414 L-16.5 1415 L-13.5 1415 L-12.5 1414 L-11.5 1415 L-10.5 1414 L6 1414.13 L11.75 1414.75 L12 1412.5 L13 1411.5 L12 1410.5 L11.75 1408.25 L10.5 1408 L10 1407.5 L11 1406.5 L10.5 1406 L9.5 1406 L9 1405.5 L10 1404.5 L9.75 1403.25 L8.5 1403 L8 1402.5 L9 1401.5 L8.75 1399.25 L7.5 1399 L7 1398.5 L8 1397.5 L8.75 1379 L10.5 1369 L12 1363.5 L11.5 1363 L10.5 1364 L9 1364.38 L6 1365.5 L3.25 1366.25 L2.75 1367.75 L-2.75 1367.25 L-3 1369.5 L-3.5 1370 L-4.5 1369 L-32.75 1370 L-33.625 1373 L-35.625 1378 L-38 1382.5 L-40.5 1385 L-49 1389.38 L-52 1390.38 L-57 1391.5 L-70.5 1391 L-72 1389.5 L-72 1386 L-71 1386.5 L-70.75 1388 L-62.25 1388 L-61.75 1389.75 L-58 1389.5 L-50.25 1387.75 L-50 1386.5 L-49.5 1386 L-48.5 1387 L-46.5 1386 L-43.5 1384 L-41.5 1383 L-39 1380.5 L-39 1379.5 L-37 1377.5 L-36.5 1375 L-35.375 1372 L-35 1370.5 L-35.5 1370 L-36.5 1371 L-41.75 1370.88 L-42 1368.5 L-40.5 1367 L-39.5 1368 L-35.5 1367 L-34 1365.5 L-34.25 1362.25 L-35.5 1362 L-37 1360.5 L-35.875 1356 L-35 1339.25 L-36.5 1339 L-38 1337.5 L-37 1336.5 L-35.625 1329 L-35.625 1319 L-37.25 1308 L-34.5 1259 L-32 1244.5 L-32.5 1244 L-33.5 1245 L-35 1245.38 L-50 1250.25 L-60.5 1252 L-61.5 1251 L-62.5 1252 L-63.5 1251 L-67.5 1251 L-69 1252.5 L-67 1375.5 L-65 1377.5 L-65.5 1378 L-66.5 1378 L-67 1378.5 L-66 1379.5 L-66.125 1384.75 L-67.5 1385 L-69 1383.5 L-69 1380.5 L-70 1379.5 L-69 1378.5 L-69 1370.5 L-71 1368.5 L-70 1367.5 L-70 1360.5 L-72 1358.5 L-71 1254 L-70.5 1254 L-70 1253.5 L-70 1251 L-69.5 1251 L-69 1250.5 L-69 1250 L-52 1250 L-52.5 1249 L-59 1249 L-58.5 1248 L-51 1248.75 L-48 1248 L-47 1247.5 L-48 1247 L-47.75 1246.25 L-46 1246.38 L-43.5 1247 L-43 1247 L-43.5 1246 L-45 1246 L-44.5 1245 L-42 1244.5 L-33 1241.5 L-29.125 1241.25 L-34.75 1290.75 L-27.5 1292 L-25.5 1290 L-24.5 1291 L-21.5 1291 L-20.5 1290 L-19.5 1291 L-18.25 1290.75 L-17.75 1289.25 L-15 1289.63 L-13 1290.25 L-5.25 1290.88 L-4.75 1289.25 L4.5 1290 L6.5 1288 L16.75 1288.88 L17 1287.5 L17.5 1287 L18.5 1288 L19.5 1287 L21 1288.5 L21 1289.5 L21.5 1290 L22.5 1289 L23 1289.5 L24.25 1293.75 L25.5 1294 L26 1294.5 L25 1295.5 L21.125 1338.75 L22.5 1339 L33 1329 L33.5 1330 L34 1329 L34.5 1329 L35 1328.5 L35 1328 M-21 1336 L-21 1334.5 L-22 1334 L-22 1335 L-21 1336 M0 1334 L0.5 1334 L1 1333.5 L1 1332 L3 1330.5 L5.25 1326 L6 1321.5 L5 1321 L5 1317.5 L4.5 1317 L4 1317.5 L3.75 1318.75 L2.5 1319 L2 1319.5 L3 1320.5 L3 1321.5 L2.5 1322 L1.5 1321 L-1 1323.5 L-15 1341.5 L-20.5 1350 L-21.375 1352 L-23 1358.5 L-25.5 1361 L-26.5 1361 L-28 1359.5 L-27.375 1356 L-26.5 1354 L-10 1328.5 L-9 1326.5 L-8 1325.5 L-9 1324.5 L-9 1323.5 L-9.5 1323 L-11 1324.5 L-10 1325.5 L-10.5 1326 L-11.5 1326 L-14 1328.5 L-15 1330.5 L-20.5 1338 L-29 1350.5 L-31.5 1355 L-32 1356.5 L-31 1357.5 L-32 1358.5 L-32 1365.5 L-33 1366.5 L-32.5 1367 L-18.5 1366 L-17 1364.5 L-14.375 1358 L-2.5 1336 L-1.75 1334.25 L-1 1334 L-0.5 1335 L0 1334 M20 1335 L20 1334 L19 1334 L19 1335 L20 1335 M-8.25 1360.75 L-7.5 1359 L3.5 1337 L4 1335.5 L3.5 1335 L1 1337.5 L-8 1352.5 L-10 1354.5 L-11 1359.5 L-9.5 1361 L-8.25 1360.75 M-22 1337 L-22 1336 L-23 1336 L-23 1337 L-22 1337 M14 1340 L14 1338.5 L13 1338 L13 1339 L14 1340 M7.5 1362 L9.5 1360 L10.5 1360 L12 1358.5 L12.5 1357 L13.5 1355 L16.375 1348 L17.5 1344 L18.625 1341 L18.75 1339.25 L17.25 1339.25 L16.5 1341 L6.5 1359 L6 1360.5 L5 1361.5 L5.5 1362 L7.5 1362 M13 1342 L13 1340.5 L12 1340 L12 1341 L13 1342 M24 1341 L24 1340 L23 1340 L23 1341 L24 1341 M20 1343 L20 1341.5 L19 1341 L19 1342 L20 1343 M23 1342 L23 1341 L22 1341 L22 1342 L23 1342 M12 1344 L12 1342.5 L11 1342 L11 1343 L12 1344 M22 1343 L22 1342 L21 1342 L21 1343 L22 1343 M4 1345 L4 1343.5 L3 1343 L3 1344 L4 1345 M11 1346 L11 1344.5 L10 1344 L10 1345 L11 1346 M3 1346 L3 1345 L2 1345 L2 1346 L3 1346 M20 1346 L20 1345 L19 1345 L19 1346 L20 1346 M10 1348 L10 1346.5 L9 1346 L9 1347 L10 1348 M19 1348 L19 1346.5 L18 1346 L18 1347 L19 1348 M2 1348 L2 1347 L1 1347 L1 1348 L2 1348 M9 1350 L9 1348.5 L8 1348 L8 1349 L9 1350 M18 1350 L18 1349 L17 1349 L17 1350 L18 1350 M4 1352 L4 1350.5 L3 1350 L3 1351 L4 1352 M8 1351 L8 1350 L7 1350 L7 1351 L8 1351 M-3 1364.5 L-1.25 1363.75 L-0.5 1361 L2.5 1354 L3 1352.5 L2.5 1352 L1 1353.5 L0.5 1355 L-4.5 1363 L-4.75 1364.75 L-3 1364.5 M7 1353 L7 1352 L6 1352 L6 1353 L7 1353 M6 1355 L6 1354 L5 1354 L5 1355 L6 1355 M14 1360 L14 1358.5 L13 1358 L13 1359 L14 1360 M13 1361 L13 1360 L12 1360 L12 1361 L13 1361 M11 1362 L11 1361 L10 1361 L10 1362 L11 1362 M-11.5 1366 L-11 1365.5 L-12 1364.5 L-12 1362.5 L-13 1362 L-13 1362.5 L-13.25 1363.75 L-14.75 1364.25 L-14.75 1365.75 L-11.5 1366 M10 1363 L10 1362 L9 1362 L9 1363 L10 1363 M8.5 1364 L9 1363 L7.5 1363 L7 1364 L8.5 1364 M5 1365 L5 1364 L4 1364 L4 1365 L5 1365 M-9 1366 L-9 1365 L-10 1365 L-10 1366 L-9 1366 "></path>
<path d="M-101 1273 L-102 1272.5 L-102 1267 L-101 1267.5 L-101 1273 "></path>
<path d="M-98 1267 L-99 1266 L-99 1265 L-98 1265.5 L-98 1267 "></path>
<path d="M-100 1267 L-101 1266.5 L-101 1261 L-100 1261.5 L-100 1267 "></path>
<path d="M-97 1262 L-98 1261 L-98 1260 L-97 1260.5 L-97 1262 "></path>
<path d="M-99 1261 L-100 1260.5 L-100 1256 L-99 1256.5 L-99 1261 "></path>
<path d="M-96 1256 L-97 1256 L-97 1255 L-96 1255 L-96 1256 "></path>
<path d="M-96 1249 L-97 1249 L-97 1248 L-96 1248 L-96 1249 "></path>
<path d="M-98 1256 L-99 1255.5 L-99 1248 L-98 1248.5 L-98 1256 "></path>
<path d="M-99 1248 L-100 1247.5 L-100 1245 L-99 1245.5 L-99 1248 "></path>
<path d="M-100 1245 L-101 1244 L-101 1243 L-100 1243.5 L-100 1245 "></path>
<path d="M-101.5 1243 L-103 1241.5 L-102.5 1241 L-101.25 1241.25 L-101 1242.5 L-101.5 1243 "></path>
<path d="M-204 1515 L-205.5 1513.5 L-221.5 1472 L-224.375 1461 L-237.75 1333 L-235.375 1310 L-230.5 1288 L-226.5 1275 L-224.5 1270 L-221 1263.5 L-219 1260.5 L-209.5 1248 L-208 1245.5 L-198.75 1232.25 L-190.5 1227 L-188 1225.75 L-175 1222.5 L-166 1222.5 L-152 1224.5 L-128 1230.5 L-124.5 1231 L-122.5 1233 L-120 1233.5 L-110 1236.5 L-107 1237.63 L-105.5 1238 L-103 1240.5 L-103.5 1241 L-108 1238.63 L-111 1237.5 L-130 1232.5 L-133.5 1232 L-134.5 1231 L-135.5 1232 L-138 1231.5 L-153 1227.5 L-166 1225.5 L-175 1225.5 L-187.5 1228 L-190.5 1231 L-193.5 1232 L-199 1237.5 L-200 1239.5 L-202 1242.5 L-217 1262.5 L-222.375 1273 L-232.5 1311 L-234 1348.5 L-235 1349.5 L-234 1350.5 L-233.625 1365 L-232.5 1371 L-232.5 1380 L-231.375 1386 L-222.375 1461 L-221.5 1465 L-217.5 1479 L-204.625 1512 L-204 1514.5 L-204 1515 "></path>
</g>
</g>
</svg>